{"glyphs":{"0":{"ha":1596,"x_min":149,"x_max":1499,"o":"m 1499 949 l 1499 0 l 149 0 l 149 949 l 1499 949 m 1479 929 l 168 929 l 168 19 l 1479 19 l 1479 929 m 797 796 q 782 806 783 800 q 786 817 781 813 q 802 826 792 822 q 824 829 813 829 q 847 824 836 829 q 857 803 857 818 q 871 793 869 800 q 869 778 872 786 q 862 762 867 769 q 858 747 857 754 q 878 744 863 742 q 907 747 893 746 q 928 746 921 749 q 926 728 936 743 q 910 736 924 738 q 888 736 897 735 q 890 731 892 732 q 883 721 881 724 q 877 728 876 724 q 882 736 878 733 q 875 738 878 736 q 864 713 869 724 q 856 686 858 703 q 876 685 869 689 q 882 675 882 681 q 877 665 882 669 q 865 660 872 660 q 847 675 856 660 q 828 667 840 672 q 806 663 817 663 q 793 682 788 663 q 808 674 797 674 q 828 678 818 674 q 846 685 839 682 q 847 691 847 688 q 849 697 847 694 q 835 689 842 688 q 829 701 829 690 q 817 691 825 690 q 813 703 810 692 q 801 688 806 696 q 788 686 796 679 q 788 697 786 690 q 793 708 790 703 q 798 717 796 714 q 800 721 800 721 q 805 717 806 721 q 801 707 804 713 q 796 696 799 701 q 794 689 793 690 q 807 703 797 690 q 821 724 817 717 q 825 719 825 722 q 824 711 825 715 q 820 703 822 707 q 819 697 818 699 q 828 706 822 697 q 839 719 835 714 q 849 725 843 725 q 857 718 854 725 q 863 731 860 725 q 868 739 865 736 q 851 751 851 743 q 857 769 851 760 q 865 785 863 778 q 857 794 868 793 q 847 760 854 776 q 833 749 840 743 q 846 769 840 756 q 851 796 851 783 q 824 795 839 796 q 797 796 810 794 m 896 797 q 880 807 882 796 q 881 824 878 818 q 891 815 883 818 q 909 812 899 813 q 931 813 919 811 q 950 814 942 814 q 993 809 976 819 q 1015 783 1010 799 q 1012 753 1019 768 q 983 732 1004 738 q 960 744 968 732 q 957 771 953 757 q 950 758 954 765 q 940 749 946 751 q 933 760 931 749 q 927 764 928 757 q 926 775 926 771 q 921 769 925 775 q 912 758 917 763 q 903 751 907 753 q 900 758 900 750 q 890 756 894 751 q 889 768 886 761 q 884 760 888 765 q 878 753 881 756 q 872 750 875 750 q 867 757 868 750 q 875 776 868 764 q 889 788 882 788 q 897 782 893 788 q 899 773 904 779 q 896 760 894 767 q 902 767 899 761 q 910 778 906 772 q 917 790 914 785 q 921 794 919 794 q 924 788 925 793 q 921 778 924 783 q 914 769 918 774 q 910 763 910 765 q 919 774 914 768 q 927 782 924 779 q 933 781 931 785 q 933 765 935 778 q 944 778 939 769 q 956 788 949 788 q 964 785 956 788 q 968 780 968 785 q 966 769 968 775 q 963 756 964 763 q 965 746 961 750 q 982 740 972 738 q 997 751 992 743 q 1003 794 1017 783 q 965 804 990 804 q 928 801 947 804 q 896 797 908 799 m 663 710 q 635 724 642 713 q 634 747 629 735 q 653 765 639 758 q 683 764 667 772 q 698 783 690 774 q 713 803 706 793 q 683 797 700 804 q 672 774 667 790 q 661 777 665 772 q 660 788 657 782 q 685 807 665 803 q 719 804 706 811 q 713 774 724 789 q 704 742 703 758 q 727 778 717 760 q 747 817 738 797 q 748 798 754 813 q 733 765 742 783 q 722 729 725 746 q 732 704 718 713 q 717 708 722 703 q 712 721 713 713 q 713 738 711 729 q 718 753 715 747 q 709 741 714 749 q 697 740 704 733 q 692 751 694 746 q 683 758 690 756 q 671 744 678 753 q 657 742 664 735 q 658 746 653 746 q 669 749 664 743 q 679 760 675 756 q 651 752 665 763 q 642 726 636 742 q 655 719 647 719 q 670 719 663 718 q 686 719 678 719 q 700 715 694 719 q 709 701 708 711 q 699 689 710 690 q 688 706 703 703 q 663 710 672 708 m 850 804 q 828 817 846 817 q 806 813 817 817 q 793 804 794 808 q 803 803 796 803 q 819 803 811 803 q 837 805 828 804 q 850 804 846 806 m 714 797 q 703 783 711 793 q 688 763 696 772 q 692 758 690 760 q 696 756 694 757 q 706 780 699 765 q 714 797 713 794 m 735 719 q 728 734 724 722 q 738 757 733 746 q 743 769 740 764 q 749 782 746 775 q 754 794 751 788 q 758 785 763 793 q 753 774 754 778 q 771 789 764 789 q 774 782 775 789 q 771 767 774 775 q 763 753 768 760 q 751 746 757 746 q 743 751 747 746 q 735 719 735 726 m 739 689 q 728 675 726 679 q 738 672 731 671 q 749 678 744 672 q 744 697 753 685 q 738 715 738 706 q 744 731 739 724 q 756 742 749 738 q 771 747 764 747 q 782 724 786 747 q 785 725 783 725 q 788 726 786 725 q 794 740 790 732 q 804 757 799 747 q 795 758 797 753 q 796 768 793 763 q 791 760 794 765 q 784 753 788 756 q 777 750 781 750 q 772 757 774 750 q 781 776 775 764 q 794 788 788 788 q 803 782 799 788 q 805 773 810 779 q 801 760 800 767 q 808 767 804 761 q 815 778 811 772 q 821 790 818 785 q 824 794 824 794 q 828 788 831 792 q 824 776 826 783 q 839 789 835 789 q 842 782 843 789 q 839 767 842 775 q 831 753 836 760 q 819 746 825 746 q 810 753 814 746 q 805 742 807 747 q 800 732 803 738 q 819 739 810 735 q 836 743 829 743 q 847 729 849 743 q 824 732 838 736 q 794 722 810 728 q 781 692 788 708 q 782 667 775 675 q 770 674 772 668 q 770 689 768 681 q 776 705 772 697 q 783 717 781 713 q 772 709 778 714 q 761 704 767 704 q 754 715 756 704 q 775 726 769 714 q 772 739 781 739 q 758 731 769 739 q 750 710 747 721 q 757 690 753 699 q 759 673 761 681 q 738 661 757 665 q 725 666 729 661 q 721 677 721 671 q 724 688 721 683 q 732 693 728 693 q 740 689 736 693 l 739 689 m 768 783 q 760 774 767 783 q 746 756 753 765 q 751 752 747 750 q 759 760 756 754 q 765 774 763 767 q 768 783 768 781 m 813 758 l 813 757 q 817 751 814 751 q 829 765 822 751 q 836 783 836 778 q 826 775 833 783 q 813 758 819 767 m 792 768 q 797 776 794 772 q 800 782 799 779 q 794 781 797 785 q 787 772 790 778 q 781 760 783 767 q 779 753 779 754 q 785 759 781 753 q 792 768 789 765 m 885 768 q 894 781 893 779 q 888 781 892 785 q 881 772 885 778 q 876 760 878 767 q 874 753 874 754 q 879 759 875 753 q 885 768 883 765 m 951 768 q 956 776 954 772 q 961 781 958 779 q 955 781 958 785 q 948 772 951 778 q 942 760 944 767 q 940 753 940 754 q 945 759 942 753 q 951 768 949 765 m 864 696 q 869 715 863 704 q 875 724 876 725 q 879 715 882 724 q 874 704 878 713 q 871 694 871 696 q 882 708 875 694 q 892 721 889 721 q 896 717 892 721 q 889 692 882 692 q 897 699 892 692 q 899 715 901 707 l 894 722 q 913 718 903 718 q 935 724 925 718 q 943 743 946 731 q 953 737 951 744 q 951 724 956 729 q 931 713 949 715 q 903 715 914 710 q 900 698 906 708 q 889 688 894 688 q 881 697 882 688 q 872 690 876 692 q 864 696 867 689 m 836 692 q 854 713 849 700 q 851 720 854 721 q 843 714 847 719 q 837 701 839 708 q 836 692 835 694 m 868 681 q 856 678 864 681 q 863 667 857 668 q 872 668 868 665 q 876 675 876 671 q 868 681 876 679 m 1085 525 q 1071 518 1079 518 q 1058 525 1063 518 q 1053 541 1053 532 q 1057 557 1053 550 q 1069 567 1061 564 q 1085 564 1076 569 q 1085 572 1085 567 q 1085 580 1086 576 q 1083 586 1085 583 q 1075 588 1081 589 l 1075 590 l 1093 592 l 1094 590 l 1094 529 q 1096 525 1093 526 q 1101 524 1099 524 l 1101 521 l 1086 519 l 1085 521 l 1085 525 m 557 528 q 558 538 557 529 q 558 558 558 547 q 558 577 558 568 q 554 586 557 586 l 551 588 l 549 588 l 549 590 l 565 592 l 565 528 q 572 524 565 524 l 572 519 l 550 519 l 550 524 q 557 528 557 524 m 1117 578 q 1111 584 1111 578 q 1117 590 1111 590 q 1123 584 1124 590 q 1117 578 1122 578 m 979 579 l 979 565 l 992 565 l 992 561 l 979 561 l 979 536 q 982 526 978 529 q 993 525 986 522 l 993 522 q 977 519 982 517 q 971 530 972 522 q 970 547 969 538 q 971 561 971 556 l 963 561 l 963 565 l 971 565 l 971 579 l 979 579 m 1172 560 q 1176 533 1183 549 q 1156 518 1168 518 q 1140 525 1147 518 q 1135 552 1128 538 q 1157 567 1143 567 q 1172 560 1165 567 m 1292 560 q 1295 533 1303 549 q 1275 518 1288 518 q 1260 525 1267 518 q 1255 552 1247 538 q 1276 567 1263 567 q 1292 560 1285 567 m 507 539 q 518 544 510 543 q 531 549 526 546 q 527 561 532 556 q 515 561 522 567 q 514 551 517 553 q 508 552 511 550 q 506 558 506 554 q 517 565 507 563 q 535 563 532 569 q 539 548 539 557 q 539 531 539 539 q 547 524 539 524 l 547 521 q 537 519 542 518 q 531 525 532 519 q 515 519 525 519 q 505 526 508 518 q 507 539 501 533 m 894 546 q 903 549 903 549 q 900 561 906 556 q 888 561 894 567 q 886 551 889 553 q 881 552 883 550 q 880 558 879 554 q 889 565 881 563 q 908 563 904 569 q 911 548 911 557 q 911 531 911 539 q 919 524 911 524 l 919 521 q 910 519 915 518 q 904 525 904 519 l 903 525 q 889 518 896 518 q 876 531 878 518 q 894 546 875 543 m 651 546 q 660 549 660 549 q 656 561 661 556 q 644 561 651 567 q 643 551 646 553 q 638 552 640 550 q 635 558 635 554 q 646 565 636 563 q 665 563 661 569 q 668 548 668 557 q 667 531 668 539 q 675 524 667 524 l 675 521 q 666 519 671 518 q 660 525 661 519 q 646 518 653 518 q 633 531 635 518 q 651 546 632 543 m 775 556 q 781 565 776 563 q 793 567 786 567 q 805 563 800 567 q 808 551 810 560 q 808 534 811 544 q 817 524 806 524 l 817 521 q 806 519 811 518 q 800 525 801 519 q 785 518 790 518 q 773 531 774 518 q 800 549 772 543 q 797 561 801 556 q 785 561 792 567 q 783 551 788 554 q 775 556 778 549 m 1232 519 q 1217 525 1222 519 q 1210 538 1211 531 q 1213 553 1210 546 q 1224 565 1215 561 q 1241 565 1231 569 q 1246 551 1251 561 q 1238 551 1240 546 q 1238 561 1235 556 q 1223 558 1226 567 q 1222 538 1219 549 q 1231 523 1224 528 q 1247 532 1238 518 l 1250 531 q 1232 519 1242 518 m 954 542 q 956 526 961 535 q 942 519 951 518 q 935 519 939 518 q 929 522 932 521 l 928 519 l 925 519 l 924 536 l 928 536 q 940 522 928 525 q 950 533 953 519 q 938 540 946 540 q 926 547 929 540 q 931 564 921 558 q 950 564 942 569 l 951 567 l 956 567 l 956 553 l 953 553 q 942 563 953 563 q 933 553 931 564 q 943 547 936 549 q 954 542 950 546 m 601 503 l 601 500 l 576 500 l 576 503 q 585 507 585 503 l 585 556 q 576 563 585 563 l 576 565 l 592 567 l 593 565 l 593 560 q 608 567 603 567 q 622 557 618 567 q 624 537 626 547 q 615 521 622 526 q 593 522 607 515 q 593 508 593 515 q 601 503 593 501 m 678 503 q 685 504 685 503 q 686 507 686 507 l 686 556 q 678 563 686 563 l 678 565 l 694 567 l 694 560 q 710 567 704 567 q 724 557 719 567 q 726 537 728 547 q 716 521 724 526 q 694 522 708 515 q 694 508 694 515 q 704 503 694 501 l 704 500 l 678 500 l 678 503 m 835 567 l 836 565 l 836 558 q 854 567 843 568 q 864 551 865 565 q 864 535 865 547 q 871 524 863 522 l 871 519 l 849 519 l 849 524 q 856 528 856 524 q 855 544 854 532 q 853 558 856 556 q 844 560 850 563 q 836 554 839 558 q 835 535 838 549 q 843 524 833 522 l 843 519 l 821 519 l 821 524 q 828 528 828 524 q 827 536 826 531 q 828 548 828 542 q 826 558 828 554 q 819 563 825 563 l 819 565 l 835 567 m 1311 528 q 1311 545 1310 531 q 1308 561 1313 560 q 1306 562 1307 561 q 1304 563 1306 563 l 1304 565 l 1319 567 l 1319 558 q 1335 567 1325 565 q 1347 558 1344 568 q 1365 567 1354 568 q 1375 551 1376 565 q 1375 535 1376 547 q 1382 524 1374 522 l 1382 519 l 1360 519 l 1360 524 q 1367 535 1369 522 q 1367 551 1365 547 q 1360 561 1368 561 q 1347 554 1351 561 l 1347 528 q 1354 524 1347 524 l 1354 519 l 1332 519 l 1332 524 q 1340 535 1342 522 q 1339 551 1338 547 q 1331 561 1340 561 q 1319 554 1322 561 q 1319 547 1319 553 q 1319 536 1319 542 q 1321 526 1319 531 q 1326 524 1322 522 l 1326 519 l 1304 519 l 1304 524 q 1311 528 1311 524 m 735 524 q 740 525 739 524 q 741 540 742 525 q 740 556 740 554 q 733 563 740 563 l 733 565 l 749 567 l 750 565 l 750 558 q 763 567 753 567 q 768 556 772 567 q 761 554 765 551 q 760 561 757 557 q 750 554 753 561 l 750 528 q 758 524 749 524 l 758 519 l 735 519 l 735 524 m 1029 529 q 1031 533 1031 529 q 1031 542 1031 538 q 1031 552 1031 547 q 1031 557 1031 557 q 1022 563 1031 563 l 1022 565 l 1039 567 l 1039 529 q 1046 524 1039 524 l 1046 521 l 1032 519 l 1031 521 l 1031 526 q 1013 519 1024 518 q 1003 535 1001 521 q 1003 551 1001 539 q 996 563 1006 564 l 996 565 l 1011 567 l 1011 565 q 1011 554 1011 561 q 1012 540 1011 547 q 1014 528 1013 533 q 1019 524 1015 524 q 1029 529 1024 524 m 1113 528 q 1113 544 1113 531 q 1111 561 1114 558 q 1108 562 1110 561 q 1106 563 1107 563 l 1106 565 l 1121 567 l 1122 565 l 1122 528 q 1128 524 1121 524 l 1128 519 l 1107 519 l 1107 524 q 1113 528 1114 524 m 272 557 q 265 563 269 563 l 265 565 l 286 565 l 286 563 q 281 559 282 563 q 283 551 281 556 q 287 540 285 546 q 289 532 289 535 l 301 564 l 306 564 l 317 532 q 319 541 317 536 q 324 551 322 546 q 325 559 325 556 q 319 563 325 563 l 319 565 l 356 565 l 356 563 q 353 551 347 563 q 360 532 358 539 l 371 564 l 375 564 l 388 532 q 390 541 388 536 q 393 551 392 546 q 394 559 394 556 q 389 563 394 563 l 389 565 l 425 565 l 425 563 q 422 551 417 563 q 429 532 428 539 l 440 564 l 444 564 l 457 532 q 459 541 457 536 q 463 551 461 546 q 464 559 464 556 q 458 563 464 563 l 458 565 l 476 565 l 476 563 q 464 544 465 557 q 457 519 463 531 l 453 519 l 440 553 l 428 519 l 424 519 q 406 561 414 561 q 388 519 400 561 l 383 519 l 371 553 l 358 519 l 354 519 q 336 561 344 561 q 317 519 329 561 l 314 519 l 301 553 l 289 519 l 285 519 q 278 539 282 529 q 272 557 275 549 m 1144 550 q 1144 535 1143 543 q 1150 524 1144 528 q 1168 533 1165 518 q 1167 557 1171 547 q 1153 563 1161 567 q 1144 550 1144 560 m 1264 550 q 1263 535 1263 543 q 1269 524 1264 528 q 1287 533 1283 518 q 1286 557 1290 547 q 1272 563 1281 567 q 1264 550 1264 560 m 1063 551 q 1064 533 1060 543 q 1075 524 1068 524 q 1085 529 1081 524 l 1085 556 q 1073 563 1082 565 q 1063 551 1064 561 m 593 557 q 592 546 593 553 q 593 533 592 539 q 597 524 594 526 q 608 524 600 521 q 617 547 619 531 q 603 563 614 563 q 593 557 599 563 m 694 557 q 694 546 694 553 q 695 533 694 539 q 699 524 696 526 q 710 524 701 521 q 718 547 721 531 q 704 563 715 563 q 694 557 700 563 m 903 546 q 887 533 889 543 q 892 524 885 524 q 903 529 897 524 l 903 546 m 800 546 q 784 533 786 543 q 789 524 782 524 q 800 529 794 524 l 800 546 m 531 529 l 531 546 q 522 542 526 543 q 515 536 518 540 q 518 525 510 528 q 531 529 526 522 m 660 546 q 642 533 644 543 q 649 524 640 524 q 660 529 654 524 l 660 546 m 1194 519 q 1188 526 1188 519 q 1194 532 1188 532 q 1201 526 1201 532 q 1194 519 1201 519 m 488 519 q 481 526 481 519 q 488 532 481 532 q 494 526 494 532 q 488 519 494 519 m 736 401 l 736 408 l 913 408 l 913 401 l 736 401 m 1154 301 q 1165 278 1164 290 q 1160 255 1165 265 q 1144 238 1154 244 q 1122 232 1135 232 q 1094 243 1106 232 q 1084 267 1085 254 q 1089 290 1083 279 q 1104 306 1094 300 q 1126 313 1114 313 q 1154 301 1143 313 m 594 274 q 583 244 597 254 q 553 233 568 233 q 525 243 538 233 q 514 272 513 253 q 525 301 511 292 q 556 311 539 311 q 583 302 571 311 q 594 274 596 293 m 935 281 q 935 297 931 290 q 946 308 939 304 q 962 311 953 311 q 979 308 971 311 l 976 292 l 974 290 l 969 306 q 953 303 963 308 q 950 289 944 299 q 963 280 954 282 q 976 271 971 278 q 983 253 985 261 q 972 239 981 244 q 953 233 964 233 q 933 236 942 232 l 936 256 l 939 257 l 943 240 q 961 241 951 236 q 965 257 971 246 q 949 267 960 265 q 935 281 939 269 m 457 281 q 457 297 453 290 q 468 308 461 304 q 484 311 475 311 q 501 308 493 311 l 499 292 l 496 290 l 492 306 q 475 303 483 308 q 472 289 467 299 q 485 280 476 282 q 499 271 493 278 q 505 253 507 261 q 494 239 503 244 q 475 233 486 233 q 456 236 464 232 l 458 256 l 461 257 l 465 240 q 483 241 474 236 q 488 257 493 246 q 472 267 482 265 q 457 281 461 269 m 243 238 q 250 240 247 239 q 251 246 253 240 l 251 294 q 251 303 251 301 q 243 307 250 306 l 243 310 q 293 306 279 314 q 307 289 307 299 q 295 271 307 279 q 268 267 283 263 l 268 242 q 272 239 268 239 q 278 238 276 239 l 278 235 l 243 235 l 243 238 m 757 238 l 757 235 l 724 235 l 724 238 q 731 246 735 239 q 725 258 726 253 l 703 258 q 697 245 701 253 q 704 238 693 238 l 704 235 l 679 235 l 679 238 q 690 246 689 240 l 717 311 l 722 311 l 746 246 q 757 238 747 240 m 378 238 q 386 242 386 239 q 386 251 386 244 l 386 294 q 385 303 386 301 q 378 307 385 306 l 378 310 q 406 310 390 308 q 432 306 421 313 q 439 287 443 299 q 422 272 435 275 q 435 251 431 263 q 451 238 439 240 l 451 235 q 431 235 438 231 q 422 245 425 239 q 415 258 418 251 q 403 269 411 265 q 402 256 403 264 q 403 242 401 247 q 404 239 401 239 q 410 238 407 239 l 410 235 l 378 235 l 378 238 m 1282 294 l 1282 240 l 1303 240 l 1311 256 l 1314 257 l 1313 235 l 1258 235 l 1258 238 q 1266 242 1265 239 q 1267 251 1267 244 l 1267 294 q 1266 303 1267 301 q 1258 307 1265 306 l 1258 310 l 1290 310 l 1290 307 q 1283 303 1283 306 q 1282 294 1282 301 m 1354 310 l 1378 310 l 1379 307 q 1371 302 1375 307 q 1363 291 1367 297 q 1357 278 1360 285 q 1351 269 1354 272 l 1351 242 q 1354 239 1351 239 q 1358 238 1357 239 l 1360 235 l 1326 235 l 1326 238 q 1331 239 1328 239 q 1335 242 1335 239 l 1335 268 q 1330 278 1333 271 q 1323 291 1326 285 q 1315 302 1319 297 q 1306 307 1310 307 l 1306 310 l 1340 310 l 1342 307 q 1336 297 1331 306 l 1349 275 l 1358 296 q 1354 307 1364 306 l 1354 310 m 1038 240 l 1044 254 l 1047 256 l 1046 235 l 992 235 l 990 238 q 999 242 999 239 q 1000 251 1000 244 l 1000 294 q 999 303 1000 301 q 992 307 999 306 l 990 310 l 1046 310 l 1043 292 l 1040 292 l 1036 304 l 1015 304 l 1015 276 q 1026 276 1022 276 q 1032 285 1031 275 l 1036 285 l 1036 263 l 1032 261 q 1026 271 1031 272 q 1015 271 1022 269 l 1015 240 l 1038 240 m 914 310 l 926 310 l 926 307 q 917 295 917 307 q 917 270 917 283 q 913 245 918 257 q 888 233 908 233 q 860 244 865 233 q 855 269 854 256 q 856 295 856 283 q 847 307 857 307 l 847 310 l 879 310 l 881 307 q 872 303 874 306 q 871 294 871 301 q 872 269 872 286 q 876 244 871 251 q 893 239 886 239 q 904 245 900 239 q 910 260 908 251 q 910 278 911 268 q 910 294 910 288 q 909 303 910 301 q 901 307 908 306 l 901 310 l 914 310 m 1174 307 l 1174 310 l 1194 310 q 1202 301 1196 308 q 1215 284 1208 293 q 1228 267 1222 275 q 1235 260 1235 260 l 1235 294 q 1234 303 1235 301 q 1226 307 1233 306 l 1226 310 l 1250 310 l 1250 307 q 1242 303 1243 306 q 1242 294 1242 301 l 1242 235 l 1235 235 q 1227 245 1235 236 q 1211 265 1219 254 q 1196 284 1203 275 q 1189 293 1189 293 l 1189 251 q 1189 242 1189 244 q 1197 238 1189 239 l 1197 235 l 1174 235 l 1174 238 q 1181 242 1181 239 q 1182 251 1182 244 l 1182 294 q 1181 303 1182 301 q 1174 307 1181 306 m 367 235 l 311 235 l 311 238 q 318 240 315 239 q 319 246 321 240 l 319 294 q 319 303 321 301 q 311 307 318 306 l 311 310 l 367 310 l 364 292 l 360 292 l 357 304 l 336 304 l 336 276 q 347 276 343 276 q 353 285 351 275 l 357 285 q 356 273 356 276 q 357 263 356 269 l 353 261 q 347 271 351 272 q 336 271 343 269 l 336 240 l 358 240 l 364 254 l 368 256 l 367 235 m 815 235 l 761 235 l 761 238 q 769 242 769 239 q 769 251 769 244 l 769 294 q 769 303 769 301 q 761 307 768 306 l 761 310 l 793 310 l 793 307 q 786 303 786 306 q 786 294 786 301 q 785 267 786 288 q 786 240 785 247 l 807 240 l 814 256 l 817 257 l 815 235 m 603 238 q 608 239 604 239 q 611 242 611 239 l 611 294 q 610 303 611 301 q 603 307 610 306 l 603 310 l 624 310 q 631 301 625 308 q 644 284 638 293 q 658 267 651 275 q 664 260 664 260 l 664 294 q 663 303 664 301 q 656 307 663 306 l 656 310 l 679 310 l 681 307 q 672 303 674 306 q 671 294 671 301 l 671 235 l 665 235 q 657 245 664 236 q 642 265 650 254 q 626 284 633 275 q 618 293 618 293 l 618 251 q 619 242 618 244 q 626 238 619 239 l 626 235 l 603 235 l 603 238 m 1393 257 l 1388 308 l 1404 308 l 1397 257 l 1393 257 m 1107 299 q 1102 281 1103 292 q 1103 261 1101 271 q 1111 244 1106 251 q 1125 238 1117 238 q 1142 246 1133 238 q 1147 263 1146 253 q 1146 283 1149 274 q 1138 300 1143 293 q 1125 307 1133 307 q 1107 299 1115 307 m 571 246 q 576 263 575 253 q 575 283 578 274 q 567 300 572 293 q 554 307 563 307 q 536 299 544 307 q 531 281 532 292 q 533 261 531 271 q 540 244 535 251 q 554 238 546 238 q 571 246 563 238 m 268 272 q 283 274 278 268 q 289 288 289 281 q 284 301 289 296 q 268 304 279 307 l 268 272 m 403 275 q 417 278 413 272 q 422 290 422 283 q 417 302 422 297 q 403 304 413 307 l 403 275 m 722 264 q 718 277 721 267 q 714 290 715 288 q 710 277 713 288 q 706 264 707 267 l 722 264 m 1396 250 q 1403 242 1403 250 q 1396 233 1403 233 q 1388 242 1388 233 q 1396 250 1388 250 m 775 129 q 788 132 779 129 l 788 129 q 768 124 778 124 q 747 135 754 124 q 742 158 740 146 q 755 178 744 169 q 786 181 765 186 l 786 179 l 785 165 l 782 165 l 779 176 q 760 173 767 181 q 753 156 754 165 q 758 138 753 146 q 775 129 764 129 m 1146 129 q 1157 132 1149 129 l 1158 129 q 1139 124 1149 124 q 1118 135 1125 124 q 1113 158 1111 146 q 1126 178 1115 169 q 1157 181 1136 186 l 1157 179 l 1154 165 l 1153 165 l 1150 176 q 1131 173 1138 181 q 1124 156 1125 165 q 1129 138 1124 146 q 1146 129 1135 129 m 822 182 q 844 174 838 183 q 850 153 850 164 q 842 132 850 142 q 819 124 835 122 q 799 133 806 124 q 792 153 792 142 q 800 174 792 165 q 822 182 808 183 m 629 182 q 651 174 644 183 q 657 153 657 164 q 649 132 657 142 q 626 124 642 122 q 606 133 613 124 q 599 153 599 142 q 607 174 599 165 q 629 182 615 183 m 451 182 q 474 174 467 183 q 481 153 481 164 q 473 132 481 142 q 450 124 465 122 q 428 133 436 124 q 422 153 421 142 q 430 174 422 165 q 451 182 438 183 m 1243 129 l 1247 125 l 1222 125 l 1222 128 q 1226 133 1229 128 q 1224 143 1224 139 l 1207 143 q 1203 133 1206 139 q 1208 128 1200 128 l 1208 125 l 1190 125 l 1190 128 q 1197 133 1197 128 l 1218 181 l 1222 182 q 1225 172 1222 181 q 1231 153 1228 163 q 1238 137 1235 144 q 1243 129 1242 129 m 718 128 l 718 125 q 703 126 708 124 q 696 134 699 129 q 691 144 693 139 q 682 151 689 149 q 683 137 685 146 q 688 128 681 128 l 688 125 l 664 125 l 664 128 q 671 130 671 128 q 671 138 671 132 l 671 172 q 669 177 672 176 q 664 179 667 178 l 664 181 q 685 181 674 179 q 704 178 697 182 q 710 163 713 172 q 697 153 707 154 q 706 138 703 146 q 718 128 710 131 m 1108 128 l 1111 128 l 1111 125 q 1097 126 1101 124 q 1089 134 1092 129 q 1083 144 1086 139 q 1075 151 1081 149 q 1074 137 1076 146 q 1079 128 1072 128 l 1079 125 l 1057 125 l 1057 128 q 1063 130 1063 128 q 1063 138 1063 132 l 1063 172 q 1062 177 1064 176 q 1057 179 1060 178 l 1057 181 q 1077 181 1065 179 q 1097 178 1089 182 q 1101 163 1104 172 q 1090 153 1099 154 q 1099 138 1096 146 q 1108 128 1101 131 m 514 181 l 532 181 l 533 181 l 531 165 l 528 165 l 525 176 l 514 176 l 514 138 q 515 130 514 131 q 521 128 515 129 l 522 125 l 496 125 l 494 128 q 499 128 496 128 q 503 131 503 129 l 503 176 l 492 176 l 488 165 l 485 165 l 485 181 l 514 181 m 926 179 q 922 178 925 178 q 919 176 919 178 l 919 138 q 919 130 919 132 q 926 128 919 128 l 926 125 l 903 125 l 903 128 q 908 133 907 128 q 908 146 908 139 q 908 160 908 153 q 908 171 907 168 q 904 163 907 169 q 899 148 901 156 q 893 134 896 140 q 889 125 890 128 l 886 125 q 882 134 885 128 q 876 148 879 140 q 871 162 874 156 q 868 169 868 168 q 869 160 869 167 q 868 146 868 153 q 869 133 868 139 q 874 128 869 128 l 874 125 l 857 125 l 857 128 q 863 131 863 129 q 863 138 863 132 l 863 169 q 857 179 864 178 l 857 181 l 875 181 q 878 174 875 179 q 883 161 881 168 q 888 148 886 154 q 890 142 890 142 q 893 148 890 142 q 899 161 896 154 q 904 174 901 168 q 907 181 907 179 l 925 181 l 926 179 m 1189 179 q 1183 177 1186 178 q 1182 172 1181 176 l 1182 138 q 1182 131 1182 133 q 1189 128 1182 128 l 1189 125 l 1164 125 l 1164 128 q 1171 130 1171 128 q 1171 138 1171 132 l 1171 172 q 1169 177 1172 176 q 1164 179 1167 178 l 1164 181 l 1189 181 l 1189 179 m 407 181 l 415 181 l 415 179 q 410 169 408 178 l 410 125 l 404 125 q 399 133 404 126 q 387 147 393 139 q 376 161 381 154 q 371 168 371 168 l 371 138 q 371 130 371 132 q 376 128 371 128 l 376 125 l 360 125 l 360 128 q 365 131 365 129 q 365 138 365 132 l 365 169 q 365 176 365 175 q 360 179 365 178 l 360 181 l 375 181 q 380 174 375 179 q 390 161 385 168 q 399 149 394 154 q 404 143 404 143 l 404 169 q 399 179 404 178 l 397 181 l 407 181 m 1283 129 l 1290 142 l 1290 126 l 1289 125 l 1250 125 l 1250 128 q 1256 131 1256 128 q 1256 138 1256 133 l 1256 169 q 1256 176 1256 174 q 1250 179 1256 178 l 1250 181 l 1274 181 l 1274 179 q 1268 176 1268 178 q 1268 169 1268 174 l 1268 129 l 1283 129 m 575 181 l 594 181 l 592 167 l 590 167 l 588 176 l 572 176 l 572 154 q 581 155 578 156 q 585 161 583 154 l 588 161 l 588 144 l 585 144 q 581 151 583 151 q 572 151 578 150 l 572 131 q 575 128 572 129 q 579 128 578 128 l 579 125 l 554 125 l 554 128 q 561 131 561 129 q 561 138 561 132 l 561 172 q 560 177 563 176 q 554 179 557 178 l 554 181 l 575 181 m 1008 181 l 1049 181 l 1046 167 l 1044 167 l 1042 176 l 1026 176 l 1026 156 q 1035 156 1032 156 q 1039 163 1038 156 l 1042 163 q 1042 146 1040 153 l 1039 144 q 1035 151 1038 151 q 1026 151 1032 151 l 1026 129 l 1042 129 l 1047 140 l 1050 140 l 1049 126 l 1049 125 l 1008 125 l 1008 128 q 1014 130 1014 128 q 1014 138 1014 132 l 1014 172 q 1013 177 1015 176 q 1008 179 1011 178 l 1008 181 m 1001 179 q 997 178 1000 178 q 994 176 994 178 l 994 138 q 994 130 994 132 q 1001 128 994 128 l 1001 125 l 978 125 l 978 128 q 983 133 982 128 q 983 146 983 139 q 983 160 983 153 q 983 171 982 168 q 981 163 983 169 q 974 148 978 156 q 968 134 971 140 q 965 125 965 128 l 961 125 q 958 134 961 128 q 952 148 956 140 q 946 162 949 156 q 943 169 943 168 q 944 160 944 167 q 943 146 943 153 q 944 133 943 139 q 949 128 944 128 l 949 125 l 932 125 l 932 128 q 939 131 939 129 q 939 138 939 132 l 939 169 q 932 179 939 178 l 932 181 l 951 181 q 953 174 951 179 q 958 161 956 168 q 964 148 961 154 q 967 142 967 142 q 969 148 967 142 q 974 161 971 154 q 979 174 976 168 q 982 181 982 179 l 1001 181 l 1001 179 m 464 133 q 467 162 471 144 q 451 179 463 179 q 439 172 446 179 q 436 144 432 161 q 451 128 440 128 q 464 133 458 128 m 640 133 q 643 162 647 144 q 628 179 639 179 q 615 172 622 179 q 613 144 608 161 q 628 128 617 128 q 640 133 635 128 m 833 133 q 836 162 840 144 q 821 179 832 179 q 808 172 815 179 q 806 144 801 161 q 821 128 810 128 q 833 133 828 128 m 694 157 q 697 172 700 164 q 682 176 693 179 l 682 154 q 694 157 692 154 m 1086 157 q 1088 172 1092 164 q 1075 176 1085 179 l 1075 154 q 1086 157 1085 154 m 1222 147 q 1219 156 1221 150 q 1215 165 1217 163 q 1212 156 1214 163 q 1208 147 1210 150 l 1222 147 z "},"1":{"ha":1596,"x_min":149,"x_max":1499,"o":"m 1499 949 l 1499 0 l 149 0 l 149 949 l 1499 949 m 1479 929 l 168 929 l 168 19 l 1479 19 l 1479 929 m 797 796 q 782 806 783 800 q 786 817 781 813 q 802 826 792 822 q 824 829 813 829 q 847 824 836 829 q 857 803 857 818 q 871 793 869 800 q 869 778 872 786 q 862 762 867 769 q 858 747 857 754 q 878 744 863 742 q 907 747 893 746 q 928 746 921 749 q 926 728 936 743 q 910 736 924 738 q 888 736 897 735 q 890 731 892 732 q 883 721 881 724 q 877 728 876 724 q 882 736 878 733 q 875 738 878 736 q 864 713 869 724 q 856 686 858 703 q 876 685 869 689 q 882 675 882 681 q 877 665 882 669 q 865 660 872 660 q 847 675 856 660 q 828 667 840 672 q 806 663 817 663 q 793 682 788 663 q 808 674 797 674 q 828 678 818 674 q 846 685 839 682 q 847 691 847 688 q 849 697 847 694 q 835 689 842 688 q 829 701 829 690 q 817 691 825 690 q 813 703 810 692 q 801 688 806 696 q 788 686 796 679 q 788 697 786 690 q 793 708 790 703 q 798 717 796 714 q 800 721 800 721 q 805 717 806 721 q 801 707 804 713 q 796 696 799 701 q 794 689 793 690 q 807 703 797 690 q 821 724 817 717 q 825 719 825 722 q 824 711 825 715 q 820 703 822 707 q 819 697 818 699 q 828 706 822 697 q 839 719 835 714 q 849 725 843 725 q 857 718 854 725 q 863 731 860 725 q 868 739 865 736 q 851 751 851 743 q 857 769 851 760 q 865 785 863 778 q 857 794 868 793 q 847 760 854 776 q 833 749 840 743 q 846 769 840 756 q 851 796 851 783 q 824 795 839 796 q 797 796 810 794 m 896 797 q 880 807 882 796 q 881 824 878 818 q 891 815 883 818 q 909 812 899 813 q 931 813 919 811 q 950 814 942 814 q 993 809 976 819 q 1015 783 1010 799 q 1012 753 1019 768 q 983 732 1004 738 q 960 744 968 732 q 957 771 953 757 q 950 758 954 765 q 940 749 946 751 q 933 760 931 749 q 927 764 928 757 q 926 775 926 771 q 921 769 925 775 q 912 758 917 763 q 903 751 907 753 q 900 758 900 750 q 890 756 894 751 q 889 768 886 761 q 884 760 888 765 q 878 753 881 756 q 872 750 875 750 q 867 757 868 750 q 875 776 868 764 q 889 788 882 788 q 897 782 893 788 q 899 773 904 779 q 896 760 894 767 q 902 767 899 761 q 910 778 906 772 q 917 790 914 785 q 921 794 919 794 q 924 788 925 793 q 921 778 924 783 q 914 769 918 774 q 910 763 910 765 q 919 774 914 768 q 927 782 924 779 q 933 781 931 785 q 933 765 935 778 q 944 778 939 769 q 956 788 949 788 q 964 785 956 788 q 968 780 968 785 q 966 769 968 775 q 963 756 964 763 q 965 746 961 750 q 982 740 972 738 q 997 751 992 743 q 1003 794 1017 783 q 965 804 990 804 q 928 801 947 804 q 896 797 908 799 m 663 710 q 635 724 642 713 q 634 747 629 735 q 653 765 639 758 q 683 764 667 772 q 698 783 690 774 q 713 803 706 793 q 683 797 700 804 q 672 774 667 790 q 661 777 665 772 q 660 788 657 782 q 685 807 665 803 q 719 804 706 811 q 713 774 724 789 q 704 742 703 758 q 727 778 717 760 q 747 817 738 797 q 748 798 754 813 q 733 765 742 783 q 722 729 725 746 q 732 704 718 713 q 717 708 722 703 q 712 721 713 713 q 713 738 711 729 q 718 753 715 747 q 709 741 714 749 q 697 740 704 733 q 692 751 694 746 q 683 758 690 756 q 671 744 678 753 q 657 742 664 735 q 658 746 653 746 q 669 749 664 743 q 679 760 675 756 q 651 752 665 763 q 642 726 636 742 q 655 719 647 719 q 670 719 663 718 q 686 719 678 719 q 700 715 694 719 q 709 701 708 711 q 699 689 710 690 q 688 706 703 703 q 663 710 672 708 m 850 804 q 828 817 846 817 q 806 813 817 817 q 793 804 794 808 q 803 803 796 803 q 819 803 811 803 q 837 805 828 804 q 850 804 846 806 m 714 797 q 703 783 711 793 q 688 763 696 772 q 692 758 690 760 q 696 756 694 757 q 706 780 699 765 q 714 797 713 794 m 735 719 q 728 734 724 722 q 738 757 733 746 q 743 769 740 764 q 749 782 746 775 q 754 794 751 788 q 758 785 763 793 q 753 774 754 778 q 771 789 764 789 q 774 782 775 789 q 771 767 774 775 q 763 753 768 760 q 751 746 757 746 q 743 751 747 746 q 735 719 735 726 m 739 689 q 728 675 726 679 q 738 672 731 671 q 749 678 744 672 q 744 697 753 685 q 738 715 738 706 q 744 731 739 724 q 756 742 749 738 q 771 747 764 747 q 782 724 786 747 q 785 725 783 725 q 788 726 786 725 q 794 740 790 732 q 804 757 799 747 q 795 758 797 753 q 796 768 793 763 q 791 760 794 765 q 784 753 788 756 q 777 750 781 750 q 772 757 774 750 q 781 776 775 764 q 794 788 788 788 q 803 782 799 788 q 805 773 810 779 q 801 760 800 767 q 808 767 804 761 q 815 778 811 772 q 821 790 818 785 q 824 794 824 794 q 828 788 831 792 q 824 776 826 783 q 839 789 835 789 q 842 782 843 789 q 839 767 842 775 q 831 753 836 760 q 819 746 825 746 q 810 753 814 746 q 805 742 807 747 q 800 732 803 738 q 819 739 810 735 q 836 743 829 743 q 847 729 849 743 q 824 732 838 736 q 794 722 810 728 q 781 692 788 708 q 782 667 775 675 q 770 674 772 668 q 770 689 768 681 q 776 705 772 697 q 783 717 781 713 q 772 709 778 714 q 761 704 767 704 q 754 715 756 704 q 775 726 769 714 q 772 739 781 739 q 758 731 769 739 q 750 710 747 721 q 757 690 753 699 q 759 673 761 681 q 738 661 757 665 q 725 666 729 661 q 721 677 721 671 q 724 688 721 683 q 732 693 728 693 q 740 689 736 693 l 739 689 m 768 783 q 760 774 767 783 q 746 756 753 765 q 751 752 747 750 q 759 760 756 754 q 765 774 763 767 q 768 783 768 781 m 813 758 l 813 757 q 817 751 814 751 q 829 765 822 751 q 836 783 836 778 q 826 775 833 783 q 813 758 819 767 m 792 768 q 797 776 794 772 q 800 782 799 779 q 794 781 797 785 q 787 772 790 778 q 781 760 783 767 q 779 753 779 754 q 785 759 781 753 q 792 768 789 765 m 885 768 q 894 781 893 779 q 888 781 892 785 q 881 772 885 778 q 876 760 878 767 q 874 753 874 754 q 879 759 875 753 q 885 768 883 765 m 951 768 q 956 776 954 772 q 961 781 958 779 q 955 781 958 785 q 948 772 951 778 q 942 760 944 767 q 940 753 940 754 q 945 759 942 753 q 951 768 949 765 m 864 696 q 869 715 863 704 q 875 724 876 725 q 879 715 882 724 q 874 704 878 713 q 871 694 871 696 q 882 708 875 694 q 892 721 889 721 q 896 717 892 721 q 889 692 882 692 q 897 699 892 692 q 899 715 901 707 l 894 722 q 913 718 903 718 q 935 724 925 718 q 943 743 946 731 q 953 737 951 744 q 951 724 956 729 q 931 713 949 715 q 903 715 914 710 q 900 698 906 708 q 889 688 894 688 q 881 697 882 688 q 872 690 876 692 q 864 696 867 689 m 836 692 q 854 713 849 700 q 851 720 854 721 q 843 714 847 719 q 837 701 839 708 q 836 692 835 694 m 868 681 q 856 678 864 681 q 863 667 857 668 q 872 668 868 665 q 876 675 876 671 q 868 681 876 679 m 1085 525 q 1071 518 1079 518 q 1058 525 1063 518 q 1053 541 1053 532 q 1057 557 1053 550 q 1069 567 1061 564 q 1085 564 1076 569 q 1085 572 1085 567 q 1085 580 1086 576 q 1083 586 1085 583 q 1075 588 1081 589 l 1075 590 l 1093 592 l 1094 590 l 1094 529 q 1096 525 1093 526 q 1101 524 1099 524 l 1101 521 l 1086 519 l 1085 521 l 1085 525 m 557 528 q 558 538 557 529 q 558 558 558 547 q 558 577 558 568 q 554 586 557 586 l 551 588 l 549 588 l 549 590 l 565 592 l 565 528 q 572 524 565 524 l 572 519 l 550 519 l 550 524 q 557 528 557 524 m 1117 578 q 1111 584 1111 578 q 1117 590 1111 590 q 1123 584 1124 590 q 1117 578 1122 578 m 979 579 l 979 565 l 992 565 l 992 561 l 979 561 l 979 536 q 982 526 978 529 q 993 525 986 522 l 993 522 q 977 519 982 517 q 971 530 972 522 q 970 547 969 538 q 971 561 971 556 l 963 561 l 963 565 l 971 565 l 971 579 l 979 579 m 1172 560 q 1176 533 1183 549 q 1156 518 1168 518 q 1140 525 1147 518 q 1135 552 1128 538 q 1157 567 1143 567 q 1172 560 1165 567 m 1292 560 q 1295 533 1303 549 q 1275 518 1288 518 q 1260 525 1267 518 q 1255 552 1247 538 q 1276 567 1263 567 q 1292 560 1285 567 m 507 539 q 518 544 510 543 q 531 549 526 546 q 527 561 532 556 q 515 561 522 567 q 514 551 517 553 q 508 552 511 550 q 506 558 506 554 q 517 565 507 563 q 535 563 532 569 q 539 548 539 557 q 539 531 539 539 q 547 524 539 524 l 547 521 q 537 519 542 518 q 531 525 532 519 q 515 519 525 519 q 505 526 508 518 q 507 539 501 533 m 894 546 q 903 549 903 549 q 900 561 906 556 q 888 561 894 567 q 886 551 889 553 q 881 552 883 550 q 880 558 879 554 q 889 565 881 563 q 908 563 904 569 q 911 548 911 557 q 911 531 911 539 q 919 524 911 524 l 919 521 q 910 519 915 518 q 904 525 904 519 l 903 525 q 889 518 896 518 q 876 531 878 518 q 894 546 875 543 m 651 546 q 660 549 660 549 q 656 561 661 556 q 644 561 651 567 q 643 551 646 553 q 638 552 640 550 q 635 558 635 554 q 646 565 636 563 q 665 563 661 569 q 668 548 668 557 q 667 531 668 539 q 675 524 667 524 l 675 521 q 666 519 671 518 q 660 525 661 519 q 646 518 653 518 q 633 531 635 518 q 651 546 632 543 m 775 556 q 781 565 776 563 q 793 567 786 567 q 805 563 800 567 q 808 551 810 560 q 808 534 811 544 q 817 524 806 524 l 817 521 q 806 519 811 518 q 800 525 801 519 q 785 518 790 518 q 773 531 774 518 q 800 549 772 543 q 797 561 801 556 q 785 561 792 567 q 783 551 788 554 q 775 556 778 549 m 1232 519 q 1217 525 1222 519 q 1210 538 1211 531 q 1213 553 1210 546 q 1224 565 1215 561 q 1241 565 1231 569 q 1246 551 1251 561 q 1238 551 1240 546 q 1238 561 1235 556 q 1223 558 1226 567 q 1222 538 1219 549 q 1231 523 1224 528 q 1247 532 1238 518 l 1250 531 q 1232 519 1242 518 m 954 542 q 956 526 961 535 q 942 519 951 518 q 935 519 939 518 q 929 522 932 521 l 928 519 l 925 519 l 924 536 l 928 536 q 940 522 928 525 q 950 533 953 519 q 938 540 946 540 q 926 547 929 540 q 931 564 921 558 q 950 564 942 569 l 951 567 l 956 567 l 956 553 l 953 553 q 942 563 953 563 q 933 553 931 564 q 943 547 936 549 q 954 542 950 546 m 601 503 l 601 500 l 576 500 l 576 503 q 585 507 585 503 l 585 556 q 576 563 585 563 l 576 565 l 592 567 l 593 565 l 593 560 q 608 567 603 567 q 622 557 618 567 q 624 537 626 547 q 615 521 622 526 q 593 522 607 515 q 593 508 593 515 q 601 503 593 501 m 678 503 q 685 504 685 503 q 686 507 686 507 l 686 556 q 678 563 686 563 l 678 565 l 694 567 l 694 560 q 710 567 704 567 q 724 557 719 567 q 726 537 728 547 q 716 521 724 526 q 694 522 708 515 q 694 508 694 515 q 704 503 694 501 l 704 500 l 678 500 l 678 503 m 835 567 l 836 565 l 836 558 q 854 567 843 568 q 864 551 865 565 q 864 535 865 547 q 871 524 863 522 l 871 519 l 849 519 l 849 524 q 856 528 856 524 q 855 544 854 532 q 853 558 856 556 q 844 560 850 563 q 836 554 839 558 q 835 535 838 549 q 843 524 833 522 l 843 519 l 821 519 l 821 524 q 828 528 828 524 q 827 536 826 531 q 828 548 828 542 q 826 558 828 554 q 819 563 825 563 l 819 565 l 835 567 m 1311 528 q 1311 545 1310 531 q 1308 561 1313 560 q 1306 562 1307 561 q 1304 563 1306 563 l 1304 565 l 1319 567 l 1319 558 q 1335 567 1325 565 q 1347 558 1344 568 q 1365 567 1354 568 q 1375 551 1376 565 q 1375 535 1376 547 q 1382 524 1374 522 l 1382 519 l 1360 519 l 1360 524 q 1367 535 1369 522 q 1367 551 1365 547 q 1360 561 1368 561 q 1347 554 1351 561 l 1347 528 q 1354 524 1347 524 l 1354 519 l 1332 519 l 1332 524 q 1340 535 1342 522 q 1339 551 1338 547 q 1331 561 1340 561 q 1319 554 1322 561 q 1319 547 1319 553 q 1319 536 1319 542 q 1321 526 1319 531 q 1326 524 1322 522 l 1326 519 l 1304 519 l 1304 524 q 1311 528 1311 524 m 735 524 q 740 525 739 524 q 741 540 742 525 q 740 556 740 554 q 733 563 740 563 l 733 565 l 749 567 l 750 565 l 750 558 q 763 567 753 567 q 768 556 772 567 q 761 554 765 551 q 760 561 757 557 q 750 554 753 561 l 750 528 q 758 524 749 524 l 758 519 l 735 519 l 735 524 m 1029 529 q 1031 533 1031 529 q 1031 542 1031 538 q 1031 552 1031 547 q 1031 557 1031 557 q 1022 563 1031 563 l 1022 565 l 1039 567 l 1039 529 q 1046 524 1039 524 l 1046 521 l 1032 519 l 1031 521 l 1031 526 q 1013 519 1024 518 q 1003 535 1001 521 q 1003 551 1001 539 q 996 563 1006 564 l 996 565 l 1011 567 l 1011 565 q 1011 554 1011 561 q 1012 540 1011 547 q 1014 528 1013 533 q 1019 524 1015 524 q 1029 529 1024 524 m 1113 528 q 1113 544 1113 531 q 1111 561 1114 558 q 1108 562 1110 561 q 1106 563 1107 563 l 1106 565 l 1121 567 l 1122 565 l 1122 528 q 1128 524 1121 524 l 1128 519 l 1107 519 l 1107 524 q 1113 528 1114 524 m 272 557 q 265 563 269 563 l 265 565 l 286 565 l 286 563 q 281 559 282 563 q 283 551 281 556 q 287 540 285 546 q 289 532 289 535 l 301 564 l 306 564 l 317 532 q 319 541 317 536 q 324 551 322 546 q 325 559 325 556 q 319 563 325 563 l 319 565 l 356 565 l 356 563 q 353 551 347 563 q 360 532 358 539 l 371 564 l 375 564 l 388 532 q 390 541 388 536 q 393 551 392 546 q 394 559 394 556 q 389 563 394 563 l 389 565 l 425 565 l 425 563 q 422 551 417 563 q 429 532 428 539 l 440 564 l 444 564 l 457 532 q 459 541 457 536 q 463 551 461 546 q 464 559 464 556 q 458 563 464 563 l 458 565 l 476 565 l 476 563 q 464 544 465 557 q 457 519 463 531 l 453 519 l 440 553 l 428 519 l 424 519 q 406 561 414 561 q 388 519 400 561 l 383 519 l 371 553 l 358 519 l 354 519 q 336 561 344 561 q 317 519 329 561 l 314 519 l 301 553 l 289 519 l 285 519 q 278 539 282 529 q 272 557 275 549 m 1144 550 q 1144 535 1143 543 q 1150 524 1144 528 q 1168 533 1165 518 q 1167 557 1171 547 q 1153 563 1161 567 q 1144 550 1144 560 m 1264 550 q 1263 535 1263 543 q 1269 524 1264 528 q 1287 533 1283 518 q 1286 557 1290 547 q 1272 563 1281 567 q 1264 550 1264 560 m 1063 551 q 1064 533 1060 543 q 1075 524 1068 524 q 1085 529 1081 524 l 1085 556 q 1073 563 1082 565 q 1063 551 1064 561 m 593 557 q 592 546 593 553 q 593 533 592 539 q 597 524 594 526 q 608 524 600 521 q 617 547 619 531 q 603 563 614 563 q 593 557 599 563 m 694 557 q 694 546 694 553 q 695 533 694 539 q 699 524 696 526 q 710 524 701 521 q 718 547 721 531 q 704 563 715 563 q 694 557 700 563 m 903 546 q 887 533 889 543 q 892 524 885 524 q 903 529 897 524 l 903 546 m 800 546 q 784 533 786 543 q 789 524 782 524 q 800 529 794 524 l 800 546 m 531 529 l 531 546 q 522 542 526 543 q 515 536 518 540 q 518 525 510 528 q 531 529 526 522 m 660 546 q 642 533 644 543 q 649 524 640 524 q 660 529 654 524 l 660 546 m 1194 519 q 1188 526 1188 519 q 1194 532 1188 532 q 1201 526 1201 532 q 1194 519 1201 519 m 488 519 q 481 526 481 519 q 488 532 481 532 q 494 526 494 532 q 488 519 494 519 m 736 401 l 736 408 l 913 408 l 913 401 l 736 401 m 1154 301 q 1165 278 1164 290 q 1160 255 1165 265 q 1144 238 1154 244 q 1122 232 1135 232 q 1094 243 1106 232 q 1084 267 1085 254 q 1089 290 1083 279 q 1104 306 1094 300 q 1126 313 1114 313 q 1154 301 1143 313 m 594 274 q 583 244 597 254 q 553 233 568 233 q 525 243 538 233 q 514 272 513 253 q 525 301 511 292 q 556 311 539 311 q 583 302 571 311 q 594 274 596 293 m 935 281 q 935 297 931 290 q 946 308 939 304 q 962 311 953 311 q 979 308 971 311 l 976 292 l 974 290 l 969 306 q 953 303 963 308 q 950 289 944 299 q 963 280 954 282 q 976 271 971 278 q 983 253 985 261 q 972 239 981 244 q 953 233 964 233 q 933 236 942 232 l 936 256 l 939 257 l 943 240 q 961 241 951 236 q 965 257 971 246 q 949 267 960 265 q 935 281 939 269 m 457 281 q 457 297 453 290 q 468 308 461 304 q 484 311 475 311 q 501 308 493 311 l 499 292 l 496 290 l 492 306 q 475 303 483 308 q 472 289 467 299 q 485 280 476 282 q 499 271 493 278 q 505 253 507 261 q 494 239 503 244 q 475 233 486 233 q 456 236 464 232 l 458 256 l 461 257 l 465 240 q 483 241 474 236 q 488 257 493 246 q 472 267 482 265 q 457 281 461 269 m 243 238 q 250 240 247 239 q 251 246 253 240 l 251 294 q 251 303 251 301 q 243 307 250 306 l 243 310 q 293 306 279 314 q 307 289 307 299 q 295 271 307 279 q 268 267 283 263 l 268 242 q 272 239 268 239 q 278 238 276 239 l 278 235 l 243 235 l 243 238 m 757 238 l 757 235 l 724 235 l 724 238 q 731 246 735 239 q 725 258 726 253 l 703 258 q 697 245 701 253 q 704 238 693 238 l 704 235 l 679 235 l 679 238 q 690 246 689 240 l 717 311 l 722 311 l 746 246 q 757 238 747 240 m 378 238 q 386 242 386 239 q 386 251 386 244 l 386 294 q 385 303 386 301 q 378 307 385 306 l 378 310 q 406 310 390 308 q 432 306 421 313 q 439 287 443 299 q 422 272 435 275 q 435 251 431 263 q 451 238 439 240 l 451 235 q 431 235 438 231 q 422 245 425 239 q 415 258 418 251 q 403 269 411 265 q 402 256 403 264 q 403 242 401 247 q 404 239 401 239 q 410 238 407 239 l 410 235 l 378 235 l 378 238 m 1282 294 l 1282 240 l 1303 240 l 1311 256 l 1314 257 l 1313 235 l 1258 235 l 1258 238 q 1266 242 1265 239 q 1267 251 1267 244 l 1267 294 q 1266 303 1267 301 q 1258 307 1265 306 l 1258 310 l 1290 310 l 1290 307 q 1283 303 1283 306 q 1282 294 1282 301 m 1354 310 l 1378 310 l 1379 307 q 1371 302 1375 307 q 1363 291 1367 297 q 1357 278 1360 285 q 1351 269 1354 272 l 1351 242 q 1354 239 1351 239 q 1358 238 1357 239 l 1360 235 l 1326 235 l 1326 238 q 1331 239 1328 239 q 1335 242 1335 239 l 1335 268 q 1330 278 1333 271 q 1323 291 1326 285 q 1315 302 1319 297 q 1306 307 1310 307 l 1306 310 l 1340 310 l 1342 307 q 1336 297 1331 306 l 1349 275 l 1358 296 q 1354 307 1364 306 l 1354 310 m 1038 240 l 1044 254 l 1047 256 l 1046 235 l 992 235 l 990 238 q 999 242 999 239 q 1000 251 1000 244 l 1000 294 q 999 303 1000 301 q 992 307 999 306 l 990 310 l 1046 310 l 1043 292 l 1040 292 l 1036 304 l 1015 304 l 1015 276 q 1026 276 1022 276 q 1032 285 1031 275 l 1036 285 l 1036 263 l 1032 261 q 1026 271 1031 272 q 1015 271 1022 269 l 1015 240 l 1038 240 m 914 310 l 926 310 l 926 307 q 917 295 917 307 q 917 270 917 283 q 913 245 918 257 q 888 233 908 233 q 860 244 865 233 q 855 269 854 256 q 856 295 856 283 q 847 307 857 307 l 847 310 l 879 310 l 881 307 q 872 303 874 306 q 871 294 871 301 q 872 269 872 286 q 876 244 871 251 q 893 239 886 239 q 904 245 900 239 q 910 260 908 251 q 910 278 911 268 q 910 294 910 288 q 909 303 910 301 q 901 307 908 306 l 901 310 l 914 310 m 1174 307 l 1174 310 l 1194 310 q 1202 301 1196 308 q 1215 284 1208 293 q 1228 267 1222 275 q 1235 260 1235 260 l 1235 294 q 1234 303 1235 301 q 1226 307 1233 306 l 1226 310 l 1250 310 l 1250 307 q 1242 303 1243 306 q 1242 294 1242 301 l 1242 235 l 1235 235 q 1227 245 1235 236 q 1211 265 1219 254 q 1196 284 1203 275 q 1189 293 1189 293 l 1189 251 q 1189 242 1189 244 q 1197 238 1189 239 l 1197 235 l 1174 235 l 1174 238 q 1181 242 1181 239 q 1182 251 1182 244 l 1182 294 q 1181 303 1182 301 q 1174 307 1181 306 m 367 235 l 311 235 l 311 238 q 318 240 315 239 q 319 246 321 240 l 319 294 q 319 303 321 301 q 311 307 318 306 l 311 310 l 367 310 l 364 292 l 360 292 l 357 304 l 336 304 l 336 276 q 347 276 343 276 q 353 285 351 275 l 357 285 q 356 273 356 276 q 357 263 356 269 l 353 261 q 347 271 351 272 q 336 271 343 269 l 336 240 l 358 240 l 364 254 l 368 256 l 367 235 m 815 235 l 761 235 l 761 238 q 769 242 769 239 q 769 251 769 244 l 769 294 q 769 303 769 301 q 761 307 768 306 l 761 310 l 793 310 l 793 307 q 786 303 786 306 q 786 294 786 301 q 785 267 786 288 q 786 240 785 247 l 807 240 l 814 256 l 817 257 l 815 235 m 603 238 q 608 239 604 239 q 611 242 611 239 l 611 294 q 610 303 611 301 q 603 307 610 306 l 603 310 l 624 310 q 631 301 625 308 q 644 284 638 293 q 658 267 651 275 q 664 260 664 260 l 664 294 q 663 303 664 301 q 656 307 663 306 l 656 310 l 679 310 l 681 307 q 672 303 674 306 q 671 294 671 301 l 671 235 l 665 235 q 657 245 664 236 q 642 265 650 254 q 626 284 633 275 q 618 293 618 293 l 618 251 q 619 242 618 244 q 626 238 619 239 l 626 235 l 603 235 l 603 238 m 1393 257 l 1388 308 l 1404 308 l 1397 257 l 1393 257 m 1107 299 q 1102 281 1103 292 q 1103 261 1101 271 q 1111 244 1106 251 q 1125 238 1117 238 q 1142 246 1133 238 q 1147 263 1146 253 q 1146 283 1149 274 q 1138 300 1143 293 q 1125 307 1133 307 q 1107 299 1115 307 m 571 246 q 576 263 575 253 q 575 283 578 274 q 567 300 572 293 q 554 307 563 307 q 536 299 544 307 q 531 281 532 292 q 533 261 531 271 q 540 244 535 251 q 554 238 546 238 q 571 246 563 238 m 268 272 q 283 274 278 268 q 289 288 289 281 q 284 301 289 296 q 268 304 279 307 l 268 272 m 403 275 q 417 278 413 272 q 422 290 422 283 q 417 302 422 297 q 403 304 413 307 l 403 275 m 722 264 q 718 277 721 267 q 714 290 715 288 q 710 277 713 288 q 706 264 707 267 l 722 264 m 1396 250 q 1403 242 1403 250 q 1396 233 1403 233 q 1388 242 1388 233 q 1396 250 1388 250 m 775 129 q 788 132 779 129 l 788 129 q 768 124 778 124 q 747 135 754 124 q 742 158 740 146 q 755 178 744 169 q 786 181 765 186 l 786 179 l 785 165 l 782 165 l 779 176 q 760 173 767 181 q 753 156 754 165 q 758 138 753 146 q 775 129 764 129 m 1146 129 q 1157 132 1149 129 l 1158 129 q 1139 124 1149 124 q 1118 135 1125 124 q 1113 158 1111 146 q 1126 178 1115 169 q 1157 181 1136 186 l 1157 179 l 1154 165 l 1153 165 l 1150 176 q 1131 173 1138 181 q 1124 156 1125 165 q 1129 138 1124 146 q 1146 129 1135 129 m 822 182 q 844 174 838 183 q 850 153 850 164 q 842 132 850 142 q 819 124 835 122 q 799 133 806 124 q 792 153 792 142 q 800 174 792 165 q 822 182 808 183 m 629 182 q 651 174 644 183 q 657 153 657 164 q 649 132 657 142 q 626 124 642 122 q 606 133 613 124 q 599 153 599 142 q 607 174 599 165 q 629 182 615 183 m 451 182 q 474 174 467 183 q 481 153 481 164 q 473 132 481 142 q 450 124 465 122 q 428 133 436 124 q 422 153 421 142 q 430 174 422 165 q 451 182 438 183 m 1243 129 l 1247 125 l 1222 125 l 1222 128 q 1226 133 1229 128 q 1224 143 1224 139 l 1207 143 q 1203 133 1206 139 q 1208 128 1200 128 l 1208 125 l 1190 125 l 1190 128 q 1197 133 1197 128 l 1218 181 l 1222 182 q 1225 172 1222 181 q 1231 153 1228 163 q 1238 137 1235 144 q 1243 129 1242 129 m 718 128 l 718 125 q 703 126 708 124 q 696 134 699 129 q 691 144 693 139 q 682 151 689 149 q 683 137 685 146 q 688 128 681 128 l 688 125 l 664 125 l 664 128 q 671 130 671 128 q 671 138 671 132 l 671 172 q 669 177 672 176 q 664 179 667 178 l 664 181 q 685 181 674 179 q 704 178 697 182 q 710 163 713 172 q 697 153 707 154 q 706 138 703 146 q 718 128 710 131 m 1108 128 l 1111 128 l 1111 125 q 1097 126 1101 124 q 1089 134 1092 129 q 1083 144 1086 139 q 1075 151 1081 149 q 1074 137 1076 146 q 1079 128 1072 128 l 1079 125 l 1057 125 l 1057 128 q 1063 130 1063 128 q 1063 138 1063 132 l 1063 172 q 1062 177 1064 176 q 1057 179 1060 178 l 1057 181 q 1077 181 1065 179 q 1097 178 1089 182 q 1101 163 1104 172 q 1090 153 1099 154 q 1099 138 1096 146 q 1108 128 1101 131 m 514 181 l 532 181 l 533 181 l 531 165 l 528 165 l 525 176 l 514 176 l 514 138 q 515 130 514 131 q 521 128 515 129 l 522 125 l 496 125 l 494 128 q 499 128 496 128 q 503 131 503 129 l 503 176 l 492 176 l 488 165 l 485 165 l 485 181 l 514 181 m 926 179 q 922 178 925 178 q 919 176 919 178 l 919 138 q 919 130 919 132 q 926 128 919 128 l 926 125 l 903 125 l 903 128 q 908 133 907 128 q 908 146 908 139 q 908 160 908 153 q 908 171 907 168 q 904 163 907 169 q 899 148 901 156 q 893 134 896 140 q 889 125 890 128 l 886 125 q 882 134 885 128 q 876 148 879 140 q 871 162 874 156 q 868 169 868 168 q 869 160 869 167 q 868 146 868 153 q 869 133 868 139 q 874 128 869 128 l 874 125 l 857 125 l 857 128 q 863 131 863 129 q 863 138 863 132 l 863 169 q 857 179 864 178 l 857 181 l 875 181 q 878 174 875 179 q 883 161 881 168 q 888 148 886 154 q 890 142 890 142 q 893 148 890 142 q 899 161 896 154 q 904 174 901 168 q 907 181 907 179 l 925 181 l 926 179 m 1189 179 q 1183 177 1186 178 q 1182 172 1181 176 l 1182 138 q 1182 131 1182 133 q 1189 128 1182 128 l 1189 125 l 1164 125 l 1164 128 q 1171 130 1171 128 q 1171 138 1171 132 l 1171 172 q 1169 177 1172 176 q 1164 179 1167 178 l 1164 181 l 1189 181 l 1189 179 m 407 181 l 415 181 l 415 179 q 410 169 408 178 l 410 125 l 404 125 q 399 133 404 126 q 387 147 393 139 q 376 161 381 154 q 371 168 371 168 l 371 138 q 371 130 371 132 q 376 128 371 128 l 376 125 l 360 125 l 360 128 q 365 131 365 129 q 365 138 365 132 l 365 169 q 365 176 365 175 q 360 179 365 178 l 360 181 l 375 181 q 380 174 375 179 q 390 161 385 168 q 399 149 394 154 q 404 143 404 143 l 404 169 q 399 179 404 178 l 397 181 l 407 181 m 1283 129 l 1290 142 l 1290 126 l 1289 125 l 1250 125 l 1250 128 q 1256 131 1256 128 q 1256 138 1256 133 l 1256 169 q 1256 176 1256 174 q 1250 179 1256 178 l 1250 181 l 1274 181 l 1274 179 q 1268 176 1268 178 q 1268 169 1268 174 l 1268 129 l 1283 129 m 575 181 l 594 181 l 592 167 l 590 167 l 588 176 l 572 176 l 572 154 q 581 155 578 156 q 585 161 583 154 l 588 161 l 588 144 l 585 144 q 581 151 583 151 q 572 151 578 150 l 572 131 q 575 128 572 129 q 579 128 578 128 l 579 125 l 554 125 l 554 128 q 561 131 561 129 q 561 138 561 132 l 561 172 q 560 177 563 176 q 554 179 557 178 l 554 181 l 575 181 m 1008 181 l 1049 181 l 1046 167 l 1044 167 l 1042 176 l 1026 176 l 1026 156 q 1035 156 1032 156 q 1039 163 1038 156 l 1042 163 q 1042 146 1040 153 l 1039 144 q 1035 151 1038 151 q 1026 151 1032 151 l 1026 129 l 1042 129 l 1047 140 l 1050 140 l 1049 126 l 1049 125 l 1008 125 l 1008 128 q 1014 130 1014 128 q 1014 138 1014 132 l 1014 172 q 1013 177 1015 176 q 1008 179 1011 178 l 1008 181 m 1001 179 q 997 178 1000 178 q 994 176 994 178 l 994 138 q 994 130 994 132 q 1001 128 994 128 l 1001 125 l 978 125 l 978 128 q 983 133 982 128 q 983 146 983 139 q 983 160 983 153 q 983 171 982 168 q 981 163 983 169 q 974 148 978 156 q 968 134 971 140 q 965 125 965 128 l 961 125 q 958 134 961 128 q 952 148 956 140 q 946 162 949 156 q 943 169 943 168 q 944 160 944 167 q 943 146 943 153 q 944 133 943 139 q 949 128 944 128 l 949 125 l 932 125 l 932 128 q 939 131 939 129 q 939 138 939 132 l 939 169 q 932 179 939 178 l 932 181 l 951 181 q 953 174 951 179 q 958 161 956 168 q 964 148 961 154 q 967 142 967 142 q 969 148 967 142 q 974 161 971 154 q 979 174 976 168 q 982 181 982 179 l 1001 181 l 1001 179 m 464 133 q 467 162 471 144 q 451 179 463 179 q 439 172 446 179 q 436 144 432 161 q 451 128 440 128 q 464 133 458 128 m 640 133 q 643 162 647 144 q 628 179 639 179 q 615 172 622 179 q 613 144 608 161 q 628 128 617 128 q 640 133 635 128 m 833 133 q 836 162 840 144 q 821 179 832 179 q 808 172 815 179 q 806 144 801 161 q 821 128 810 128 q 833 133 828 128 m 694 157 q 697 172 700 164 q 682 176 693 179 l 682 154 q 694 157 692 154 m 1086 157 q 1088 172 1092 164 q 1075 176 1085 179 l 1075 154 q 1086 157 1085 154 m 1222 147 q 1219 156 1221 150 q 1215 165 1217 163 q 1212 156 1214 163 q 1208 147 1210 150 l 1222 147 z "},"2":{"ha":1596,"x_min":149,"x_max":1499,"o":"m 1499 949 l 1499 0 l 149 0 l 149 949 l 1499 949 m 1479 929 l 168 929 l 168 19 l 1479 19 l 1479 929 m 797 796 q 782 806 783 800 q 786 817 781 813 q 802 826 792 822 q 824 829 813 829 q 847 824 836 829 q 857 803 857 818 q 871 793 869 800 q 869 778 872 786 q 862 762 867 769 q 858 747 857 754 q 878 744 863 742 q 907 747 893 746 q 928 746 921 749 q 926 728 936 743 q 910 736 924 738 q 888 736 897 735 q 890 731 892 732 q 883 721 881 724 q 877 728 876 724 q 882 736 878 733 q 875 738 878 736 q 864 713 869 724 q 856 686 858 703 q 876 685 869 689 q 882 675 882 681 q 877 665 882 669 q 865 660 872 660 q 847 675 856 660 q 828 667 840 672 q 806 663 817 663 q 793 682 788 663 q 808 674 797 674 q 828 678 818 674 q 846 685 839 682 q 847 691 847 688 q 849 697 847 694 q 835 689 842 688 q 829 701 829 690 q 817 691 825 690 q 813 703 810 692 q 801 688 806 696 q 788 686 796 679 q 788 697 786 690 q 793 708 790 703 q 798 717 796 714 q 800 721 800 721 q 805 717 806 721 q 801 707 804 713 q 796 696 799 701 q 794 689 793 690 q 807 703 797 690 q 821 724 817 717 q 825 719 825 722 q 824 711 825 715 q 820 703 822 707 q 819 697 818 699 q 828 706 822 697 q 839 719 835 714 q 849 725 843 725 q 857 718 854 725 q 863 731 860 725 q 868 739 865 736 q 851 751 851 743 q 857 769 851 760 q 865 785 863 778 q 857 794 868 793 q 847 760 854 776 q 833 749 840 743 q 846 769 840 756 q 851 796 851 783 q 824 795 839 796 q 797 796 810 794 m 896 797 q 880 807 882 796 q 881 824 878 818 q 891 815 883 818 q 909 812 899 813 q 931 813 919 811 q 950 814 942 814 q 993 809 976 819 q 1015 783 1010 799 q 1012 753 1019 768 q 983 732 1004 738 q 960 744 968 732 q 957 771 953 757 q 950 758 954 765 q 940 749 946 751 q 933 760 931 749 q 927 764 928 757 q 926 775 926 771 q 921 769 925 775 q 912 758 917 763 q 903 751 907 753 q 900 758 900 750 q 890 756 894 751 q 889 768 886 761 q 884 760 888 765 q 878 753 881 756 q 872 750 875 750 q 867 757 868 750 q 875 776 868 764 q 889 788 882 788 q 897 782 893 788 q 899 773 904 779 q 896 760 894 767 q 902 767 899 761 q 910 778 906 772 q 917 790 914 785 q 921 794 919 794 q 924 788 925 793 q 921 778 924 783 q 914 769 918 774 q 910 763 910 765 q 919 774 914 768 q 927 782 924 779 q 933 781 931 785 q 933 765 935 778 q 944 778 939 769 q 956 788 949 788 q 964 785 956 788 q 968 780 968 785 q 966 769 968 775 q 963 756 964 763 q 965 746 961 750 q 982 740 972 738 q 997 751 992 743 q 1003 794 1017 783 q 965 804 990 804 q 928 801 947 804 q 896 797 908 799 m 663 710 q 635 724 642 713 q 634 747 629 735 q 653 765 639 758 q 683 764 667 772 q 698 783 690 774 q 713 803 706 793 q 683 797 700 804 q 672 774 667 790 q 661 777 665 772 q 660 788 657 782 q 685 807 665 803 q 719 804 706 811 q 713 774 724 789 q 704 742 703 758 q 727 778 717 760 q 747 817 738 797 q 748 798 754 813 q 733 765 742 783 q 722 729 725 746 q 732 704 718 713 q 717 708 722 703 q 712 721 713 713 q 713 738 711 729 q 718 753 715 747 q 709 741 714 749 q 697 740 704 733 q 692 751 694 746 q 683 758 690 756 q 671 744 678 753 q 657 742 664 735 q 658 746 653 746 q 669 749 664 743 q 679 760 675 756 q 651 752 665 763 q 642 726 636 742 q 655 719 647 719 q 670 719 663 718 q 686 719 678 719 q 700 715 694 719 q 709 701 708 711 q 699 689 710 690 q 688 706 703 703 q 663 710 672 708 m 850 804 q 828 817 846 817 q 806 813 817 817 q 793 804 794 808 q 803 803 796 803 q 819 803 811 803 q 837 805 828 804 q 850 804 846 806 m 714 797 q 703 783 711 793 q 688 763 696 772 q 692 758 690 760 q 696 756 694 757 q 706 780 699 765 q 714 797 713 794 m 735 719 q 728 734 724 722 q 738 757 733 746 q 743 769 740 764 q 749 782 746 775 q 754 794 751 788 q 758 785 763 793 q 753 774 754 778 q 771 789 764 789 q 774 782 775 789 q 771 767 774 775 q 763 753 768 760 q 751 746 757 746 q 743 751 747 746 q 735 719 735 726 m 739 689 q 728 675 726 679 q 738 672 731 671 q 749 678 744 672 q 744 697 753 685 q 738 715 738 706 q 744 731 739 724 q 756 742 749 738 q 771 747 764 747 q 782 724 786 747 q 785 725 783 725 q 788 726 786 725 q 794 740 790 732 q 804 757 799 747 q 795 758 797 753 q 796 768 793 763 q 791 760 794 765 q 784 753 788 756 q 777 750 781 750 q 772 757 774 750 q 781 776 775 764 q 794 788 788 788 q 803 782 799 788 q 805 773 810 779 q 801 760 800 767 q 808 767 804 761 q 815 778 811 772 q 821 790 818 785 q 824 794 824 794 q 828 788 831 792 q 824 776 826 783 q 839 789 835 789 q 842 782 843 789 q 839 767 842 775 q 831 753 836 760 q 819 746 825 746 q 810 753 814 746 q 805 742 807 747 q 800 732 803 738 q 819 739 810 735 q 836 743 829 743 q 847 729 849 743 q 824 732 838 736 q 794 722 810 728 q 781 692 788 708 q 782 667 775 675 q 770 674 772 668 q 770 689 768 681 q 776 705 772 697 q 783 717 781 713 q 772 709 778 714 q 761 704 767 704 q 754 715 756 704 q 775 726 769 714 q 772 739 781 739 q 758 731 769 739 q 750 710 747 721 q 757 690 753 699 q 759 673 761 681 q 738 661 757 665 q 725 666 729 661 q 721 677 721 671 q 724 688 721 683 q 732 693 728 693 q 740 689 736 693 l 739 689 m 768 783 q 760 774 767 783 q 746 756 753 765 q 751 752 747 750 q 759 760 756 754 q 765 774 763 767 q 768 783 768 781 m 813 758 l 813 757 q 817 751 814 751 q 829 765 822 751 q 836 783 836 778 q 826 775 833 783 q 813 758 819 767 m 792 768 q 797 776 794 772 q 800 782 799 779 q 794 781 797 785 q 787 772 790 778 q 781 760 783 767 q 779 753 779 754 q 785 759 781 753 q 792 768 789 765 m 885 768 q 894 781 893 779 q 888 781 892 785 q 881 772 885 778 q 876 760 878 767 q 874 753 874 754 q 879 759 875 753 q 885 768 883 765 m 951 768 q 956 776 954 772 q 961 781 958 779 q 955 781 958 785 q 948 772 951 778 q 942 760 944 767 q 940 753 940 754 q 945 759 942 753 q 951 768 949 765 m 864 696 q 869 715 863 704 q 875 724 876 725 q 879 715 882 724 q 874 704 878 713 q 871 694 871 696 q 882 708 875 694 q 892 721 889 721 q 896 717 892 721 q 889 692 882 692 q 897 699 892 692 q 899 715 901 707 l 894 722 q 913 718 903 718 q 935 724 925 718 q 943 743 946 731 q 953 737 951 744 q 951 724 956 729 q 931 713 949 715 q 903 715 914 710 q 900 698 906 708 q 889 688 894 688 q 881 697 882 688 q 872 690 876 692 q 864 696 867 689 m 836 692 q 854 713 849 700 q 851 720 854 721 q 843 714 847 719 q 837 701 839 708 q 836 692 835 694 m 868 681 q 856 678 864 681 q 863 667 857 668 q 872 668 868 665 q 876 675 876 671 q 868 681 876 679 m 1085 525 q 1071 518 1079 518 q 1058 525 1063 518 q 1053 541 1053 532 q 1057 557 1053 550 q 1069 567 1061 564 q 1085 564 1076 569 q 1085 572 1085 567 q 1085 580 1086 576 q 1083 586 1085 583 q 1075 588 1081 589 l 1075 590 l 1093 592 l 1094 590 l 1094 529 q 1096 525 1093 526 q 1101 524 1099 524 l 1101 521 l 1086 519 l 1085 521 l 1085 525 m 557 528 q 558 538 557 529 q 558 558 558 547 q 558 577 558 568 q 554 586 557 586 l 551 588 l 549 588 l 549 590 l 565 592 l 565 528 q 572 524 565 524 l 572 519 l 550 519 l 550 524 q 557 528 557 524 m 1117 578 q 1111 584 1111 578 q 1117 590 1111 590 q 1123 584 1124 590 q 1117 578 1122 578 m 979 579 l 979 565 l 992 565 l 992 561 l 979 561 l 979 536 q 982 526 978 529 q 993 525 986 522 l 993 522 q 977 519 982 517 q 971 530 972 522 q 970 547 969 538 q 971 561 971 556 l 963 561 l 963 565 l 971 565 l 971 579 l 979 579 m 1172 560 q 1176 533 1183 549 q 1156 518 1168 518 q 1140 525 1147 518 q 1135 552 1128 538 q 1157 567 1143 567 q 1172 560 1165 567 m 1292 560 q 1295 533 1303 549 q 1275 518 1288 518 q 1260 525 1267 518 q 1255 552 1247 538 q 1276 567 1263 567 q 1292 560 1285 567 m 507 539 q 518 544 510 543 q 531 549 526 546 q 527 561 532 556 q 515 561 522 567 q 514 551 517 553 q 508 552 511 550 q 506 558 506 554 q 517 565 507 563 q 535 563 532 569 q 539 548 539 557 q 539 531 539 539 q 547 524 539 524 l 547 521 q 537 519 542 518 q 531 525 532 519 q 515 519 525 519 q 505 526 508 518 q 507 539 501 533 m 894 546 q 903 549 903 549 q 900 561 906 556 q 888 561 894 567 q 886 551 889 553 q 881 552 883 550 q 880 558 879 554 q 889 565 881 563 q 908 563 904 569 q 911 548 911 557 q 911 531 911 539 q 919 524 911 524 l 919 521 q 910 519 915 518 q 904 525 904 519 l 903 525 q 889 518 896 518 q 876 531 878 518 q 894 546 875 543 m 651 546 q 660 549 660 549 q 656 561 661 556 q 644 561 651 567 q 643 551 646 553 q 638 552 640 550 q 635 558 635 554 q 646 565 636 563 q 665 563 661 569 q 668 548 668 557 q 667 531 668 539 q 675 524 667 524 l 675 521 q 666 519 671 518 q 660 525 661 519 q 646 518 653 518 q 633 531 635 518 q 651 546 632 543 m 775 556 q 781 565 776 563 q 793 567 786 567 q 805 563 800 567 q 808 551 810 560 q 808 534 811 544 q 817 524 806 524 l 817 521 q 806 519 811 518 q 800 525 801 519 q 785 518 790 518 q 773 531 774 518 q 800 549 772 543 q 797 561 801 556 q 785 561 792 567 q 783 551 788 554 q 775 556 778 549 m 1232 519 q 1217 525 1222 519 q 1210 538 1211 531 q 1213 553 1210 546 q 1224 565 1215 561 q 1241 565 1231 569 q 1246 551 1251 561 q 1238 551 1240 546 q 1238 561 1235 556 q 1223 558 1226 567 q 1222 538 1219 549 q 1231 523 1224 528 q 1247 532 1238 518 l 1250 531 q 1232 519 1242 518 m 954 542 q 956 526 961 535 q 942 519 951 518 q 935 519 939 518 q 929 522 932 521 l 928 519 l 925 519 l 924 536 l 928 536 q 940 522 928 525 q 950 533 953 519 q 938 540 946 540 q 926 547 929 540 q 931 564 921 558 q 950 564 942 569 l 951 567 l 956 567 l 956 553 l 953 553 q 942 563 953 563 q 933 553 931 564 q 943 547 936 549 q 954 542 950 546 m 601 503 l 601 500 l 576 500 l 576 503 q 585 507 585 503 l 585 556 q 576 563 585 563 l 576 565 l 592 567 l 593 565 l 593 560 q 608 567 603 567 q 622 557 618 567 q 624 537 626 547 q 615 521 622 526 q 593 522 607 515 q 593 508 593 515 q 601 503 593 501 m 678 503 q 685 504 685 503 q 686 507 686 507 l 686 556 q 678 563 686 563 l 678 565 l 694 567 l 694 560 q 710 567 704 567 q 724 557 719 567 q 726 537 728 547 q 716 521 724 526 q 694 522 708 515 q 694 508 694 515 q 704 503 694 501 l 704 500 l 678 500 l 678 503 m 835 567 l 836 565 l 836 558 q 854 567 843 568 q 864 551 865 565 q 864 535 865 547 q 871 524 863 522 l 871 519 l 849 519 l 849 524 q 856 528 856 524 q 855 544 854 532 q 853 558 856 556 q 844 560 850 563 q 836 554 839 558 q 835 535 838 549 q 843 524 833 522 l 843 519 l 821 519 l 821 524 q 828 528 828 524 q 827 536 826 531 q 828 548 828 542 q 826 558 828 554 q 819 563 825 563 l 819 565 l 835 567 m 1311 528 q 1311 545 1310 531 q 1308 561 1313 560 q 1306 562 1307 561 q 1304 563 1306 563 l 1304 565 l 1319 567 l 1319 558 q 1335 567 1325 565 q 1347 558 1344 568 q 1365 567 1354 568 q 1375 551 1376 565 q 1375 535 1376 547 q 1382 524 1374 522 l 1382 519 l 1360 519 l 1360 524 q 1367 535 1369 522 q 1367 551 1365 547 q 1360 561 1368 561 q 1347 554 1351 561 l 1347 528 q 1354 524 1347 524 l 1354 519 l 1332 519 l 1332 524 q 1340 535 1342 522 q 1339 551 1338 547 q 1331 561 1340 561 q 1319 554 1322 561 q 1319 547 1319 553 q 1319 536 1319 542 q 1321 526 1319 531 q 1326 524 1322 522 l 1326 519 l 1304 519 l 1304 524 q 1311 528 1311 524 m 735 524 q 740 525 739 524 q 741 540 742 525 q 740 556 740 554 q 733 563 740 563 l 733 565 l 749 567 l 750 565 l 750 558 q 763 567 753 567 q 768 556 772 567 q 761 554 765 551 q 760 561 757 557 q 750 554 753 561 l 750 528 q 758 524 749 524 l 758 519 l 735 519 l 735 524 m 1029 529 q 1031 533 1031 529 q 1031 542 1031 538 q 1031 552 1031 547 q 1031 557 1031 557 q 1022 563 1031 563 l 1022 565 l 1039 567 l 1039 529 q 1046 524 1039 524 l 1046 521 l 1032 519 l 1031 521 l 1031 526 q 1013 519 1024 518 q 1003 535 1001 521 q 1003 551 1001 539 q 996 563 1006 564 l 996 565 l 1011 567 l 1011 565 q 1011 554 1011 561 q 1012 540 1011 547 q 1014 528 1013 533 q 1019 524 1015 524 q 1029 529 1024 524 m 1113 528 q 1113 544 1113 531 q 1111 561 1114 558 q 1108 562 1110 561 q 1106 563 1107 563 l 1106 565 l 1121 567 l 1122 565 l 1122 528 q 1128 524 1121 524 l 1128 519 l 1107 519 l 1107 524 q 1113 528 1114 524 m 272 557 q 265 563 269 563 l 265 565 l 286 565 l 286 563 q 281 559 282 563 q 283 551 281 556 q 287 540 285 546 q 289 532 289 535 l 301 564 l 306 564 l 317 532 q 319 541 317 536 q 324 551 322 546 q 325 559 325 556 q 319 563 325 563 l 319 565 l 356 565 l 356 563 q 353 551 347 563 q 360 532 358 539 l 371 564 l 375 564 l 388 532 q 390 541 388 536 q 393 551 392 546 q 394 559 394 556 q 389 563 394 563 l 389 565 l 425 565 l 425 563 q 422 551 417 563 q 429 532 428 539 l 440 564 l 444 564 l 457 532 q 459 541 457 536 q 463 551 461 546 q 464 559 464 556 q 458 563 464 563 l 458 565 l 476 565 l 476 563 q 464 544 465 557 q 457 519 463 531 l 453 519 l 440 553 l 428 519 l 424 519 q 406 561 414 561 q 388 519 400 561 l 383 519 l 371 553 l 358 519 l 354 519 q 336 561 344 561 q 317 519 329 561 l 314 519 l 301 553 l 289 519 l 285 519 q 278 539 282 529 q 272 557 275 549 m 1144 550 q 1144 535 1143 543 q 1150 524 1144 528 q 1168 533 1165 518 q 1167 557 1171 547 q 1153 563 1161 567 q 1144 550 1144 560 m 1264 550 q 1263 535 1263 543 q 1269 524 1264 528 q 1287 533 1283 518 q 1286 557 1290 547 q 1272 563 1281 567 q 1264 550 1264 560 m 1063 551 q 1064 533 1060 543 q 1075 524 1068 524 q 1085 529 1081 524 l 1085 556 q 1073 563 1082 565 q 1063 551 1064 561 m 593 557 q 592 546 593 553 q 593 533 592 539 q 597 524 594 526 q 608 524 600 521 q 617 547 619 531 q 603 563 614 563 q 593 557 599 563 m 694 557 q 694 546 694 553 q 695 533 694 539 q 699 524 696 526 q 710 524 701 521 q 718 547 721 531 q 704 563 715 563 q 694 557 700 563 m 903 546 q 887 533 889 543 q 892 524 885 524 q 903 529 897 524 l 903 546 m 800 546 q 784 533 786 543 q 789 524 782 524 q 800 529 794 524 l 800 546 m 531 529 l 531 546 q 522 542 526 543 q 515 536 518 540 q 518 525 510 528 q 531 529 526 522 m 660 546 q 642 533 644 543 q 649 524 640 524 q 660 529 654 524 l 660 546 m 1194 519 q 1188 526 1188 519 q 1194 532 1188 532 q 1201 526 1201 532 q 1194 519 1201 519 m 488 519 q 481 526 481 519 q 488 532 481 532 q 494 526 494 532 q 488 519 494 519 m 736 401 l 736 408 l 913 408 l 913 401 l 736 401 m 1154 301 q 1165 278 1164 290 q 1160 255 1165 265 q 1144 238 1154 244 q 1122 232 1135 232 q 1094 243 1106 232 q 1084 267 1085 254 q 1089 290 1083 279 q 1104 306 1094 300 q 1126 313 1114 313 q 1154 301 1143 313 m 594 274 q 583 244 597 254 q 553 233 568 233 q 525 243 538 233 q 514 272 513 253 q 525 301 511 292 q 556 311 539 311 q 583 302 571 311 q 594 274 596 293 m 935 281 q 935 297 931 290 q 946 308 939 304 q 962 311 953 311 q 979 308 971 311 l 976 292 l 974 290 l 969 306 q 953 303 963 308 q 950 289 944 299 q 963 280 954 282 q 976 271 971 278 q 983 253 985 261 q 972 239 981 244 q 953 233 964 233 q 933 236 942 232 l 936 256 l 939 257 l 943 240 q 961 241 951 236 q 965 257 971 246 q 949 267 960 265 q 935 281 939 269 m 457 281 q 457 297 453 290 q 468 308 461 304 q 484 311 475 311 q 501 308 493 311 l 499 292 l 496 290 l 492 306 q 475 303 483 308 q 472 289 467 299 q 485 280 476 282 q 499 271 493 278 q 505 253 507 261 q 494 239 503 244 q 475 233 486 233 q 456 236 464 232 l 458 256 l 461 257 l 465 240 q 483 241 474 236 q 488 257 493 246 q 472 267 482 265 q 457 281 461 269 m 243 238 q 250 240 247 239 q 251 246 253 240 l 251 294 q 251 303 251 301 q 243 307 250 306 l 243 310 q 293 306 279 314 q 307 289 307 299 q 295 271 307 279 q 268 267 283 263 l 268 242 q 272 239 268 239 q 278 238 276 239 l 278 235 l 243 235 l 243 238 m 757 238 l 757 235 l 724 235 l 724 238 q 731 246 735 239 q 725 258 726 253 l 703 258 q 697 245 701 253 q 704 238 693 238 l 704 235 l 679 235 l 679 238 q 690 246 689 240 l 717 311 l 722 311 l 746 246 q 757 238 747 240 m 378 238 q 386 242 386 239 q 386 251 386 244 l 386 294 q 385 303 386 301 q 378 307 385 306 l 378 310 q 406 310 390 308 q 432 306 421 313 q 439 287 443 299 q 422 272 435 275 q 435 251 431 263 q 451 238 439 240 l 451 235 q 431 235 438 231 q 422 245 425 239 q 415 258 418 251 q 403 269 411 265 q 402 256 403 264 q 403 242 401 247 q 404 239 401 239 q 410 238 407 239 l 410 235 l 378 235 l 378 238 m 1282 294 l 1282 240 l 1303 240 l 1311 256 l 1314 257 l 1313 235 l 1258 235 l 1258 238 q 1266 242 1265 239 q 1267 251 1267 244 l 1267 294 q 1266 303 1267 301 q 1258 307 1265 306 l 1258 310 l 1290 310 l 1290 307 q 1283 303 1283 306 q 1282 294 1282 301 m 1354 310 l 1378 310 l 1379 307 q 1371 302 1375 307 q 1363 291 1367 297 q 1357 278 1360 285 q 1351 269 1354 272 l 1351 242 q 1354 239 1351 239 q 1358 238 1357 239 l 1360 235 l 1326 235 l 1326 238 q 1331 239 1328 239 q 1335 242 1335 239 l 1335 268 q 1330 278 1333 271 q 1323 291 1326 285 q 1315 302 1319 297 q 1306 307 1310 307 l 1306 310 l 1340 310 l 1342 307 q 1336 297 1331 306 l 1349 275 l 1358 296 q 1354 307 1364 306 l 1354 310 m 1038 240 l 1044 254 l 1047 256 l 1046 235 l 992 235 l 990 238 q 999 242 999 239 q 1000 251 1000 244 l 1000 294 q 999 303 1000 301 q 992 307 999 306 l 990 310 l 1046 310 l 1043 292 l 1040 292 l 1036 304 l 1015 304 l 1015 276 q 1026 276 1022 276 q 1032 285 1031 275 l 1036 285 l 1036 263 l 1032 261 q 1026 271 1031 272 q 1015 271 1022 269 l 1015 240 l 1038 240 m 914 310 l 926 310 l 926 307 q 917 295 917 307 q 917 270 917 283 q 913 245 918 257 q 888 233 908 233 q 860 244 865 233 q 855 269 854 256 q 856 295 856 283 q 847 307 857 307 l 847 310 l 879 310 l 881 307 q 872 303 874 306 q 871 294 871 301 q 872 269 872 286 q 876 244 871 251 q 893 239 886 239 q 904 245 900 239 q 910 260 908 251 q 910 278 911 268 q 910 294 910 288 q 909 303 910 301 q 901 307 908 306 l 901 310 l 914 310 m 1174 307 l 1174 310 l 1194 310 q 1202 301 1196 308 q 1215 284 1208 293 q 1228 267 1222 275 q 1235 260 1235 260 l 1235 294 q 1234 303 1235 301 q 1226 307 1233 306 l 1226 310 l 1250 310 l 1250 307 q 1242 303 1243 306 q 1242 294 1242 301 l 1242 235 l 1235 235 q 1227 245 1235 236 q 1211 265 1219 254 q 1196 284 1203 275 q 1189 293 1189 293 l 1189 251 q 1189 242 1189 244 q 1197 238 1189 239 l 1197 235 l 1174 235 l 1174 238 q 1181 242 1181 239 q 1182 251 1182 244 l 1182 294 q 1181 303 1182 301 q 1174 307 1181 306 m 367 235 l 311 235 l 311 238 q 318 240 315 239 q 319 246 321 240 l 319 294 q 319 303 321 301 q 311 307 318 306 l 311 310 l 367 310 l 364 292 l 360 292 l 357 304 l 336 304 l 336 276 q 347 276 343 276 q 353 285 351 275 l 357 285 q 356 273 356 276 q 357 263 356 269 l 353 261 q 347 271 351 272 q 336 271 343 269 l 336 240 l 358 240 l 364 254 l 368 256 l 367 235 m 815 235 l 761 235 l 761 238 q 769 242 769 239 q 769 251 769 244 l 769 294 q 769 303 769 301 q 761 307 768 306 l 761 310 l 793 310 l 793 307 q 786 303 786 306 q 786 294 786 301 q 785 267 786 288 q 786 240 785 247 l 807 240 l 814 256 l 817 257 l 815 235 m 603 238 q 608 239 604 239 q 611 242 611 239 l 611 294 q 610 303 611 301 q 603 307 610 306 l 603 310 l 624 310 q 631 301 625 308 q 644 284 638 293 q 658 267 651 275 q 664 260 664 260 l 664 294 q 663 303 664 301 q 656 307 663 306 l 656 310 l 679 310 l 681 307 q 672 303 674 306 q 671 294 671 301 l 671 235 l 665 235 q 657 245 664 236 q 642 265 650 254 q 626 284 633 275 q 618 293 618 293 l 618 251 q 619 242 618 244 q 626 238 619 239 l 626 235 l 603 235 l 603 238 m 1393 257 l 1388 308 l 1404 308 l 1397 257 l 1393 257 m 1107 299 q 1102 281 1103 292 q 1103 261 1101 271 q 1111 244 1106 251 q 1125 238 1117 238 q 1142 246 1133 238 q 1147 263 1146 253 q 1146 283 1149 274 q 1138 300 1143 293 q 1125 307 1133 307 q 1107 299 1115 307 m 571 246 q 576 263 575 253 q 575 283 578 274 q 567 300 572 293 q 554 307 563 307 q 536 299 544 307 q 531 281 532 292 q 533 261 531 271 q 540 244 535 251 q 554 238 546 238 q 571 246 563 238 m 268 272 q 283 274 278 268 q 289 288 289 281 q 284 301 289 296 q 268 304 279 307 l 268 272 m 403 275 q 417 278 413 272 q 422 290 422 283 q 417 302 422 297 q 403 304 413 307 l 403 275 m 722 264 q 718 277 721 267 q 714 290 715 288 q 710 277 713 288 q 706 264 707 267 l 722 264 m 1396 250 q 1403 242 1403 250 q 1396 233 1403 233 q 1388 242 1388 233 q 1396 250 1388 250 m 775 129 q 788 132 779 129 l 788 129 q 768 124 778 124 q 747 135 754 124 q 742 158 740 146 q 755 178 744 169 q 786 181 765 186 l 786 179 l 785 165 l 782 165 l 779 176 q 760 173 767 181 q 753 156 754 165 q 758 138 753 146 q 775 129 764 129 m 1146 129 q 1157 132 1149 129 l 1158 129 q 1139 124 1149 124 q 1118 135 1125 124 q 1113 158 1111 146 q 1126 178 1115 169 q 1157 181 1136 186 l 1157 179 l 1154 165 l 1153 165 l 1150 176 q 1131 173 1138 181 q 1124 156 1125 165 q 1129 138 1124 146 q 1146 129 1135 129 m 822 182 q 844 174 838 183 q 850 153 850 164 q 842 132 850 142 q 819 124 835 122 q 799 133 806 124 q 792 153 792 142 q 800 174 792 165 q 822 182 808 183 m 629 182 q 651 174 644 183 q 657 153 657 164 q 649 132 657 142 q 626 124 642 122 q 606 133 613 124 q 599 153 599 142 q 607 174 599 165 q 629 182 615 183 m 451 182 q 474 174 467 183 q 481 153 481 164 q 473 132 481 142 q 450 124 465 122 q 428 133 436 124 q 422 153 421 142 q 430 174 422 165 q 451 182 438 183 m 1243 129 l 1247 125 l 1222 125 l 1222 128 q 1226 133 1229 128 q 1224 143 1224 139 l 1207 143 q 1203 133 1206 139 q 1208 128 1200 128 l 1208 125 l 1190 125 l 1190 128 q 1197 133 1197 128 l 1218 181 l 1222 182 q 1225 172 1222 181 q 1231 153 1228 163 q 1238 137 1235 144 q 1243 129 1242 129 m 718 128 l 718 125 q 703 126 708 124 q 696 134 699 129 q 691 144 693 139 q 682 151 689 149 q 683 137 685 146 q 688 128 681 128 l 688 125 l 664 125 l 664 128 q 671 130 671 128 q 671 138 671 132 l 671 172 q 669 177 672 176 q 664 179 667 178 l 664 181 q 685 181 674 179 q 704 178 697 182 q 710 163 713 172 q 697 153 707 154 q 706 138 703 146 q 718 128 710 131 m 1108 128 l 1111 128 l 1111 125 q 1097 126 1101 124 q 1089 134 1092 129 q 1083 144 1086 139 q 1075 151 1081 149 q 1074 137 1076 146 q 1079 128 1072 128 l 1079 125 l 1057 125 l 1057 128 q 1063 130 1063 128 q 1063 138 1063 132 l 1063 172 q 1062 177 1064 176 q 1057 179 1060 178 l 1057 181 q 1077 181 1065 179 q 1097 178 1089 182 q 1101 163 1104 172 q 1090 153 1099 154 q 1099 138 1096 146 q 1108 128 1101 131 m 514 181 l 532 181 l 533 181 l 531 165 l 528 165 l 525 176 l 514 176 l 514 138 q 515 130 514 131 q 521 128 515 129 l 522 125 l 496 125 l 494 128 q 499 128 496 128 q 503 131 503 129 l 503 176 l 492 176 l 488 165 l 485 165 l 485 181 l 514 181 m 926 179 q 922 178 925 178 q 919 176 919 178 l 919 138 q 919 130 919 132 q 926 128 919 128 l 926 125 l 903 125 l 903 128 q 908 133 907 128 q 908 146 908 139 q 908 160 908 153 q 908 171 907 168 q 904 163 907 169 q 899 148 901 156 q 893 134 896 140 q 889 125 890 128 l 886 125 q 882 134 885 128 q 876 148 879 140 q 871 162 874 156 q 868 169 868 168 q 869 160 869 167 q 868 146 868 153 q 869 133 868 139 q 874 128 869 128 l 874 125 l 857 125 l 857 128 q 863 131 863 129 q 863 138 863 132 l 863 169 q 857 179 864 178 l 857 181 l 875 181 q 878 174 875 179 q 883 161 881 168 q 888 148 886 154 q 890 142 890 142 q 893 148 890 142 q 899 161 896 154 q 904 174 901 168 q 907 181 907 179 l 925 181 l 926 179 m 1189 179 q 1183 177 1186 178 q 1182 172 1181 176 l 1182 138 q 1182 131 1182 133 q 1189 128 1182 128 l 1189 125 l 1164 125 l 1164 128 q 1171 130 1171 128 q 1171 138 1171 132 l 1171 172 q 1169 177 1172 176 q 1164 179 1167 178 l 1164 181 l 1189 181 l 1189 179 m 407 181 l 415 181 l 415 179 q 410 169 408 178 l 410 125 l 404 125 q 399 133 404 126 q 387 147 393 139 q 376 161 381 154 q 371 168 371 168 l 371 138 q 371 130 371 132 q 376 128 371 128 l 376 125 l 360 125 l 360 128 q 365 131 365 129 q 365 138 365 132 l 365 169 q 365 176 365 175 q 360 179 365 178 l 360 181 l 375 181 q 380 174 375 179 q 390 161 385 168 q 399 149 394 154 q 404 143 404 143 l 404 169 q 399 179 404 178 l 397 181 l 407 181 m 1283 129 l 1290 142 l 1290 126 l 1289 125 l 1250 125 l 1250 128 q 1256 131 1256 128 q 1256 138 1256 133 l 1256 169 q 1256 176 1256 174 q 1250 179 1256 178 l 1250 181 l 1274 181 l 1274 179 q 1268 176 1268 178 q 1268 169 1268 174 l 1268 129 l 1283 129 m 575 181 l 594 181 l 592 167 l 590 167 l 588 176 l 572 176 l 572 154 q 581 155 578 156 q 585 161 583 154 l 588 161 l 588 144 l 585 144 q 581 151 583 151 q 572 151 578 150 l 572 131 q 575 128 572 129 q 579 128 578 128 l 579 125 l 554 125 l 554 128 q 561 131 561 129 q 561 138 561 132 l 561 172 q 560 177 563 176 q 554 179 557 178 l 554 181 l 575 181 m 1008 181 l 1049 181 l 1046 167 l 1044 167 l 1042 176 l 1026 176 l 1026 156 q 1035 156 1032 156 q 1039 163 1038 156 l 1042 163 q 1042 146 1040 153 l 1039 144 q 1035 151 1038 151 q 1026 151 1032 151 l 1026 129 l 1042 129 l 1047 140 l 1050 140 l 1049 126 l 1049 125 l 1008 125 l 1008 128 q 1014 130 1014 128 q 1014 138 1014 132 l 1014 172 q 1013 177 1015 176 q 1008 179 1011 178 l 1008 181 m 1001 179 q 997 178 1000 178 q 994 176 994 178 l 994 138 q 994 130 994 132 q 1001 128 994 128 l 1001 125 l 978 125 l 978 128 q 983 133 982 128 q 983 146 983 139 q 983 160 983 153 q 983 171 982 168 q 981 163 983 169 q 974 148 978 156 q 968 134 971 140 q 965 125 965 128 l 961 125 q 958 134 961 128 q 952 148 956 140 q 946 162 949 156 q 943 169 943 168 q 944 160 944 167 q 943 146 943 153 q 944 133 943 139 q 949 128 944 128 l 949 125 l 932 125 l 932 128 q 939 131 939 129 q 939 138 939 132 l 939 169 q 932 179 939 178 l 932 181 l 951 181 q 953 174 951 179 q 958 161 956 168 q 964 148 961 154 q 967 142 967 142 q 969 148 967 142 q 974 161 971 154 q 979 174 976 168 q 982 181 982 179 l 1001 181 l 1001 179 m 464 133 q 467 162 471 144 q 451 179 463 179 q 439 172 446 179 q 436 144 432 161 q 451 128 440 128 q 464 133 458 128 m 640 133 q 643 162 647 144 q 628 179 639 179 q 615 172 622 179 q 613 144 608 161 q 628 128 617 128 q 640 133 635 128 m 833 133 q 836 162 840 144 q 821 179 832 179 q 808 172 815 179 q 806 144 801 161 q 821 128 810 128 q 833 133 828 128 m 694 157 q 697 172 700 164 q 682 176 693 179 l 682 154 q 694 157 692 154 m 1086 157 q 1088 172 1092 164 q 1075 176 1085 179 l 1075 154 q 1086 157 1085 154 m 1222 147 q 1219 156 1221 150 q 1215 165 1217 163 q 1212 156 1214 163 q 1208 147 1210 150 l 1222 147 z "},"3":{"ha":1596,"x_min":149,"x_max":1499,"o":"m 1499 949 l 1499 0 l 149 0 l 149 949 l 1499 949 m 1479 929 l 168 929 l 168 19 l 1479 19 l 1479 929 m 797 796 q 782 806 783 800 q 786 817 781 813 q 802 826 792 822 q 824 829 813 829 q 847 824 836 829 q 857 803 857 818 q 871 793 869 800 q 869 778 872 786 q 862 762 867 769 q 858 747 857 754 q 878 744 863 742 q 907 747 893 746 q 928 746 921 749 q 926 728 936 743 q 910 736 924 738 q 888 736 897 735 q 890 731 892 732 q 883 721 881 724 q 877 728 876 724 q 882 736 878 733 q 875 738 878 736 q 864 713 869 724 q 856 686 858 703 q 876 685 869 689 q 882 675 882 681 q 877 665 882 669 q 865 660 872 660 q 847 675 856 660 q 828 667 840 672 q 806 663 817 663 q 793 682 788 663 q 808 674 797 674 q 828 678 818 674 q 846 685 839 682 q 847 691 847 688 q 849 697 847 694 q 835 689 842 688 q 829 701 829 690 q 817 691 825 690 q 813 703 810 692 q 801 688 806 696 q 788 686 796 679 q 788 697 786 690 q 793 708 790 703 q 798 717 796 714 q 800 721 800 721 q 805 717 806 721 q 801 707 804 713 q 796 696 799 701 q 794 689 793 690 q 807 703 797 690 q 821 724 817 717 q 825 719 825 722 q 824 711 825 715 q 820 703 822 707 q 819 697 818 699 q 828 706 822 697 q 839 719 835 714 q 849 725 843 725 q 857 718 854 725 q 863 731 860 725 q 868 739 865 736 q 851 751 851 743 q 857 769 851 760 q 865 785 863 778 q 857 794 868 793 q 847 760 854 776 q 833 749 840 743 q 846 769 840 756 q 851 796 851 783 q 824 795 839 796 q 797 796 810 794 m 896 797 q 880 807 882 796 q 881 824 878 818 q 891 815 883 818 q 909 812 899 813 q 931 813 919 811 q 950 814 942 814 q 993 809 976 819 q 1015 783 1010 799 q 1012 753 1019 768 q 983 732 1004 738 q 960 744 968 732 q 957 771 953 757 q 950 758 954 765 q 940 749 946 751 q 933 760 931 749 q 927 764 928 757 q 926 775 926 771 q 921 769 925 775 q 912 758 917 763 q 903 751 907 753 q 900 758 900 750 q 890 756 894 751 q 889 768 886 761 q 884 760 888 765 q 878 753 881 756 q 872 750 875 750 q 867 757 868 750 q 875 776 868 764 q 889 788 882 788 q 897 782 893 788 q 899 773 904 779 q 896 760 894 767 q 902 767 899 761 q 910 778 906 772 q 917 790 914 785 q 921 794 919 794 q 924 788 925 793 q 921 778 924 783 q 914 769 918 774 q 910 763 910 765 q 919 774 914 768 q 927 782 924 779 q 933 781 931 785 q 933 765 935 778 q 944 778 939 769 q 956 788 949 788 q 964 785 956 788 q 968 780 968 785 q 966 769 968 775 q 963 756 964 763 q 965 746 961 750 q 982 740 972 738 q 997 751 992 743 q 1003 794 1017 783 q 965 804 990 804 q 928 801 947 804 q 896 797 908 799 m 663 710 q 635 724 642 713 q 634 747 629 735 q 653 765 639 758 q 683 764 667 772 q 698 783 690 774 q 713 803 706 793 q 683 797 700 804 q 672 774 667 790 q 661 777 665 772 q 660 788 657 782 q 685 807 665 803 q 719 804 706 811 q 713 774 724 789 q 704 742 703 758 q 727 778 717 760 q 747 817 738 797 q 748 798 754 813 q 733 765 742 783 q 722 729 725 746 q 732 704 718 713 q 717 708 722 703 q 712 721 713 713 q 713 738 711 729 q 718 753 715 747 q 709 741 714 749 q 697 740 704 733 q 692 751 694 746 q 683 758 690 756 q 671 744 678 753 q 657 742 664 735 q 658 746 653 746 q 669 749 664 743 q 679 760 675 756 q 651 752 665 763 q 642 726 636 742 q 655 719 647 719 q 670 719 663 718 q 686 719 678 719 q 700 715 694 719 q 709 701 708 711 q 699 689 710 690 q 688 706 703 703 q 663 710 672 708 m 850 804 q 828 817 846 817 q 806 813 817 817 q 793 804 794 808 q 803 803 796 803 q 819 803 811 803 q 837 805 828 804 q 850 804 846 806 m 714 797 q 703 783 711 793 q 688 763 696 772 q 692 758 690 760 q 696 756 694 757 q 706 780 699 765 q 714 797 713 794 m 735 719 q 728 734 724 722 q 738 757 733 746 q 743 769 740 764 q 749 782 746 775 q 754 794 751 788 q 758 785 763 793 q 753 774 754 778 q 771 789 764 789 q 774 782 775 789 q 771 767 774 775 q 763 753 768 760 q 751 746 757 746 q 743 751 747 746 q 735 719 735 726 m 739 689 q 728 675 726 679 q 738 672 731 671 q 749 678 744 672 q 744 697 753 685 q 738 715 738 706 q 744 731 739 724 q 756 742 749 738 q 771 747 764 747 q 782 724 786 747 q 785 725 783 725 q 788 726 786 725 q 794 740 790 732 q 804 757 799 747 q 795 758 797 753 q 796 768 793 763 q 791 760 794 765 q 784 753 788 756 q 777 750 781 750 q 772 757 774 750 q 781 776 775 764 q 794 788 788 788 q 803 782 799 788 q 805 773 810 779 q 801 760 800 767 q 808 767 804 761 q 815 778 811 772 q 821 790 818 785 q 824 794 824 794 q 828 788 831 792 q 824 776 826 783 q 839 789 835 789 q 842 782 843 789 q 839 767 842 775 q 831 753 836 760 q 819 746 825 746 q 810 753 814 746 q 805 742 807 747 q 800 732 803 738 q 819 739 810 735 q 836 743 829 743 q 847 729 849 743 q 824 732 838 736 q 794 722 810 728 q 781 692 788 708 q 782 667 775 675 q 770 674 772 668 q 770 689 768 681 q 776 705 772 697 q 783 717 781 713 q 772 709 778 714 q 761 704 767 704 q 754 715 756 704 q 775 726 769 714 q 772 739 781 739 q 758 731 769 739 q 750 710 747 721 q 757 690 753 699 q 759 673 761 681 q 738 661 757 665 q 725 666 729 661 q 721 677 721 671 q 724 688 721 683 q 732 693 728 693 q 740 689 736 693 l 739 689 m 768 783 q 760 774 767 783 q 746 756 753 765 q 751 752 747 750 q 759 760 756 754 q 765 774 763 767 q 768 783 768 781 m 813 758 l 813 757 q 817 751 814 751 q 829 765 822 751 q 836 783 836 778 q 826 775 833 783 q 813 758 819 767 m 792 768 q 797 776 794 772 q 800 782 799 779 q 794 781 797 785 q 787 772 790 778 q 781 760 783 767 q 779 753 779 754 q 785 759 781 753 q 792 768 789 765 m 885 768 q 894 781 893 779 q 888 781 892 785 q 881 772 885 778 q 876 760 878 767 q 874 753 874 754 q 879 759 875 753 q 885 768 883 765 m 951 768 q 956 776 954 772 q 961 781 958 779 q 955 781 958 785 q 948 772 951 778 q 942 760 944 767 q 940 753 940 754 q 945 759 942 753 q 951 768 949 765 m 864 696 q 869 715 863 704 q 875 724 876 725 q 879 715 882 724 q 874 704 878 713 q 871 694 871 696 q 882 708 875 694 q 892 721 889 721 q 896 717 892 721 q 889 692 882 692 q 897 699 892 692 q 899 715 901 707 l 894 722 q 913 718 903 718 q 935 724 925 718 q 943 743 946 731 q 953 737 951 744 q 951 724 956 729 q 931 713 949 715 q 903 715 914 710 q 900 698 906 708 q 889 688 894 688 q 881 697 882 688 q 872 690 876 692 q 864 696 867 689 m 836 692 q 854 713 849 700 q 851 720 854 721 q 843 714 847 719 q 837 701 839 708 q 836 692 835 694 m 868 681 q 856 678 864 681 q 863 667 857 668 q 872 668 868 665 q 876 675 876 671 q 868 681 876 679 m 1085 525 q 1071 518 1079 518 q 1058 525 1063 518 q 1053 541 1053 532 q 1057 557 1053 550 q 1069 567 1061 564 q 1085 564 1076 569 q 1085 572 1085 567 q 1085 580 1086 576 q 1083 586 1085 583 q 1075 588 1081 589 l 1075 590 l 1093 592 l 1094 590 l 1094 529 q 1096 525 1093 526 q 1101 524 1099 524 l 1101 521 l 1086 519 l 1085 521 l 1085 525 m 557 528 q 558 538 557 529 q 558 558 558 547 q 558 577 558 568 q 554 586 557 586 l 551 588 l 549 588 l 549 590 l 565 592 l 565 528 q 572 524 565 524 l 572 519 l 550 519 l 550 524 q 557 528 557 524 m 1117 578 q 1111 584 1111 578 q 1117 590 1111 590 q 1123 584 1124 590 q 1117 578 1122 578 m 979 579 l 979 565 l 992 565 l 992 561 l 979 561 l 979 536 q 982 526 978 529 q 993 525 986 522 l 993 522 q 977 519 982 517 q 971 530 972 522 q 970 547 969 538 q 971 561 971 556 l 963 561 l 963 565 l 971 565 l 971 579 l 979 579 m 1172 560 q 1176 533 1183 549 q 1156 518 1168 518 q 1140 525 1147 518 q 1135 552 1128 538 q 1157 567 1143 567 q 1172 560 1165 567 m 1292 560 q 1295 533 1303 549 q 1275 518 1288 518 q 1260 525 1267 518 q 1255 552 1247 538 q 1276 567 1263 567 q 1292 560 1285 567 m 507 539 q 518 544 510 543 q 531 549 526 546 q 527 561 532 556 q 515 561 522 567 q 514 551 517 553 q 508 552 511 550 q 506 558 506 554 q 517 565 507 563 q 535 563 532 569 q 539 548 539 557 q 539 531 539 539 q 547 524 539 524 l 547 521 q 537 519 542 518 q 531 525 532 519 q 515 519 525 519 q 505 526 508 518 q 507 539 501 533 m 894 546 q 903 549 903 549 q 900 561 906 556 q 888 561 894 567 q 886 551 889 553 q 881 552 883 550 q 880 558 879 554 q 889 565 881 563 q 908 563 904 569 q 911 548 911 557 q 911 531 911 539 q 919 524 911 524 l 919 521 q 910 519 915 518 q 904 525 904 519 l 903 525 q 889 518 896 518 q 876 531 878 518 q 894 546 875 543 m 651 546 q 660 549 660 549 q 656 561 661 556 q 644 561 651 567 q 643 551 646 553 q 638 552 640 550 q 635 558 635 554 q 646 565 636 563 q 665 563 661 569 q 668 548 668 557 q 667 531 668 539 q 675 524 667 524 l 675 521 q 666 519 671 518 q 660 525 661 519 q 646 518 653 518 q 633 531 635 518 q 651 546 632 543 m 775 556 q 781 565 776 563 q 793 567 786 567 q 805 563 800 567 q 808 551 810 560 q 808 534 811 544 q 817 524 806 524 l 817 521 q 806 519 811 518 q 800 525 801 519 q 785 518 790 518 q 773 531 774 518 q 800 549 772 543 q 797 561 801 556 q 785 561 792 567 q 783 551 788 554 q 775 556 778 549 m 1232 519 q 1217 525 1222 519 q 1210 538 1211 531 q 1213 553 1210 546 q 1224 565 1215 561 q 1241 565 1231 569 q 1246 551 1251 561 q 1238 551 1240 546 q 1238 561 1235 556 q 1223 558 1226 567 q 1222 538 1219 549 q 1231 523 1224 528 q 1247 532 1238 518 l 1250 531 q 1232 519 1242 518 m 954 542 q 956 526 961 535 q 942 519 951 518 q 935 519 939 518 q 929 522 932 521 l 928 519 l 925 519 l 924 536 l 928 536 q 940 522 928 525 q 950 533 953 519 q 938 540 946 540 q 926 547 929 540 q 931 564 921 558 q 950 564 942 569 l 951 567 l 956 567 l 956 553 l 953 553 q 942 563 953 563 q 933 553 931 564 q 943 547 936 549 q 954 542 950 546 m 601 503 l 601 500 l 576 500 l 576 503 q 585 507 585 503 l 585 556 q 576 563 585 563 l 576 565 l 592 567 l 593 565 l 593 560 q 608 567 603 567 q 622 557 618 567 q 624 537 626 547 q 615 521 622 526 q 593 522 607 515 q 593 508 593 515 q 601 503 593 501 m 678 503 q 685 504 685 503 q 686 507 686 507 l 686 556 q 678 563 686 563 l 678 565 l 694 567 l 694 560 q 710 567 704 567 q 724 557 719 567 q 726 537 728 547 q 716 521 724 526 q 694 522 708 515 q 694 508 694 515 q 704 503 694 501 l 704 500 l 678 500 l 678 503 m 835 567 l 836 565 l 836 558 q 854 567 843 568 q 864 551 865 565 q 864 535 865 547 q 871 524 863 522 l 871 519 l 849 519 l 849 524 q 856 528 856 524 q 855 544 854 532 q 853 558 856 556 q 844 560 850 563 q 836 554 839 558 q 835 535 838 549 q 843 524 833 522 l 843 519 l 821 519 l 821 524 q 828 528 828 524 q 827 536 826 531 q 828 548 828 542 q 826 558 828 554 q 819 563 825 563 l 819 565 l 835 567 m 1311 528 q 1311 545 1310 531 q 1308 561 1313 560 q 1306 562 1307 561 q 1304 563 1306 563 l 1304 565 l 1319 567 l 1319 558 q 1335 567 1325 565 q 1347 558 1344 568 q 1365 567 1354 568 q 1375 551 1376 565 q 1375 535 1376 547 q 1382 524 1374 522 l 1382 519 l 1360 519 l 1360 524 q 1367 535 1369 522 q 1367 551 1365 547 q 1360 561 1368 561 q 1347 554 1351 561 l 1347 528 q 1354 524 1347 524 l 1354 519 l 1332 519 l 1332 524 q 1340 535 1342 522 q 1339 551 1338 547 q 1331 561 1340 561 q 1319 554 1322 561 q 1319 547 1319 553 q 1319 536 1319 542 q 1321 526 1319 531 q 1326 524 1322 522 l 1326 519 l 1304 519 l 1304 524 q 1311 528 1311 524 m 735 524 q 740 525 739 524 q 741 540 742 525 q 740 556 740 554 q 733 563 740 563 l 733 565 l 749 567 l 750 565 l 750 558 q 763 567 753 567 q 768 556 772 567 q 761 554 765 551 q 760 561 757 557 q 750 554 753 561 l 750 528 q 758 524 749 524 l 758 519 l 735 519 l 735 524 m 1029 529 q 1031 533 1031 529 q 1031 542 1031 538 q 1031 552 1031 547 q 1031 557 1031 557 q 1022 563 1031 563 l 1022 565 l 1039 567 l 1039 529 q 1046 524 1039 524 l 1046 521 l 1032 519 l 1031 521 l 1031 526 q 1013 519 1024 518 q 1003 535 1001 521 q 1003 551 1001 539 q 996 563 1006 564 l 996 565 l 1011 567 l 1011 565 q 1011 554 1011 561 q 1012 540 1011 547 q 1014 528 1013 533 q 1019 524 1015 524 q 1029 529 1024 524 m 1113 528 q 1113 544 1113 531 q 1111 561 1114 558 q 1108 562 1110 561 q 1106 563 1107 563 l 1106 565 l 1121 567 l 1122 565 l 1122 528 q 1128 524 1121 524 l 1128 519 l 1107 519 l 1107 524 q 1113 528 1114 524 m 272 557 q 265 563 269 563 l 265 565 l 286 565 l 286 563 q 281 559 282 563 q 283 551 281 556 q 287 540 285 546 q 289 532 289 535 l 301 564 l 306 564 l 317 532 q 319 541 317 536 q 324 551 322 546 q 325 559 325 556 q 319 563 325 563 l 319 565 l 356 565 l 356 563 q 353 551 347 563 q 360 532 358 539 l 371 564 l 375 564 l 388 532 q 390 541 388 536 q 393 551 392 546 q 394 559 394 556 q 389 563 394 563 l 389 565 l 425 565 l 425 563 q 422 551 417 563 q 429 532 428 539 l 440 564 l 444 564 l 457 532 q 459 541 457 536 q 463 551 461 546 q 464 559 464 556 q 458 563 464 563 l 458 565 l 476 565 l 476 563 q 464 544 465 557 q 457 519 463 531 l 453 519 l 440 553 l 428 519 l 424 519 q 406 561 414 561 q 388 519 400 561 l 383 519 l 371 553 l 358 519 l 354 519 q 336 561 344 561 q 317 519 329 561 l 314 519 l 301 553 l 289 519 l 285 519 q 278 539 282 529 q 272 557 275 549 m 1144 550 q 1144 535 1143 543 q 1150 524 1144 528 q 1168 533 1165 518 q 1167 557 1171 547 q 1153 563 1161 567 q 1144 550 1144 560 m 1264 550 q 1263 535 1263 543 q 1269 524 1264 528 q 1287 533 1283 518 q 1286 557 1290 547 q 1272 563 1281 567 q 1264 550 1264 560 m 1063 551 q 1064 533 1060 543 q 1075 524 1068 524 q 1085 529 1081 524 l 1085 556 q 1073 563 1082 565 q 1063 551 1064 561 m 593 557 q 592 546 593 553 q 593 533 592 539 q 597 524 594 526 q 608 524 600 521 q 617 547 619 531 q 603 563 614 563 q 593 557 599 563 m 694 557 q 694 546 694 553 q 695 533 694 539 q 699 524 696 526 q 710 524 701 521 q 718 547 721 531 q 704 563 715 563 q 694 557 700 563 m 903 546 q 887 533 889 543 q 892 524 885 524 q 903 529 897 524 l 903 546 m 800 546 q 784 533 786 543 q 789 524 782 524 q 800 529 794 524 l 800 546 m 531 529 l 531 546 q 522 542 526 543 q 515 536 518 540 q 518 525 510 528 q 531 529 526 522 m 660 546 q 642 533 644 543 q 649 524 640 524 q 660 529 654 524 l 660 546 m 1194 519 q 1188 526 1188 519 q 1194 532 1188 532 q 1201 526 1201 532 q 1194 519 1201 519 m 488 519 q 481 526 481 519 q 488 532 481 532 q 494 526 494 532 q 488 519 494 519 m 736 401 l 736 408 l 913 408 l 913 401 l 736 401 m 1154 301 q 1165 278 1164 290 q 1160 255 1165 265 q 1144 238 1154 244 q 1122 232 1135 232 q 1094 243 1106 232 q 1084 267 1085 254 q 1089 290 1083 279 q 1104 306 1094 300 q 1126 313 1114 313 q 1154 301 1143 313 m 594 274 q 583 244 597 254 q 553 233 568 233 q 525 243 538 233 q 514 272 513 253 q 525 301 511 292 q 556 311 539 311 q 583 302 571 311 q 594 274 596 293 m 935 281 q 935 297 931 290 q 946 308 939 304 q 962 311 953 311 q 979 308 971 311 l 976 292 l 974 290 l 969 306 q 953 303 963 308 q 950 289 944 299 q 963 280 954 282 q 976 271 971 278 q 983 253 985 261 q 972 239 981 244 q 953 233 964 233 q 933 236 942 232 l 936 256 l 939 257 l 943 240 q 961 241 951 236 q 965 257 971 246 q 949 267 960 265 q 935 281 939 269 m 457 281 q 457 297 453 290 q 468 308 461 304 q 484 311 475 311 q 501 308 493 311 l 499 292 l 496 290 l 492 306 q 475 303 483 308 q 472 289 467 299 q 485 280 476 282 q 499 271 493 278 q 505 253 507 261 q 494 239 503 244 q 475 233 486 233 q 456 236 464 232 l 458 256 l 461 257 l 465 240 q 483 241 474 236 q 488 257 493 246 q 472 267 482 265 q 457 281 461 269 m 243 238 q 250 240 247 239 q 251 246 253 240 l 251 294 q 251 303 251 301 q 243 307 250 306 l 243 310 q 293 306 279 314 q 307 289 307 299 q 295 271 307 279 q 268 267 283 263 l 268 242 q 272 239 268 239 q 278 238 276 239 l 278 235 l 243 235 l 243 238 m 757 238 l 757 235 l 724 235 l 724 238 q 731 246 735 239 q 725 258 726 253 l 703 258 q 697 245 701 253 q 704 238 693 238 l 704 235 l 679 235 l 679 238 q 690 246 689 240 l 717 311 l 722 311 l 746 246 q 757 238 747 240 m 378 238 q 386 242 386 239 q 386 251 386 244 l 386 294 q 385 303 386 301 q 378 307 385 306 l 378 310 q 406 310 390 308 q 432 306 421 313 q 439 287 443 299 q 422 272 435 275 q 435 251 431 263 q 451 238 439 240 l 451 235 q 431 235 438 231 q 422 245 425 239 q 415 258 418 251 q 403 269 411 265 q 402 256 403 264 q 403 242 401 247 q 404 239 401 239 q 410 238 407 239 l 410 235 l 378 235 l 378 238 m 1282 294 l 1282 240 l 1303 240 l 1311 256 l 1314 257 l 1313 235 l 1258 235 l 1258 238 q 1266 242 1265 239 q 1267 251 1267 244 l 1267 294 q 1266 303 1267 301 q 1258 307 1265 306 l 1258 310 l 1290 310 l 1290 307 q 1283 303 1283 306 q 1282 294 1282 301 m 1354 310 l 1378 310 l 1379 307 q 1371 302 1375 307 q 1363 291 1367 297 q 1357 278 1360 285 q 1351 269 1354 272 l 1351 242 q 1354 239 1351 239 q 1358 238 1357 239 l 1360 235 l 1326 235 l 1326 238 q 1331 239 1328 239 q 1335 242 1335 239 l 1335 268 q 1330 278 1333 271 q 1323 291 1326 285 q 1315 302 1319 297 q 1306 307 1310 307 l 1306 310 l 1340 310 l 1342 307 q 1336 297 1331 306 l 1349 275 l 1358 296 q 1354 307 1364 306 l 1354 310 m 1038 240 l 1044 254 l 1047 256 l 1046 235 l 992 235 l 990 238 q 999 242 999 239 q 1000 251 1000 244 l 1000 294 q 999 303 1000 301 q 992 307 999 306 l 990 310 l 1046 310 l 1043 292 l 1040 292 l 1036 304 l 1015 304 l 1015 276 q 1026 276 1022 276 q 1032 285 1031 275 l 1036 285 l 1036 263 l 1032 261 q 1026 271 1031 272 q 1015 271 1022 269 l 1015 240 l 1038 240 m 914 310 l 926 310 l 926 307 q 917 295 917 307 q 917 270 917 283 q 913 245 918 257 q 888 233 908 233 q 860 244 865 233 q 855 269 854 256 q 856 295 856 283 q 847 307 857 307 l 847 310 l 879 310 l 881 307 q 872 303 874 306 q 871 294 871 301 q 872 269 872 286 q 876 244 871 251 q 893 239 886 239 q 904 245 900 239 q 910 260 908 251 q 910 278 911 268 q 910 294 910 288 q 909 303 910 301 q 901 307 908 306 l 901 310 l 914 310 m 1174 307 l 1174 310 l 1194 310 q 1202 301 1196 308 q 1215 284 1208 293 q 1228 267 1222 275 q 1235 260 1235 260 l 1235 294 q 1234 303 1235 301 q 1226 307 1233 306 l 1226 310 l 1250 310 l 1250 307 q 1242 303 1243 306 q 1242 294 1242 301 l 1242 235 l 1235 235 q 1227 245 1235 236 q 1211 265 1219 254 q 1196 284 1203 275 q 1189 293 1189 293 l 1189 251 q 1189 242 1189 244 q 1197 238 1189 239 l 1197 235 l 1174 235 l 1174 238 q 1181 242 1181 239 q 1182 251 1182 244 l 1182 294 q 1181 303 1182 301 q 1174 307 1181 306 m 367 235 l 311 235 l 311 238 q 318 240 315 239 q 319 246 321 240 l 319 294 q 319 303 321 301 q 311 307 318 306 l 311 310 l 367 310 l 364 292 l 360 292 l 357 304 l 336 304 l 336 276 q 347 276 343 276 q 353 285 351 275 l 357 285 q 356 273 356 276 q 357 263 356 269 l 353 261 q 347 271 351 272 q 336 271 343 269 l 336 240 l 358 240 l 364 254 l 368 256 l 367 235 m 815 235 l 761 235 l 761 238 q 769 242 769 239 q 769 251 769 244 l 769 294 q 769 303 769 301 q 761 307 768 306 l 761 310 l 793 310 l 793 307 q 786 303 786 306 q 786 294 786 301 q 785 267 786 288 q 786 240 785 247 l 807 240 l 814 256 l 817 257 l 815 235 m 603 238 q 608 239 604 239 q 611 242 611 239 l 611 294 q 610 303 611 301 q 603 307 610 306 l 603 310 l 624 310 q 631 301 625 308 q 644 284 638 293 q 658 267 651 275 q 664 260 664 260 l 664 294 q 663 303 664 301 q 656 307 663 306 l 656 310 l 679 310 l 681 307 q 672 303 674 306 q 671 294 671 301 l 671 235 l 665 235 q 657 245 664 236 q 642 265 650 254 q 626 284 633 275 q 618 293 618 293 l 618 251 q 619 242 618 244 q 626 238 619 239 l 626 235 l 603 235 l 603 238 m 1393 257 l 1388 308 l 1404 308 l 1397 257 l 1393 257 m 1107 299 q 1102 281 1103 292 q 1103 261 1101 271 q 1111 244 1106 251 q 1125 238 1117 238 q 1142 246 1133 238 q 1147 263 1146 253 q 1146 283 1149 274 q 1138 300 1143 293 q 1125 307 1133 307 q 1107 299 1115 307 m 571 246 q 576 263 575 253 q 575 283 578 274 q 567 300 572 293 q 554 307 563 307 q 536 299 544 307 q 531 281 532 292 q 533 261 531 271 q 540 244 535 251 q 554 238 546 238 q 571 246 563 238 m 268 272 q 283 274 278 268 q 289 288 289 281 q 284 301 289 296 q 268 304 279 307 l 268 272 m 403 275 q 417 278 413 272 q 422 290 422 283 q 417 302 422 297 q 403 304 413 307 l 403 275 m 722 264 q 718 277 721 267 q 714 290 715 288 q 710 277 713 288 q 706 264 707 267 l 722 264 m 1396 250 q 1403 242 1403 250 q 1396 233 1403 233 q 1388 242 1388 233 q 1396 250 1388 250 m 775 129 q 788 132 779 129 l 788 129 q 768 124 778 124 q 747 135 754 124 q 742 158 740 146 q 755 178 744 169 q 786 181 765 186 l 786 179 l 785 165 l 782 165 l 779 176 q 760 173 767 181 q 753 156 754 165 q 758 138 753 146 q 775 129 764 129 m 1146 129 q 1157 132 1149 129 l 1158 129 q 1139 124 1149 124 q 1118 135 1125 124 q 1113 158 1111 146 q 1126 178 1115 169 q 1157 181 1136 186 l 1157 179 l 1154 165 l 1153 165 l 1150 176 q 1131 173 1138 181 q 1124 156 1125 165 q 1129 138 1124 146 q 1146 129 1135 129 m 822 182 q 844 174 838 183 q 850 153 850 164 q 842 132 850 142 q 819 124 835 122 q 799 133 806 124 q 792 153 792 142 q 800 174 792 165 q 822 182 808 183 m 629 182 q 651 174 644 183 q 657 153 657 164 q 649 132 657 142 q 626 124 642 122 q 606 133 613 124 q 599 153 599 142 q 607 174 599 165 q 629 182 615 183 m 451 182 q 474 174 467 183 q 481 153 481 164 q 473 132 481 142 q 450 124 465 122 q 428 133 436 124 q 422 153 421 142 q 430 174 422 165 q 451 182 438 183 m 1243 129 l 1247 125 l 1222 125 l 1222 128 q 1226 133 1229 128 q 1224 143 1224 139 l 1207 143 q 1203 133 1206 139 q 1208 128 1200 128 l 1208 125 l 1190 125 l 1190 128 q 1197 133 1197 128 l 1218 181 l 1222 182 q 1225 172 1222 181 q 1231 153 1228 163 q 1238 137 1235 144 q 1243 129 1242 129 m 718 128 l 718 125 q 703 126 708 124 q 696 134 699 129 q 691 144 693 139 q 682 151 689 149 q 683 137 685 146 q 688 128 681 128 l 688 125 l 664 125 l 664 128 q 671 130 671 128 q 671 138 671 132 l 671 172 q 669 177 672 176 q 664 179 667 178 l 664 181 q 685 181 674 179 q 704 178 697 182 q 710 163 713 172 q 697 153 707 154 q 706 138 703 146 q 718 128 710 131 m 1108 128 l 1111 128 l 1111 125 q 1097 126 1101 124 q 1089 134 1092 129 q 1083 144 1086 139 q 1075 151 1081 149 q 1074 137 1076 146 q 1079 128 1072 128 l 1079 125 l 1057 125 l 1057 128 q 1063 130 1063 128 q 1063 138 1063 132 l 1063 172 q 1062 177 1064 176 q 1057 179 1060 178 l 1057 181 q 1077 181 1065 179 q 1097 178 1089 182 q 1101 163 1104 172 q 1090 153 1099 154 q 1099 138 1096 146 q 1108 128 1101 131 m 514 181 l 532 181 l 533 181 l 531 165 l 528 165 l 525 176 l 514 176 l 514 138 q 515 130 514 131 q 521 128 515 129 l 522 125 l 496 125 l 494 128 q 499 128 496 128 q 503 131 503 129 l 503 176 l 492 176 l 488 165 l 485 165 l 485 181 l 514 181 m 926 179 q 922 178 925 178 q 919 176 919 178 l 919 138 q 919 130 919 132 q 926 128 919 128 l 926 125 l 903 125 l 903 128 q 908 133 907 128 q 908 146 908 139 q 908 160 908 153 q 908 171 907 168 q 904 163 907 169 q 899 148 901 156 q 893 134 896 140 q 889 125 890 128 l 886 125 q 882 134 885 128 q 876 148 879 140 q 871 162 874 156 q 868 169 868 168 q 869 160 869 167 q 868 146 868 153 q 869 133 868 139 q 874 128 869 128 l 874 125 l 857 125 l 857 128 q 863 131 863 129 q 863 138 863 132 l 863 169 q 857 179 864 178 l 857 181 l 875 181 q 878 174 875 179 q 883 161 881 168 q 888 148 886 154 q 890 142 890 142 q 893 148 890 142 q 899 161 896 154 q 904 174 901 168 q 907 181 907 179 l 925 181 l 926 179 m 1189 179 q 1183 177 1186 178 q 1182 172 1181 176 l 1182 138 q 1182 131 1182 133 q 1189 128 1182 128 l 1189 125 l 1164 125 l 1164 128 q 1171 130 1171 128 q 1171 138 1171 132 l 1171 172 q 1169 177 1172 176 q 1164 179 1167 178 l 1164 181 l 1189 181 l 1189 179 m 407 181 l 415 181 l 415 179 q 410 169 408 178 l 410 125 l 404 125 q 399 133 404 126 q 387 147 393 139 q 376 161 381 154 q 371 168 371 168 l 371 138 q 371 130 371 132 q 376 128 371 128 l 376 125 l 360 125 l 360 128 q 365 131 365 129 q 365 138 365 132 l 365 169 q 365 176 365 175 q 360 179 365 178 l 360 181 l 375 181 q 380 174 375 179 q 390 161 385 168 q 399 149 394 154 q 404 143 404 143 l 404 169 q 399 179 404 178 l 397 181 l 407 181 m 1283 129 l 1290 142 l 1290 126 l 1289 125 l 1250 125 l 1250 128 q 1256 131 1256 128 q 1256 138 1256 133 l 1256 169 q 1256 176 1256 174 q 1250 179 1256 178 l 1250 181 l 1274 181 l 1274 179 q 1268 176 1268 178 q 1268 169 1268 174 l 1268 129 l 1283 129 m 575 181 l 594 181 l 592 167 l 590 167 l 588 176 l 572 176 l 572 154 q 581 155 578 156 q 585 161 583 154 l 588 161 l 588 144 l 585 144 q 581 151 583 151 q 572 151 578 150 l 572 131 q 575 128 572 129 q 579 128 578 128 l 579 125 l 554 125 l 554 128 q 561 131 561 129 q 561 138 561 132 l 561 172 q 560 177 563 176 q 554 179 557 178 l 554 181 l 575 181 m 1008 181 l 1049 181 l 1046 167 l 1044 167 l 1042 176 l 1026 176 l 1026 156 q 1035 156 1032 156 q 1039 163 1038 156 l 1042 163 q 1042 146 1040 153 l 1039 144 q 1035 151 1038 151 q 1026 151 1032 151 l 1026 129 l 1042 129 l 1047 140 l 1050 140 l 1049 126 l 1049 125 l 1008 125 l 1008 128 q 1014 130 1014 128 q 1014 138 1014 132 l 1014 172 q 1013 177 1015 176 q 1008 179 1011 178 l 1008 181 m 1001 179 q 997 178 1000 178 q 994 176 994 178 l 994 138 q 994 130 994 132 q 1001 128 994 128 l 1001 125 l 978 125 l 978 128 q 983 133 982 128 q 983 146 983 139 q 983 160 983 153 q 983 171 982 168 q 981 163 983 169 q 974 148 978 156 q 968 134 971 140 q 965 125 965 128 l 961 125 q 958 134 961 128 q 952 148 956 140 q 946 162 949 156 q 943 169 943 168 q 944 160 944 167 q 943 146 943 153 q 944 133 943 139 q 949 128 944 128 l 949 125 l 932 125 l 932 128 q 939 131 939 129 q 939 138 939 132 l 939 169 q 932 179 939 178 l 932 181 l 951 181 q 953 174 951 179 q 958 161 956 168 q 964 148 961 154 q 967 142 967 142 q 969 148 967 142 q 974 161 971 154 q 979 174 976 168 q 982 181 982 179 l 1001 181 l 1001 179 m 464 133 q 467 162 471 144 q 451 179 463 179 q 439 172 446 179 q 436 144 432 161 q 451 128 440 128 q 464 133 458 128 m 640 133 q 643 162 647 144 q 628 179 639 179 q 615 172 622 179 q 613 144 608 161 q 628 128 617 128 q 640 133 635 128 m 833 133 q 836 162 840 144 q 821 179 832 179 q 808 172 815 179 q 806 144 801 161 q 821 128 810 128 q 833 133 828 128 m 694 157 q 697 172 700 164 q 682 176 693 179 l 682 154 q 694 157 692 154 m 1086 157 q 1088 172 1092 164 q 1075 176 1085 179 l 1075 154 q 1086 157 1085 154 m 1222 147 q 1219 156 1221 150 q 1215 165 1217 163 q 1212 156 1214 163 q 1208 147 1210 150 l 1222 147 z "},"4":{"ha":1596,"x_min":149,"x_max":1499,"o":"m 1499 949 l 1499 0 l 149 0 l 149 949 l 1499 949 m 1479 929 l 168 929 l 168 19 l 1479 19 l 1479 929 m 797 796 q 782 806 783 800 q 786 817 781 813 q 802 826 792 822 q 824 829 813 829 q 847 824 836 829 q 857 803 857 818 q 871 793 869 800 q 869 778 872 786 q 862 762 867 769 q 858 747 857 754 q 878 744 863 742 q 907 747 893 746 q 928 746 921 749 q 926 728 936 743 q 910 736 924 738 q 888 736 897 735 q 890 731 892 732 q 883 721 881 724 q 877 728 876 724 q 882 736 878 733 q 875 738 878 736 q 864 713 869 724 q 856 686 858 703 q 876 685 869 689 q 882 675 882 681 q 877 665 882 669 q 865 660 872 660 q 847 675 856 660 q 828 667 840 672 q 806 663 817 663 q 793 682 788 663 q 808 674 797 674 q 828 678 818 674 q 846 685 839 682 q 847 691 847 688 q 849 697 847 694 q 835 689 842 688 q 829 701 829 690 q 817 691 825 690 q 813 703 810 692 q 801 688 806 696 q 788 686 796 679 q 788 697 786 690 q 793 708 790 703 q 798 717 796 714 q 800 721 800 721 q 805 717 806 721 q 801 707 804 713 q 796 696 799 701 q 794 689 793 690 q 807 703 797 690 q 821 724 817 717 q 825 719 825 722 q 824 711 825 715 q 820 703 822 707 q 819 697 818 699 q 828 706 822 697 q 839 719 835 714 q 849 725 843 725 q 857 718 854 725 q 863 731 860 725 q 868 739 865 736 q 851 751 851 743 q 857 769 851 760 q 865 785 863 778 q 857 794 868 793 q 847 760 854 776 q 833 749 840 743 q 846 769 840 756 q 851 796 851 783 q 824 795 839 796 q 797 796 810 794 m 896 797 q 880 807 882 796 q 881 824 878 818 q 891 815 883 818 q 909 812 899 813 q 931 813 919 811 q 950 814 942 814 q 993 809 976 819 q 1015 783 1010 799 q 1012 753 1019 768 q 983 732 1004 738 q 960 744 968 732 q 957 771 953 757 q 950 758 954 765 q 940 749 946 751 q 933 760 931 749 q 927 764 928 757 q 926 775 926 771 q 921 769 925 775 q 912 758 917 763 q 903 751 907 753 q 900 758 900 750 q 890 756 894 751 q 889 768 886 761 q 884 760 888 765 q 878 753 881 756 q 872 750 875 750 q 867 757 868 750 q 875 776 868 764 q 889 788 882 788 q 897 782 893 788 q 899 773 904 779 q 896 760 894 767 q 902 767 899 761 q 910 778 906 772 q 917 790 914 785 q 921 794 919 794 q 924 788 925 793 q 921 778 924 783 q 914 769 918 774 q 910 763 910 765 q 919 774 914 768 q 927 782 924 779 q 933 781 931 785 q 933 765 935 778 q 944 778 939 769 q 956 788 949 788 q 964 785 956 788 q 968 780 968 785 q 966 769 968 775 q 963 756 964 763 q 965 746 961 750 q 982 740 972 738 q 997 751 992 743 q 1003 794 1017 783 q 965 804 990 804 q 928 801 947 804 q 896 797 908 799 m 663 710 q 635 724 642 713 q 634 747 629 735 q 653 765 639 758 q 683 764 667 772 q 698 783 690 774 q 713 803 706 793 q 683 797 700 804 q 672 774 667 790 q 661 777 665 772 q 660 788 657 782 q 685 807 665 803 q 719 804 706 811 q 713 774 724 789 q 704 742 703 758 q 727 778 717 760 q 747 817 738 797 q 748 798 754 813 q 733 765 742 783 q 722 729 725 746 q 732 704 718 713 q 717 708 722 703 q 712 721 713 713 q 713 738 711 729 q 718 753 715 747 q 709 741 714 749 q 697 740 704 733 q 692 751 694 746 q 683 758 690 756 q 671 744 678 753 q 657 742 664 735 q 658 746 653 746 q 669 749 664 743 q 679 760 675 756 q 651 752 665 763 q 642 726 636 742 q 655 719 647 719 q 670 719 663 718 q 686 719 678 719 q 700 715 694 719 q 709 701 708 711 q 699 689 710 690 q 688 706 703 703 q 663 710 672 708 m 850 804 q 828 817 846 817 q 806 813 817 817 q 793 804 794 808 q 803 803 796 803 q 819 803 811 803 q 837 805 828 804 q 850 804 846 806 m 714 797 q 703 783 711 793 q 688 763 696 772 q 692 758 690 760 q 696 756 694 757 q 706 780 699 765 q 714 797 713 794 m 735 719 q 728 734 724 722 q 738 757 733 746 q 743 769 740 764 q 749 782 746 775 q 754 794 751 788 q 758 785 763 793 q 753 774 754 778 q 771 789 764 789 q 774 782 775 789 q 771 767 774 775 q 763 753 768 760 q 751 746 757 746 q 743 751 747 746 q 735 719 735 726 m 739 689 q 728 675 726 679 q 738 672 731 671 q 749 678 744 672 q 744 697 753 685 q 738 715 738 706 q 744 731 739 724 q 756 742 749 738 q 771 747 764 747 q 782 724 786 747 q 785 725 783 725 q 788 726 786 725 q 794 740 790 732 q 804 757 799 747 q 795 758 797 753 q 796 768 793 763 q 791 760 794 765 q 784 753 788 756 q 777 750 781 750 q 772 757 774 750 q 781 776 775 764 q 794 788 788 788 q 803 782 799 788 q 805 773 810 779 q 801 760 800 767 q 808 767 804 761 q 815 778 811 772 q 821 790 818 785 q 824 794 824 794 q 828 788 831 792 q 824 776 826 783 q 839 789 835 789 q 842 782 843 789 q 839 767 842 775 q 831 753 836 760 q 819 746 825 746 q 810 753 814 746 q 805 742 807 747 q 800 732 803 738 q 819 739 810 735 q 836 743 829 743 q 847 729 849 743 q 824 732 838 736 q 794 722 810 728 q 781 692 788 708 q 782 667 775 675 q 770 674 772 668 q 770 689 768 681 q 776 705 772 697 q 783 717 781 713 q 772 709 778 714 q 761 704 767 704 q 754 715 756 704 q 775 726 769 714 q 772 739 781 739 q 758 731 769 739 q 750 710 747 721 q 757 690 753 699 q 759 673 761 681 q 738 661 757 665 q 725 666 729 661 q 721 677 721 671 q 724 688 721 683 q 732 693 728 693 q 740 689 736 693 l 739 689 m 768 783 q 760 774 767 783 q 746 756 753 765 q 751 752 747 750 q 759 760 756 754 q 765 774 763 767 q 768 783 768 781 m 813 758 l 813 757 q 817 751 814 751 q 829 765 822 751 q 836 783 836 778 q 826 775 833 783 q 813 758 819 767 m 792 768 q 797 776 794 772 q 800 782 799 779 q 794 781 797 785 q 787 772 790 778 q 781 760 783 767 q 779 753 779 754 q 785 759 781 753 q 792 768 789 765 m 885 768 q 894 781 893 779 q 888 781 892 785 q 881 772 885 778 q 876 760 878 767 q 874 753 874 754 q 879 759 875 753 q 885 768 883 765 m 951 768 q 956 776 954 772 q 961 781 958 779 q 955 781 958 785 q 948 772 951 778 q 942 760 944 767 q 940 753 940 754 q 945 759 942 753 q 951 768 949 765 m 864 696 q 869 715 863 704 q 875 724 876 725 q 879 715 882 724 q 874 704 878 713 q 871 694 871 696 q 882 708 875 694 q 892 721 889 721 q 896 717 892 721 q 889 692 882 692 q 897 699 892 692 q 899 715 901 707 l 894 722 q 913 718 903 718 q 935 724 925 718 q 943 743 946 731 q 953 737 951 744 q 951 724 956 729 q 931 713 949 715 q 903 715 914 710 q 900 698 906 708 q 889 688 894 688 q 881 697 882 688 q 872 690 876 692 q 864 696 867 689 m 836 692 q 854 713 849 700 q 851 720 854 721 q 843 714 847 719 q 837 701 839 708 q 836 692 835 694 m 868 681 q 856 678 864 681 q 863 667 857 668 q 872 668 868 665 q 876 675 876 671 q 868 681 876 679 m 1085 525 q 1071 518 1079 518 q 1058 525 1063 518 q 1053 541 1053 532 q 1057 557 1053 550 q 1069 567 1061 564 q 1085 564 1076 569 q 1085 572 1085 567 q 1085 580 1086 576 q 1083 586 1085 583 q 1075 588 1081 589 l 1075 590 l 1093 592 l 1094 590 l 1094 529 q 1096 525 1093 526 q 1101 524 1099 524 l 1101 521 l 1086 519 l 1085 521 l 1085 525 m 557 528 q 558 538 557 529 q 558 558 558 547 q 558 577 558 568 q 554 586 557 586 l 551 588 l 549 588 l 549 590 l 565 592 l 565 528 q 572 524 565 524 l 572 519 l 550 519 l 550 524 q 557 528 557 524 m 1117 578 q 1111 584 1111 578 q 1117 590 1111 590 q 1123 584 1124 590 q 1117 578 1122 578 m 979 579 l 979 565 l 992 565 l 992 561 l 979 561 l 979 536 q 982 526 978 529 q 993 525 986 522 l 993 522 q 977 519 982 517 q 971 530 972 522 q 970 547 969 538 q 971 561 971 556 l 963 561 l 963 565 l 971 565 l 971 579 l 979 579 m 1172 560 q 1176 533 1183 549 q 1156 518 1168 518 q 1140 525 1147 518 q 1135 552 1128 538 q 1157 567 1143 567 q 1172 560 1165 567 m 1292 560 q 1295 533 1303 549 q 1275 518 1288 518 q 1260 525 1267 518 q 1255 552 1247 538 q 1276 567 1263 567 q 1292 560 1285 567 m 507 539 q 518 544 510 543 q 531 549 526 546 q 527 561 532 556 q 515 561 522 567 q 514 551 517 553 q 508 552 511 550 q 506 558 506 554 q 517 565 507 563 q 535 563 532 569 q 539 548 539 557 q 539 531 539 539 q 547 524 539 524 l 547 521 q 537 519 542 518 q 531 525 532 519 q 515 519 525 519 q 505 526 508 518 q 507 539 501 533 m 894 546 q 903 549 903 549 q 900 561 906 556 q 888 561 894 567 q 886 551 889 553 q 881 552 883 550 q 880 558 879 554 q 889 565 881 563 q 908 563 904 569 q 911 548 911 557 q 911 531 911 539 q 919 524 911 524 l 919 521 q 910 519 915 518 q 904 525 904 519 l 903 525 q 889 518 896 518 q 876 531 878 518 q 894 546 875 543 m 651 546 q 660 549 660 549 q 656 561 661 556 q 644 561 651 567 q 643 551 646 553 q 638 552 640 550 q 635 558 635 554 q 646 565 636 563 q 665 563 661 569 q 668 548 668 557 q 667 531 668 539 q 675 524 667 524 l 675 521 q 666 519 671 518 q 660 525 661 519 q 646 518 653 518 q 633 531 635 518 q 651 546 632 543 m 775 556 q 781 565 776 563 q 793 567 786 567 q 805 563 800 567 q 808 551 810 560 q 808 534 811 544 q 817 524 806 524 l 817 521 q 806 519 811 518 q 800 525 801 519 q 785 518 790 518 q 773 531 774 518 q 800 549 772 543 q 797 561 801 556 q 785 561 792 567 q 783 551 788 554 q 775 556 778 549 m 1232 519 q 1217 525 1222 519 q 1210 538 1211 531 q 1213 553 1210 546 q 1224 565 1215 561 q 1241 565 1231 569 q 1246 551 1251 561 q 1238 551 1240 546 q 1238 561 1235 556 q 1223 558 1226 567 q 1222 538 1219 549 q 1231 523 1224 528 q 1247 532 1238 518 l 1250 531 q 1232 519 1242 518 m 954 542 q 956 526 961 535 q 942 519 951 518 q 935 519 939 518 q 929 522 932 521 l 928 519 l 925 519 l 924 536 l 928 536 q 940 522 928 525 q 950 533 953 519 q 938 540 946 540 q 926 547 929 540 q 931 564 921 558 q 950 564 942 569 l 951 567 l 956 567 l 956 553 l 953 553 q 942 563 953 563 q 933 553 931 564 q 943 547 936 549 q 954 542 950 546 m 601 503 l 601 500 l 576 500 l 576 503 q 585 507 585 503 l 585 556 q 576 563 585 563 l 576 565 l 592 567 l 593 565 l 593 560 q 608 567 603 567 q 622 557 618 567 q 624 537 626 547 q 615 521 622 526 q 593 522 607 515 q 593 508 593 515 q 601 503 593 501 m 678 503 q 685 504 685 503 q 686 507 686 507 l 686 556 q 678 563 686 563 l 678 565 l 694 567 l 694 560 q 710 567 704 567 q 724 557 719 567 q 726 537 728 547 q 716 521 724 526 q 694 522 708 515 q 694 508 694 515 q 704 503 694 501 l 704 500 l 678 500 l 678 503 m 835 567 l 836 565 l 836 558 q 854 567 843 568 q 864 551 865 565 q 864 535 865 547 q 871 524 863 522 l 871 519 l 849 519 l 849 524 q 856 528 856 524 q 855 544 854 532 q 853 558 856 556 q 844 560 850 563 q 836 554 839 558 q 835 535 838 549 q 843 524 833 522 l 843 519 l 821 519 l 821 524 q 828 528 828 524 q 827 536 826 531 q 828 548 828 542 q 826 558 828 554 q 819 563 825 563 l 819 565 l 835 567 m 1311 528 q 1311 545 1310 531 q 1308 561 1313 560 q 1306 562 1307 561 q 1304 563 1306 563 l 1304 565 l 1319 567 l 1319 558 q 1335 567 1325 565 q 1347 558 1344 568 q 1365 567 1354 568 q 1375 551 1376 565 q 1375 535 1376 547 q 1382 524 1374 522 l 1382 519 l 1360 519 l 1360 524 q 1367 535 1369 522 q 1367 551 1365 547 q 1360 561 1368 561 q 1347 554 1351 561 l 1347 528 q 1354 524 1347 524 l 1354 519 l 1332 519 l 1332 524 q 1340 535 1342 522 q 1339 551 1338 547 q 1331 561 1340 561 q 1319 554 1322 561 q 1319 547 1319 553 q 1319 536 1319 542 q 1321 526 1319 531 q 1326 524 1322 522 l 1326 519 l 1304 519 l 1304 524 q 1311 528 1311 524 m 735 524 q 740 525 739 524 q 741 540 742 525 q 740 556 740 554 q 733 563 740 563 l 733 565 l 749 567 l 750 565 l 750 558 q 763 567 753 567 q 768 556 772 567 q 761 554 765 551 q 760 561 757 557 q 750 554 753 561 l 750 528 q 758 524 749 524 l 758 519 l 735 519 l 735 524 m 1029 529 q 1031 533 1031 529 q 1031 542 1031 538 q 1031 552 1031 547 q 1031 557 1031 557 q 1022 563 1031 563 l 1022 565 l 1039 567 l 1039 529 q 1046 524 1039 524 l 1046 521 l 1032 519 l 1031 521 l 1031 526 q 1013 519 1024 518 q 1003 535 1001 521 q 1003 551 1001 539 q 996 563 1006 564 l 996 565 l 1011 567 l 1011 565 q 1011 554 1011 561 q 1012 540 1011 547 q 1014 528 1013 533 q 1019 524 1015 524 q 1029 529 1024 524 m 1113 528 q 1113 544 1113 531 q 1111 561 1114 558 q 1108 562 1110 561 q 1106 563 1107 563 l 1106 565 l 1121 567 l 1122 565 l 1122 528 q 1128 524 1121 524 l 1128 519 l 1107 519 l 1107 524 q 1113 528 1114 524 m 272 557 q 265 563 269 563 l 265 565 l 286 565 l 286 563 q 281 559 282 563 q 283 551 281 556 q 287 540 285 546 q 289 532 289 535 l 301 564 l 306 564 l 317 532 q 319 541 317 536 q 324 551 322 546 q 325 559 325 556 q 319 563 325 563 l 319 565 l 356 565 l 356 563 q 353 551 347 563 q 360 532 358 539 l 371 564 l 375 564 l 388 532 q 390 541 388 536 q 393 551 392 546 q 394 559 394 556 q 389 563 394 563 l 389 565 l 425 565 l 425 563 q 422 551 417 563 q 429 532 428 539 l 440 564 l 444 564 l 457 532 q 459 541 457 536 q 463 551 461 546 q 464 559 464 556 q 458 563 464 563 l 458 565 l 476 565 l 476 563 q 464 544 465 557 q 457 519 463 531 l 453 519 l 440 553 l 428 519 l 424 519 q 406 561 414 561 q 388 519 400 561 l 383 519 l 371 553 l 358 519 l 354 519 q 336 561 344 561 q 317 519 329 561 l 314 519 l 301 553 l 289 519 l 285 519 q 278 539 282 529 q 272 557 275 549 m 1144 550 q 1144 535 1143 543 q 1150 524 1144 528 q 1168 533 1165 518 q 1167 557 1171 547 q 1153 563 1161 567 q 1144 550 1144 560 m 1264 550 q 1263 535 1263 543 q 1269 524 1264 528 q 1287 533 1283 518 q 1286 557 1290 547 q 1272 563 1281 567 q 1264 550 1264 560 m 1063 551 q 1064 533 1060 543 q 1075 524 1068 524 q 1085 529 1081 524 l 1085 556 q 1073 563 1082 565 q 1063 551 1064 561 m 593 557 q 592 546 593 553 q 593 533 592 539 q 597 524 594 526 q 608 524 600 521 q 617 547 619 531 q 603 563 614 563 q 593 557 599 563 m 694 557 q 694 546 694 553 q 695 533 694 539 q 699 524 696 526 q 710 524 701 521 q 718 547 721 531 q 704 563 715 563 q 694 557 700 563 m 903 546 q 887 533 889 543 q 892 524 885 524 q 903 529 897 524 l 903 546 m 800 546 q 784 533 786 543 q 789 524 782 524 q 800 529 794 524 l 800 546 m 531 529 l 531 546 q 522 542 526 543 q 515 536 518 540 q 518 525 510 528 q 531 529 526 522 m 660 546 q 642 533 644 543 q 649 524 640 524 q 660 529 654 524 l 660 546 m 1194 519 q 1188 526 1188 519 q 1194 532 1188 532 q 1201 526 1201 532 q 1194 519 1201 519 m 488 519 q 481 526 481 519 q 488 532 481 532 q 494 526 494 532 q 488 519 494 519 m 736 401 l 736 408 l 913 408 l 913 401 l 736 401 m 1154 301 q 1165 278 1164 290 q 1160 255 1165 265 q 1144 238 1154 244 q 1122 232 1135 232 q 1094 243 1106 232 q 1084 267 1085 254 q 1089 290 1083 279 q 1104 306 1094 300 q 1126 313 1114 313 q 1154 301 1143 313 m 594 274 q 583 244 597 254 q 553 233 568 233 q 525 243 538 233 q 514 272 513 253 q 525 301 511 292 q 556 311 539 311 q 583 302 571 311 q 594 274 596 293 m 935 281 q 935 297 931 290 q 946 308 939 304 q 962 311 953 311 q 979 308 971 311 l 976 292 l 974 290 l 969 306 q 953 303 963 308 q 950 289 944 299 q 963 280 954 282 q 976 271 971 278 q 983 253 985 261 q 972 239 981 244 q 953 233 964 233 q 933 236 942 232 l 936 256 l 939 257 l 943 240 q 961 241 951 236 q 965 257 971 246 q 949 267 960 265 q 935 281 939 269 m 457 281 q 457 297 453 290 q 468 308 461 304 q 484 311 475 311 q 501 308 493 311 l 499 292 l 496 290 l 492 306 q 475 303 483 308 q 472 289 467 299 q 485 280 476 282 q 499 271 493 278 q 505 253 507 261 q 494 239 503 244 q 475 233 486 233 q 456 236 464 232 l 458 256 l 461 257 l 465 240 q 483 241 474 236 q 488 257 493 246 q 472 267 482 265 q 457 281 461 269 m 243 238 q 250 240 247 239 q 251 246 253 240 l 251 294 q 251 303 251 301 q 243 307 250 306 l 243 310 q 293 306 279 314 q 307 289 307 299 q 295 271 307 279 q 268 267 283 263 l 268 242 q 272 239 268 239 q 278 238 276 239 l 278 235 l 243 235 l 243 238 m 757 238 l 757 235 l 724 235 l 724 238 q 731 246 735 239 q 725 258 726 253 l 703 258 q 697 245 701 253 q 704 238 693 238 l 704 235 l 679 235 l 679 238 q 690 246 689 240 l 717 311 l 722 311 l 746 246 q 757 238 747 240 m 378 238 q 386 242 386 239 q 386 251 386 244 l 386 294 q 385 303 386 301 q 378 307 385 306 l 378 310 q 406 310 390 308 q 432 306 421 313 q 439 287 443 299 q 422 272 435 275 q 435 251 431 263 q 451 238 439 240 l 451 235 q 431 235 438 231 q 422 245 425 239 q 415 258 418 251 q 403 269 411 265 q 402 256 403 264 q 403 242 401 247 q 404 239 401 239 q 410 238 407 239 l 410 235 l 378 235 l 378 238 m 1282 294 l 1282 240 l 1303 240 l 1311 256 l 1314 257 l 1313 235 l 1258 235 l 1258 238 q 1266 242 1265 239 q 1267 251 1267 244 l 1267 294 q 1266 303 1267 301 q 1258 307 1265 306 l 1258 310 l 1290 310 l 1290 307 q 1283 303 1283 306 q 1282 294 1282 301 m 1354 310 l 1378 310 l 1379 307 q 1371 302 1375 307 q 1363 291 1367 297 q 1357 278 1360 285 q 1351 269 1354 272 l 1351 242 q 1354 239 1351 239 q 1358 238 1357 239 l 1360 235 l 1326 235 l 1326 238 q 1331 239 1328 239 q 1335 242 1335 239 l 1335 268 q 1330 278 1333 271 q 1323 291 1326 285 q 1315 302 1319 297 q 1306 307 1310 307 l 1306 310 l 1340 310 l 1342 307 q 1336 297 1331 306 l 1349 275 l 1358 296 q 1354 307 1364 306 l 1354 310 m 1038 240 l 1044 254 l 1047 256 l 1046 235 l 992 235 l 990 238 q 999 242 999 239 q 1000 251 1000 244 l 1000 294 q 999 303 1000 301 q 992 307 999 306 l 990 310 l 1046 310 l 1043 292 l 1040 292 l 1036 304 l 1015 304 l 1015 276 q 1026 276 1022 276 q 1032 285 1031 275 l 1036 285 l 1036 263 l 1032 261 q 1026 271 1031 272 q 1015 271 1022 269 l 1015 240 l 1038 240 m 914 310 l 926 310 l 926 307 q 917 295 917 307 q 917 270 917 283 q 913 245 918 257 q 888 233 908 233 q 860 244 865 233 q 855 269 854 256 q 856 295 856 283 q 847 307 857 307 l 847 310 l 879 310 l 881 307 q 872 303 874 306 q 871 294 871 301 q 872 269 872 286 q 876 244 871 251 q 893 239 886 239 q 904 245 900 239 q 910 260 908 251 q 910 278 911 268 q 910 294 910 288 q 909 303 910 301 q 901 307 908 306 l 901 310 l 914 310 m 1174 307 l 1174 310 l 1194 310 q 1202 301 1196 308 q 1215 284 1208 293 q 1228 267 1222 275 q 1235 260 1235 260 l 1235 294 q 1234 303 1235 301 q 1226 307 1233 306 l 1226 310 l 1250 310 l 1250 307 q 1242 303 1243 306 q 1242 294 1242 301 l 1242 235 l 1235 235 q 1227 245 1235 236 q 1211 265 1219 254 q 1196 284 1203 275 q 1189 293 1189 293 l 1189 251 q 1189 242 1189 244 q 1197 238 1189 239 l 1197 235 l 1174 235 l 1174 238 q 1181 242 1181 239 q 1182 251 1182 244 l 1182 294 q 1181 303 1182 301 q 1174 307 1181 306 m 367 235 l 311 235 l 311 238 q 318 240 315 239 q 319 246 321 240 l 319 294 q 319 303 321 301 q 311 307 318 306 l 311 310 l 367 310 l 364 292 l 360 292 l 357 304 l 336 304 l 336 276 q 347 276 343 276 q 353 285 351 275 l 357 285 q 356 273 356 276 q 357 263 356 269 l 353 261 q 347 271 351 272 q 336 271 343 269 l 336 240 l 358 240 l 364 254 l 368 256 l 367 235 m 815 235 l 761 235 l 761 238 q 769 242 769 239 q 769 251 769 244 l 769 294 q 769 303 769 301 q 761 307 768 306 l 761 310 l 793 310 l 793 307 q 786 303 786 306 q 786 294 786 301 q 785 267 786 288 q 786 240 785 247 l 807 240 l 814 256 l 817 257 l 815 235 m 603 238 q 608 239 604 239 q 611 242 611 239 l 611 294 q 610 303 611 301 q 603 307 610 306 l 603 310 l 624 310 q 631 301 625 308 q 644 284 638 293 q 658 267 651 275 q 664 260 664 260 l 664 294 q 663 303 664 301 q 656 307 663 306 l 656 310 l 679 310 l 681 307 q 672 303 674 306 q 671 294 671 301 l 671 235 l 665 235 q 657 245 664 236 q 642 265 650 254 q 626 284 633 275 q 618 293 618 293 l 618 251 q 619 242 618 244 q 626 238 619 239 l 626 235 l 603 235 l 603 238 m 1393 257 l 1388 308 l 1404 308 l 1397 257 l 1393 257 m 1107 299 q 1102 281 1103 292 q 1103 261 1101 271 q 1111 244 1106 251 q 1125 238 1117 238 q 1142 246 1133 238 q 1147 263 1146 253 q 1146 283 1149 274 q 1138 300 1143 293 q 1125 307 1133 307 q 1107 299 1115 307 m 571 246 q 576 263 575 253 q 575 283 578 274 q 567 300 572 293 q 554 307 563 307 q 536 299 544 307 q 531 281 532 292 q 533 261 531 271 q 540 244 535 251 q 554 238 546 238 q 571 246 563 238 m 268 272 q 283 274 278 268 q 289 288 289 281 q 284 301 289 296 q 268 304 279 307 l 268 272 m 403 275 q 417 278 413 272 q 422 290 422 283 q 417 302 422 297 q 403 304 413 307 l 403 275 m 722 264 q 718 277 721 267 q 714 290 715 288 q 710 277 713 288 q 706 264 707 267 l 722 264 m 1396 250 q 1403 242 1403 250 q 1396 233 1403 233 q 1388 242 1388 233 q 1396 250 1388 250 m 775 129 q 788 132 779 129 l 788 129 q 768 124 778 124 q 747 135 754 124 q 742 158 740 146 q 755 178 744 169 q 786 181 765 186 l 786 179 l 785 165 l 782 165 l 779 176 q 760 173 767 181 q 753 156 754 165 q 758 138 753 146 q 775 129 764 129 m 1146 129 q 1157 132 1149 129 l 1158 129 q 1139 124 1149 124 q 1118 135 1125 124 q 1113 158 1111 146 q 1126 178 1115 169 q 1157 181 1136 186 l 1157 179 l 1154 165 l 1153 165 l 1150 176 q 1131 173 1138 181 q 1124 156 1125 165 q 1129 138 1124 146 q 1146 129 1135 129 m 822 182 q 844 174 838 183 q 850 153 850 164 q 842 132 850 142 q 819 124 835 122 q 799 133 806 124 q 792 153 792 142 q 800 174 792 165 q 822 182 808 183 m 629 182 q 651 174 644 183 q 657 153 657 164 q 649 132 657 142 q 626 124 642 122 q 606 133 613 124 q 599 153 599 142 q 607 174 599 165 q 629 182 615 183 m 451 182 q 474 174 467 183 q 481 153 481 164 q 473 132 481 142 q 450 124 465 122 q 428 133 436 124 q 422 153 421 142 q 430 174 422 165 q 451 182 438 183 m 1243 129 l 1247 125 l 1222 125 l 1222 128 q 1226 133 1229 128 q 1224 143 1224 139 l 1207 143 q 1203 133 1206 139 q 1208 128 1200 128 l 1208 125 l 1190 125 l 1190 128 q 1197 133 1197 128 l 1218 181 l 1222 182 q 1225 172 1222 181 q 1231 153 1228 163 q 1238 137 1235 144 q 1243 129 1242 129 m 718 128 l 718 125 q 703 126 708 124 q 696 134 699 129 q 691 144 693 139 q 682 151 689 149 q 683 137 685 146 q 688 128 681 128 l 688 125 l 664 125 l 664 128 q 671 130 671 128 q 671 138 671 132 l 671 172 q 669 177 672 176 q 664 179 667 178 l 664 181 q 685 181 674 179 q 704 178 697 182 q 710 163 713 172 q 697 153 707 154 q 706 138 703 146 q 718 128 710 131 m 1108 128 l 1111 128 l 1111 125 q 1097 126 1101 124 q 1089 134 1092 129 q 1083 144 1086 139 q 1075 151 1081 149 q 1074 137 1076 146 q 1079 128 1072 128 l 1079 125 l 1057 125 l 1057 128 q 1063 130 1063 128 q 1063 138 1063 132 l 1063 172 q 1062 177 1064 176 q 1057 179 1060 178 l 1057 181 q 1077 181 1065 179 q 1097 178 1089 182 q 1101 163 1104 172 q 1090 153 1099 154 q 1099 138 1096 146 q 1108 128 1101 131 m 514 181 l 532 181 l 533 181 l 531 165 l 528 165 l 525 176 l 514 176 l 514 138 q 515 130 514 131 q 521 128 515 129 l 522 125 l 496 125 l 494 128 q 499 128 496 128 q 503 131 503 129 l 503 176 l 492 176 l 488 165 l 485 165 l 485 181 l 514 181 m 926 179 q 922 178 925 178 q 919 176 919 178 l 919 138 q 919 130 919 132 q 926 128 919 128 l 926 125 l 903 125 l 903 128 q 908 133 907 128 q 908 146 908 139 q 908 160 908 153 q 908 171 907 168 q 904 163 907 169 q 899 148 901 156 q 893 134 896 140 q 889 125 890 128 l 886 125 q 882 134 885 128 q 876 148 879 140 q 871 162 874 156 q 868 169 868 168 q 869 160 869 167 q 868 146 868 153 q 869 133 868 139 q 874 128 869 128 l 874 125 l 857 125 l 857 128 q 863 131 863 129 q 863 138 863 132 l 863 169 q 857 179 864 178 l 857 181 l 875 181 q 878 174 875 179 q 883 161 881 168 q 888 148 886 154 q 890 142 890 142 q 893 148 890 142 q 899 161 896 154 q 904 174 901 168 q 907 181 907 179 l 925 181 l 926 179 m 1189 179 q 1183 177 1186 178 q 1182 172 1181 176 l 1182 138 q 1182 131 1182 133 q 1189 128 1182 128 l 1189 125 l 1164 125 l 1164 128 q 1171 130 1171 128 q 1171 138 1171 132 l 1171 172 q 1169 177 1172 176 q 1164 179 1167 178 l 1164 181 l 1189 181 l 1189 179 m 407 181 l 415 181 l 415 179 q 410 169 408 178 l 410 125 l 404 125 q 399 133 404 126 q 387 147 393 139 q 376 161 381 154 q 371 168 371 168 l 371 138 q 371 130 371 132 q 376 128 371 128 l 376 125 l 360 125 l 360 128 q 365 131 365 129 q 365 138 365 132 l 365 169 q 365 176 365 175 q 360 179 365 178 l 360 181 l 375 181 q 380 174 375 179 q 390 161 385 168 q 399 149 394 154 q 404 143 404 143 l 404 169 q 399 179 404 178 l 397 181 l 407 181 m 1283 129 l 1290 142 l 1290 126 l 1289 125 l 1250 125 l 1250 128 q 1256 131 1256 128 q 1256 138 1256 133 l 1256 169 q 1256 176 1256 174 q 1250 179 1256 178 l 1250 181 l 1274 181 l 1274 179 q 1268 176 1268 178 q 1268 169 1268 174 l 1268 129 l 1283 129 m 575 181 l 594 181 l 592 167 l 590 167 l 588 176 l 572 176 l 572 154 q 581 155 578 156 q 585 161 583 154 l 588 161 l 588 144 l 585 144 q 581 151 583 151 q 572 151 578 150 l 572 131 q 575 128 572 129 q 579 128 578 128 l 579 125 l 554 125 l 554 128 q 561 131 561 129 q 561 138 561 132 l 561 172 q 560 177 563 176 q 554 179 557 178 l 554 181 l 575 181 m 1008 181 l 1049 181 l 1046 167 l 1044 167 l 1042 176 l 1026 176 l 1026 156 q 1035 156 1032 156 q 1039 163 1038 156 l 1042 163 q 1042 146 1040 153 l 1039 144 q 1035 151 1038 151 q 1026 151 1032 151 l 1026 129 l 1042 129 l 1047 140 l 1050 140 l 1049 126 l 1049 125 l 1008 125 l 1008 128 q 1014 130 1014 128 q 1014 138 1014 132 l 1014 172 q 1013 177 1015 176 q 1008 179 1011 178 l 1008 181 m 1001 179 q 997 178 1000 178 q 994 176 994 178 l 994 138 q 994 130 994 132 q 1001 128 994 128 l 1001 125 l 978 125 l 978 128 q 983 133 982 128 q 983 146 983 139 q 983 160 983 153 q 983 171 982 168 q 981 163 983 169 q 974 148 978 156 q 968 134 971 140 q 965 125 965 128 l 961 125 q 958 134 961 128 q 952 148 956 140 q 946 162 949 156 q 943 169 943 168 q 944 160 944 167 q 943 146 943 153 q 944 133 943 139 q 949 128 944 128 l 949 125 l 932 125 l 932 128 q 939 131 939 129 q 939 138 939 132 l 939 169 q 932 179 939 178 l 932 181 l 951 181 q 953 174 951 179 q 958 161 956 168 q 964 148 961 154 q 967 142 967 142 q 969 148 967 142 q 974 161 971 154 q 979 174 976 168 q 982 181 982 179 l 1001 181 l 1001 179 m 464 133 q 467 162 471 144 q 451 179 463 179 q 439 172 446 179 q 436 144 432 161 q 451 128 440 128 q 464 133 458 128 m 640 133 q 643 162 647 144 q 628 179 639 179 q 615 172 622 179 q 613 144 608 161 q 628 128 617 128 q 640 133 635 128 m 833 133 q 836 162 840 144 q 821 179 832 179 q 808 172 815 179 q 806 144 801 161 q 821 128 810 128 q 833 133 828 128 m 694 157 q 697 172 700 164 q 682 176 693 179 l 682 154 q 694 157 692 154 m 1086 157 q 1088 172 1092 164 q 1075 176 1085 179 l 1075 154 q 1086 157 1085 154 m 1222 147 q 1219 156 1221 150 q 1215 165 1217 163 q 1212 156 1214 163 q 1208 147 1210 150 l 1222 147 z "},"5":{"ha":764,"x_min":67,"x_max":713,"o":"m 632 394 q 640 313 643 357 q 621 228 636 268 q 507 72 585 132 q 329 -3 429 13 q 279 -6 310 -6 q 229 -6 249 -7 q 153 8 189 -1 q 99 29 117 18 q 79 76 67 51 q 139 110 92 101 q 165 112 150 113 q 192 108 179 111 q 209 104 203 106 q 228 96 215 103 q 251 90 236 92 q 278 89 265 88 q 353 117 318 93 q 413 176 388 142 q 452 252 438 211 q 467 331 467 293 q 415 458 467 403 q 374 490 396 478 q 338 499 353 501 q 299 485 322 497 q 253 453 276 472 q 211 426 228 433 q 165 418 194 419 q 140 419 154 418 q 113 425 126 421 q 88 437 99 429 q 74 456 78 444 q 72 465 72 460 q 74 485 71 469 q 83 529 76 500 q 100 610 89 558 q 116 681 107 644 q 129 736 125 718 q 137 774 133 756 q 144 812 140 792 q 153 855 149 832 q 163 908 157 878 q 171 960 168 944 q 176 978 174 975 q 222 1006 188 997 q 258 1009 235 1010 q 293 1006 281 1008 q 383 984 336 989 q 474 976 429 979 q 513 977 494 975 q 567 986 531 979 q 596 991 586 990 q 621 992 606 992 q 642 992 635 992 q 657 989 650 992 q 706 953 700 978 q 676 911 713 929 q 653 903 665 906 q 615 894 642 900 q 574 888 599 892 q 521 880 549 883 q 466 874 493 876 q 418 868 439 871 q 384 865 393 867 q 364 857 375 863 q 329 824 340 843 q 314 779 318 806 q 306 744 311 768 q 296 699 300 721 q 286 658 290 676 q 281 636 282 639 q 293 597 276 610 q 303 594 296 594 q 339 594 310 594 q 434 581 388 594 q 520 543 481 568 q 589 481 560 518 q 632 394 618 443 z "},"6":{"ha":764,"x_min":61,"x_max":701,"o":"m 300 -14 q 210 15 251 -8 q 138 75 168 38 q 78 199 96 128 q 72 356 61 269 q 94 463 78 403 q 132 575 110 522 q 138 590 135 582 q 144 603 142 597 q 194 710 163 649 q 267 826 225 771 q 360 919 308 881 q 469 957 411 957 q 513 950 493 957 q 544 931 533 943 q 553 907 556 918 q 517 872 547 886 q 449 816 482 856 q 386 727 415 776 q 334 628 357 678 q 296 540 311 578 q 288 513 289 521 q 292 501 286 504 q 297 500 294 499 q 314 511 300 501 q 392 549 350 536 q 478 563 433 563 q 634 506 574 563 q 699 354 694 450 q 681 233 701 294 q 619 122 660 172 q 518 35 572 67 q 390 -11 464 3 q 372 -13 385 -12 q 344 -15 358 -14 q 318 -15 331 -15 q 300 -14 306 -15 m 331 318 q 290 225 303 274 q 283 146 276 176 q 299 110 289 122 q 333 92 310 99 q 349 88 344 89 q 364 89 354 88 q 403 107 383 93 q 443 142 424 121 q 479 188 463 163 q 506 242 496 214 q 525 349 526 296 q 500 438 524 403 q 471 458 489 457 q 462 458 464 458 q 454 454 460 457 q 422 430 440 447 q 386 392 404 413 q 353 352 368 372 q 331 318 339 332 z "},"7":{"ha":714,"x_min":35,"x_max":683,"o":"m 676 924 q 679 900 683 910 q 657 872 675 890 q 580 763 615 824 q 514 638 544 703 q 458 506 483 572 q 411 376 433 439 q 372 272 390 324 q 338 167 354 219 q 320 113 329 139 q 308 78 311 88 q 301 56 303 64 q 299 40 300 47 q 296 25 297 29 q 288 14 294 21 q 256 -1 276 4 q 226 -6 244 -4 q 196 -4 207 -7 q 135 22 157 0 q 122 46 122 33 q 131 86 121 58 q 149 142 138 106 q 174 218 161 178 q 184 251 179 236 q 194 282 189 265 q 208 319 200 299 q 226 368 215 339 q 244 413 236 392 q 260 456 251 433 q 281 508 269 479 q 307 576 292 536 q 354 688 331 638 q 403 783 378 738 q 421 818 421 813 q 401 832 421 832 q 374 830 396 832 q 324 825 351 828 q 268 819 296 822 q 224 814 240 817 q 172 810 197 810 q 122 815 147 811 q 81 827 94 822 q 61 840 68 832 q 103 894 35 871 q 126 900 114 897 q 157 906 139 903 q 201 911 175 908 q 264 918 226 914 q 308 923 292 921 q 337 926 324 925 q 365 930 350 928 q 403 935 379 932 q 478 946 451 942 q 531 957 504 950 q 567 963 553 961 q 597 963 582 964 q 623 958 613 961 q 646 950 633 956 q 676 924 669 938 z "},"8":{"ha":676,"x_min":74,"x_max":613,"o":"m 472 431 q 531 385 503 410 q 575 338 558 360 q 603 278 594 310 q 607 217 613 246 q 570 135 600 174 q 499 67 540 97 q 413 17 458 38 q 326 -10 367 -3 q 305 -13 318 -12 q 278 -15 292 -14 q 251 -15 264 -15 q 232 -12 239 -14 q 172 5 196 -7 q 129 36 149 17 q 101 76 110 54 q 89 125 92 99 q 96 226 85 169 q 132 344 107 282 q 140 365 136 357 q 146 379 143 372 q 153 393 149 386 q 163 413 157 400 l 175 440 l 175 458 q 174 474 175 468 q 171 488 174 481 q 161 503 168 494 q 143 526 154 513 q 102 590 118 558 q 79 654 86 622 q 75 692 76 667 q 76 732 74 717 q 96 814 82 781 q 135 879 110 847 q 242 951 174 925 q 379 971 310 978 q 475 944 435 967 q 532 888 515 922 q 542 863 539 875 q 544 829 544 850 q 525 709 544 768 q 482 596 506 650 q 455 526 467 558 q 440 483 443 494 q 444 457 438 468 q 472 431 450 446 m 268 799 q 251 735 257 772 q 251 671 246 699 q 267 623 256 647 q 288 594 278 599 q 300 596 296 592 q 310 614 303 599 q 325 649 317 629 q 341 690 333 668 q 353 726 349 711 q 365 784 360 754 q 372 828 371 814 q 368 854 372 843 q 357 867 364 865 q 343 865 353 868 q 322 857 333 863 q 268 799 288 839 m 393 158 q 435 250 442 204 q 423 283 432 267 q 401 313 414 299 q 374 340 389 328 q 344 357 358 351 q 335 362 338 361 q 328 361 332 363 q 318 356 319 358 q 310 342 315 354 q 298 313 304 329 q 285 277 292 296 q 275 243 279 258 q 262 163 264 201 q 268 110 260 124 q 279 101 274 103 q 296 99 285 99 q 308 100 304 99 q 322 107 313 101 q 393 158 360 125 z "},"9":{"ha":739,"x_min":65,"x_max":672,"o":"m 296 6 q 258 -6 281 -4 q 215 -4 235 -8 q 168 24 183 4 q 164 65 153 43 q 175 83 165 69 q 197 114 185 97 q 228 156 204 124 q 279 226 253 189 q 326 294 306 263 q 346 332 346 325 q 335 350 346 344 q 326 353 329 353 q 314 351 324 353 q 156 382 222 336 q 103 440 126 403 q 71 518 81 476 q 67 560 68 533 q 68 606 65 586 q 100 728 74 668 q 168 835 126 788 q 265 915 210 883 q 385 954 321 946 q 404 956 392 956 q 431 957 417 957 q 457 956 444 957 q 478 954 469 956 q 627 876 582 935 q 672 717 672 817 q 642 556 672 640 q 567 388 613 471 q 471 228 522 304 q 375 94 419 153 q 342 51 354 67 q 323 27 331 36 q 310 14 315 18 q 296 6 304 10 m 318 479 q 400 551 361 508 q 464 639 439 593 q 481 671 474 654 q 490 699 488 688 q 495 734 493 717 q 494 765 497 751 q 476 822 492 794 q 428 849 461 849 q 391 839 411 849 q 352 815 371 829 q 318 783 333 800 q 294 754 303 767 q 267 700 281 733 q 247 636 254 667 q 240 576 240 606 q 246 524 239 547 q 260 490 253 500 q 282 474 268 479 q 300 471 293 469 q 318 479 307 472 z "},"\u0000":{"ha":0,"x_min":0,"x_max":0,"o":""},"\r":{"ha":0,"x_min":0,"x_max":0,"o":""}," ":{"ha":403,"x_min":0,"x_max":0,"o":""},"\n":{"ha":0,"x_min":0,"x_max":0,"o":""},"!":{"ha":358,"x_min":78,"x_max":281,"o":"m 279 921 q 278 856 281 907 q 272 726 276 804 q 266 527 267 626 q 265 328 265 428 q 218 289 265 303 q 183 284 207 285 q 147 286 160 283 q 94 318 106 294 l 90 326 l 92 469 q 93 605 92 538 q 100 740 94 672 q 102 788 101 763 q 104 838 103 813 q 106 885 106 863 q 107 924 107 907 q 109 949 107 942 q 119 964 111 956 q 148 980 131 975 q 185 985 165 985 q 247 972 218 985 q 279 921 276 958 m 215 221 q 243 208 231 215 q 260 192 256 200 q 263 178 263 185 q 261 156 264 171 q 258 135 260 147 q 256 110 257 124 q 253 84 254 96 q 253 64 253 72 q 252 49 253 53 q 249 42 251 46 q 181 10 232 14 q 164 8 168 8 q 149 10 160 8 q 82 42 97 17 q 78 61 78 47 q 78 70 78 65 q 79 78 78 75 q 81 102 79 86 q 84 135 82 118 q 89 168 86 153 q 94 190 92 183 q 115 210 100 201 q 149 222 129 218 q 183 224 161 225 q 215 221 204 224 z "},"\"":{"ha":544,"x_min":50,"x_max":492,"o":"m 293 911 q 282 886 292 904 q 257 842 272 868 q 236 806 242 817 q 228 788 231 794 q 178 750 221 761 q 148 747 168 747 q 117 747 128 746 q 68 767 86 753 q 53 800 50 781 q 93 872 56 813 q 105 894 99 882 q 115 913 111 906 q 153 956 133 946 q 210 965 174 965 q 235 963 229 964 q 250 960 240 963 q 285 940 274 953 q 293 911 297 926 m 489 906 q 490 892 492 899 q 481 869 488 885 q 472 851 476 863 q 463 832 467 840 q 453 813 458 824 q 443 794 447 801 q 435 780 439 788 q 429 768 432 772 q 407 742 419 749 q 374 729 394 735 q 347 726 363 726 q 321 728 332 725 q 291 736 306 731 q 269 749 276 742 q 256 775 256 761 q 258 788 256 782 q 271 813 260 793 q 285 836 276 819 q 300 869 293 853 q 319 904 310 890 q 339 928 328 918 q 366 942 350 938 q 406 946 382 946 q 428 944 415 946 q 453 937 442 942 q 475 924 465 932 q 489 906 485 917 z "},"#":{"ha":1032,"x_min":63,"x_max":967,"o":"m 957 656 q 967 607 967 636 q 956 558 967 578 q 945 544 951 551 q 932 535 939 538 q 888 533 925 533 q 813 536 851 533 q 777 538 783 538 q 765 535 771 538 q 725 482 742 524 q 713 450 714 456 q 713 439 711 444 q 716 432 714 435 q 726 428 718 429 q 750 426 735 426 q 792 425 765 425 q 901 413 885 424 q 933 344 933 392 q 896 279 933 297 l 886 274 l 850 275 q 806 276 835 275 q 751 276 776 276 q 699 278 711 278 q 681 276 686 278 q 647 258 660 271 q 638 242 642 253 q 618 193 633 232 q 597 132 607 161 q 583 99 586 103 q 561 81 579 88 q 522 78 543 75 q 478 92 500 81 q 449 115 457 103 q 442 135 442 126 q 449 164 442 144 q 464 205 458 190 q 472 228 469 219 q 474 241 474 236 q 475 254 475 246 q 474 271 475 267 q 471 278 474 275 q 464 283 468 283 l 435 283 q 408 281 414 282 q 394 272 401 279 q 384 256 389 265 q 378 240 379 247 q 371 215 376 232 q 359 181 365 199 q 348 147 353 163 q 342 126 343 131 q 323 103 335 108 q 292 97 311 97 q 250 104 272 97 q 213 125 228 111 q 199 174 188 147 q 206 193 201 181 q 219 236 210 206 q 219 286 232 276 q 201 289 218 288 q 164 292 185 290 q 124 294 143 293 q 97 294 104 294 q 85 304 90 297 q 67 338 72 317 q 63 379 63 358 q 72 417 64 400 q 92 440 79 435 q 98 442 94 442 q 115 443 101 443 q 153 442 128 443 q 222 440 178 442 q 254 439 249 439 q 267 442 260 439 q 306 500 290 454 q 310 535 314 528 q 298 543 306 542 q 267 543 290 544 q 236 542 256 542 q 201 542 217 542 q 162 543 169 542 q 147 554 154 544 q 128 621 128 575 q 134 663 128 644 q 153 688 140 681 q 177 691 156 690 q 224 692 199 692 q 272 693 249 693 q 301 693 294 693 l 353 696 l 361 701 q 390 728 379 708 q 397 742 392 731 q 408 769 401 754 q 420 800 414 783 q 432 831 426 817 q 438 848 435 838 q 443 865 440 858 q 449 885 447 881 q 458 893 451 889 q 488 901 469 900 q 524 897 506 903 q 551 886 536 894 q 574 871 565 878 q 586 856 582 863 q 589 838 590 849 q 583 811 588 828 q 567 765 578 794 q 557 737 560 746 q 553 721 554 728 q 553 710 553 713 q 557 703 554 707 q 564 697 563 697 q 593 694 567 694 l 618 693 l 629 697 q 647 713 639 701 q 657 732 653 721 q 675 779 661 743 q 698 840 690 819 q 710 870 706 860 q 719 884 715 881 q 728 892 722 888 q 771 907 747 907 q 819 892 794 907 q 850 853 844 878 q 851 831 853 842 q 842 800 850 821 q 825 753 832 771 q 815 726 818 736 q 811 713 813 717 q 810 708 810 710 q 815 696 810 704 q 820 690 818 692 q 826 686 822 688 q 856 683 835 683 q 901 683 878 682 q 926 683 921 683 q 936 681 932 683 q 957 656 946 676 m 550 450 q 559 467 554 456 q 568 490 564 478 q 575 513 572 503 q 578 528 578 524 q 560 544 578 542 q 546 544 556 544 q 526 544 536 544 q 506 544 515 544 q 493 542 496 543 q 478 531 483 539 q 463 497 472 522 q 451 451 450 461 q 468 436 453 440 q 484 433 479 433 q 507 433 489 433 q 523 433 515 432 q 532 435 531 433 q 550 450 543 438 z "},"$":{"ha":614,"x_min":69,"x_max":542,"o":"m 363 593 q 365 618 361 600 q 371 665 371 646 q 365 707 371 685 q 358 730 361 724 q 353 739 356 736 q 329 740 344 746 q 312 727 324 738 q 293 707 300 717 q 283 596 253 654 q 319 545 294 574 q 369 497 344 517 q 417 460 399 475 q 449 431 436 444 q 472 407 463 418 q 490 382 482 396 q 524 287 518 338 q 510 199 529 236 q 407 114 482 146 q 394 107 399 110 q 383 99 390 104 q 374 85 378 92 q 367 71 369 79 q 364 49 365 63 q 361 15 363 36 q 358 -17 360 -3 q 357 -33 357 -31 q 318 -62 350 -56 q 292 -65 307 -65 q 265 -62 276 -65 q 224 -47 246 -58 q 192 -18 201 -36 q 188 -3 189 -11 q 189 40 186 6 q 188 76 189 63 q 185 100 188 90 q 175 116 182 110 q 157 131 168 122 q 110 175 131 147 q 79 235 90 203 q 69 293 69 265 q 79 372 69 321 q 101 415 86 404 q 150 425 117 425 q 178 422 163 425 q 208 414 193 419 q 235 399 222 408 q 253 379 247 390 q 254 351 258 367 q 250 338 251 347 q 246 317 249 328 q 251 219 233 256 q 264 208 254 213 q 285 204 274 204 q 326 225 306 204 q 347 253 342 240 q 351 290 351 267 q 344 340 351 318 q 322 379 336 361 q 291 412 308 397 q 253 442 274 426 q 202 485 228 461 q 155 535 176 508 q 118 592 133 563 q 99 656 103 622 q 131 761 92 706 q 161 794 140 775 q 203 828 182 813 q 243 893 235 849 q 246 909 246 903 q 243 935 246 915 q 240 959 240 954 q 243 969 240 964 q 297 1001 249 989 q 327 1005 310 1004 q 356 1003 344 1006 q 408 954 404 990 q 410 942 410 950 q 413 926 411 933 q 456 826 425 847 q 515 755 496 796 q 540 665 533 714 q 541 637 542 653 q 538 606 540 621 q 533 577 536 590 q 526 558 531 564 q 492 536 515 543 q 479 533 485 533 q 461 532 474 532 q 431 535 447 532 q 399 547 414 539 q 375 565 385 554 q 363 593 365 576 z "},"%":{"ha":926,"x_min":61,"x_max":860,"o":"m 571 513 q 548 476 563 500 q 515 421 533 451 q 474 356 496 390 q 432 288 453 321 q 389 219 411 254 q 347 153 367 185 q 310 94 326 121 q 285 53 294 68 q 232 -26 236 -24 q 208 -37 224 -33 q 175 -37 192 -40 q 127 -24 149 -35 q 90 1 106 -14 q 78 42 71 21 q 96 71 79 44 q 135 133 113 97 q 240 302 194 231 q 319 430 285 374 q 383 532 354 486 q 440 623 413 578 q 498 716 468 668 q 567 825 528 764 q 617 906 597 874 q 651 960 638 939 q 671 990 664 981 q 679 1001 678 1000 q 698 1013 689 1010 q 726 1015 707 1015 q 759 1013 746 1015 q 790 1000 772 1010 q 818 981 806 993 q 835 938 842 957 q 817 907 835 936 q 774 835 800 878 q 716 742 747 793 q 656 645 685 692 q 603 563 626 599 q 571 513 579 526 m 128 578 q 70 671 79 608 q 94 800 61 733 q 172 887 121 857 q 285 917 222 917 q 385 894 344 917 q 442 829 426 871 q 444 717 461 779 q 415 645 436 679 q 365 590 393 611 q 214 551 301 543 q 167 560 190 553 q 128 578 143 567 m 243 697 q 246 672 240 669 q 250 679 247 675 l 257 693 q 272 731 268 715 q 276 769 276 747 q 274 792 276 790 q 264 776 272 793 q 243 697 243 738 m 832 374 q 852 324 844 357 q 857 260 860 292 q 838 181 856 217 q 793 118 821 144 q 728 76 765 92 q 649 61 690 61 l 618 61 q 530 103 565 69 q 483 189 494 136 q 481 204 483 193 q 479 220 479 210 q 479 242 479 231 q 480 264 479 253 q 482 281 481 275 q 556 406 497 361 q 694 451 614 451 q 769 435 736 451 q 821 390 801 419 q 826 381 824 386 q 832 374 829 376 m 679 197 q 688 253 689 224 q 675 310 686 282 q 669 323 671 321 q 664 325 667 325 q 657 315 660 326 q 651 291 653 301 q 650 264 649 281 q 651 243 650 250 q 654 225 651 236 q 665 195 658 208 q 674 183 671 182 q 679 197 676 183 z "},"&":{"ha":850,"x_min":68,"x_max":783,"o":"m 708 450 q 690 433 693 438 q 688 424 688 429 q 689 417 688 419 q 697 407 690 414 q 744 345 725 378 q 771 281 764 313 q 774 251 774 269 q 771 219 774 232 q 714 113 761 158 q 611 46 667 67 q 578 37 597 42 q 540 29 560 32 q 497 25 524 26 q 460 25 471 24 q 337 47 400 29 q 219 98 274 65 q 126 178 165 131 q 72 293 86 226 q 68 337 68 310 q 71 381 68 364 q 122 500 86 451 q 217 590 158 549 l 238 606 l 225 618 q 172 688 193 650 q 144 765 151 726 q 142 801 142 781 q 144 832 142 821 q 175 899 153 871 q 239 954 197 928 q 342 979 286 983 q 425 951 386 974 q 493 895 464 929 q 541 819 522 861 q 564 735 560 778 q 550 676 568 689 q 531 672 543 672 q 508 675 519 671 q 476 690 492 679 q 447 715 460 700 q 427 747 435 729 q 419 781 419 764 q 413 829 419 815 q 378 840 403 850 q 322 803 347 826 q 289 746 297 779 q 287 733 288 738 q 289 718 286 728 q 300 679 292 688 q 317 670 304 675 q 350 660 331 665 q 379 650 372 656 q 417 626 397 643 q 446 593 436 608 q 457 556 457 574 q 446 529 457 538 q 439 526 443 528 q 428 521 435 524 q 383 499 408 514 q 332 465 357 483 q 286 426 307 446 q 254 389 265 406 q 233 352 243 372 q 221 319 224 332 q 214 255 211 286 q 229 208 217 224 q 260 190 238 200 q 304 174 282 181 q 355 164 336 167 q 403 161 374 161 q 450 163 433 161 q 489 172 467 165 q 536 192 513 179 q 580 224 560 206 q 613 267 600 243 q 628 315 626 290 q 617 344 629 338 q 596 347 611 347 q 583 344 588 346 q 571 340 578 343 q 538 292 542 325 q 528 263 536 274 q 501 253 521 253 q 442 277 471 253 q 400 328 413 301 q 404 413 382 367 q 438 459 415 438 q 504 511 460 481 q 553 546 526 526 q 592 576 579 565 q 613 601 603 588 q 628 631 622 615 q 635 658 633 643 q 639 680 636 674 q 650 690 642 686 q 682 692 663 696 q 719 675 701 688 q 743 656 731 668 q 763 633 756 644 q 779 569 783 601 q 756 506 775 538 q 708 450 736 474 z "},"'":{"ha":325,"x_min":49,"x_max":272,"o":"m 272 929 q 269 914 272 922 q 256 889 267 906 q 245 871 251 883 q 232 847 239 858 q 197 803 215 814 q 142 793 178 793 q 123 792 131 792 q 114 793 115 792 q 66 813 83 799 q 51 842 49 826 q 60 864 53 849 q 78 897 68 879 q 97 931 88 915 q 113 953 107 947 q 131 965 119 958 q 154 974 142 971 q 188 976 165 976 q 224 972 211 975 q 256 958 239 968 q 272 929 272 949 z "},"(":{"ha":493,"x_min":74,"x_max":449,"o":"m 444 979 q 448 971 447 974 q 449 961 449 968 q 446 950 447 954 q 439 938 444 946 q 414 892 429 919 q 386 842 399 865 q 372 814 379 829 q 357 789 364 799 q 310 688 333 746 q 272 569 288 631 q 248 445 257 506 q 242 344 239 385 q 247 265 243 307 q 259 182 251 224 q 280 101 267 140 q 314 29 293 63 q 326 5 324 13 q 329 -10 329 -3 q 274 -42 329 -42 q 224 -32 250 -42 q 181 -6 197 -22 q 142 55 160 15 q 110 139 124 94 q 88 228 96 183 q 78 304 79 272 q 76 317 76 311 q 75 325 76 322 q 74 347 75 331 q 74 382 74 363 q 74 419 74 401 q 75 444 75 436 q 90 547 79 492 q 116 656 100 601 q 152 763 132 711 q 197 853 172 814 q 208 874 201 860 q 222 900 215 888 q 290 1017 278 1004 q 333 1032 306 1031 q 400 1018 367 1033 q 444 979 433 1003 z "},")":{"ha":453,"x_min":58,"x_max":376,"o":"m 375 561 q 376 538 375 557 q 376 494 376 518 q 376 447 376 469 q 376 415 376 425 q 341 235 369 328 q 268 65 313 142 q 200 -11 226 -1 q 175 -15 190 -15 q 146 -12 160 -15 q 119 -5 135 -11 q 91 10 104 1 q 68 31 78 19 q 58 57 58 43 q 61 69 58 64 q 76 88 64 75 q 122 156 101 114 q 160 244 143 197 q 188 336 176 290 q 204 417 200 382 q 208 451 207 431 q 209 494 208 471 q 210 543 210 518 q 208 593 210 568 q 199 690 206 638 q 182 778 192 742 q 167 826 176 799 q 149 879 158 853 q 129 928 139 906 q 111 965 119 951 q 102 983 104 976 q 100 997 100 989 q 113 1022 100 1013 q 147 1031 126 1031 q 208 1015 174 1031 q 252 984 236 1003 q 286 925 268 965 q 344 759 322 842 q 374 586 367 676 q 374 571 374 578 q 375 561 375 564 z "},"*":{"ha":826,"x_min":61,"x_max":764,"o":"m 693 593 q 740 550 719 581 q 763 488 760 519 q 754 453 764 465 q 740 443 751 447 q 724 440 733 440 q 682 442 714 440 q 635 442 649 442 q 619 439 622 442 q 619 431 619 439 q 631 415 621 426 q 672 375 640 404 q 695 347 689 360 q 704 313 701 335 q 704 276 707 294 q 695 242 701 257 q 680 215 689 226 q 660 201 671 204 q 649 199 653 199 q 639 204 646 200 q 629 211 635 207 q 618 219 624 215 q 581 256 607 231 q 527 308 556 282 q 474 357 499 335 q 439 383 449 379 q 428 389 431 388 q 419 389 425 390 q 407 383 413 389 q 390 365 404 382 q 357 325 376 349 q 315 275 331 293 q 292 248 300 257 q 281 236 283 239 q 275 232 278 233 q 256 228 267 228 q 219 237 239 228 q 183 260 200 246 q 156 292 167 275 q 144 328 144 310 q 145 337 144 333 q 150 347 146 340 q 163 363 154 353 q 186 392 171 374 q 217 429 211 422 q 221 439 222 436 q 214 443 219 442 q 188 444 208 444 q 114 466 147 447 q 65 525 81 485 q 62 550 63 536 q 64 571 61 564 q 74 586 67 578 q 90 597 82 594 q 103 602 97 601 q 136 601 110 603 q 200 607 194 601 q 199 613 203 610 q 185 628 196 615 q 163 653 169 643 q 151 681 157 664 q 148 697 149 692 q 147 717 147 703 q 155 763 147 738 q 183 800 163 789 q 221 797 201 810 q 244 777 224 794 q 289 736 264 760 q 333 693 313 713 q 358 671 354 674 q 393 653 376 653 q 399 653 396 653 q 404 654 403 654 q 428 683 407 657 q 472 743 449 710 q 515 802 500 783 q 536 824 529 821 q 569 826 550 832 q 603 814 586 824 q 635 790 621 804 q 658 761 649 776 q 668 732 667 746 q 665 714 668 721 q 649 690 661 707 q 615 644 631 667 q 596 614 599 621 q 594 606 594 608 q 599 601 594 603 q 616 599 604 600 q 649 599 628 599 q 680 597 674 597 q 693 593 686 596 z "},"+":{"ha":738,"x_min":53,"x_max":686,"o":"m 614 481 q 662 438 642 465 q 683 386 682 411 q 669 357 686 365 l 661 353 l 565 351 q 451 340 460 351 q 446 324 447 333 q 444 315 444 319 q 444 300 444 310 q 445 272 444 290 q 447 222 446 254 q 451 166 450 186 q 451 135 451 146 q 450 122 451 125 q 446 115 449 118 q 418 104 439 104 q 386 112 403 104 q 354 131 369 119 q 328 158 339 143 q 311 186 317 172 q 309 193 310 190 q 308 206 308 196 q 306 237 307 217 q 301 294 304 257 q 298 324 300 315 q 289 340 296 333 q 283 346 286 344 q 274 349 281 347 q 254 350 267 350 q 218 350 242 350 q 174 350 193 350 q 151 351 156 350 q 131 358 143 354 q 111 369 119 363 q 90 388 101 376 q 72 408 78 400 q 53 457 53 436 q 69 486 53 478 l 78 490 l 174 490 q 228 491 208 490 q 257 492 247 492 q 270 492 267 492 q 275 494 274 493 q 289 524 289 504 q 288 558 289 528 q 283 624 286 588 q 280 688 281 660 q 279 721 279 717 q 313 746 286 746 q 347 738 329 746 q 382 715 365 729 q 410 683 399 700 q 424 646 422 665 q 425 637 425 643 q 425 624 425 631 q 427 599 426 617 q 429 563 428 582 q 431 536 431 546 q 433 522 432 526 q 434 515 433 517 q 436 510 435 513 q 457 494 446 497 q 476 492 463 493 q 525 492 489 492 q 565 491 550 492 q 588 490 579 490 q 601 487 596 489 q 614 481 607 485 z "},",":{"ha":336,"x_min":46,"x_max":286,"o":"m 286 113 q 279 91 286 104 q 251 46 272 78 q 227 13 238 25 q 208 -8 217 0 q 189 -21 199 -17 q 167 -28 179 -25 q 142 -31 157 -31 q 121 -31 128 -32 q 50 10 58 -22 q 60 39 46 22 q 71 55 64 44 q 86 77 78 65 q 101 100 94 89 q 113 118 108 111 q 126 137 119 131 q 144 150 133 143 q 169 158 156 156 q 199 161 182 161 q 225 159 210 161 q 253 151 240 157 q 276 137 267 146 q 286 113 286 128 z "},"-":{"ha":593,"x_min":35,"x_max":544,"o":"m 479 526 q 513 499 499 515 q 535 465 526 482 q 544 431 543 447 q 536 407 544 415 q 528 401 532 403 q 516 399 525 400 q 489 397 507 397 q 438 397 471 397 l 381 397 q 357 397 368 397 q 326 398 356 397 q 254 399 296 399 q 190 399 213 399 q 154 401 167 400 q 136 403 142 401 q 124 408 131 406 q 87 436 104 419 q 60 472 69 453 q 65 539 35 521 q 69 541 68 540 q 91 542 71 542 q 158 541 111 542 q 296 540 204 540 q 394 540 361 540 q 444 538 428 539 q 465 535 460 538 q 479 526 471 532 z "},".":{"ha":286,"x_min":54,"x_max":232,"o":"m 231 54 q 231 40 232 43 q 228 31 231 38 q 182 0 219 11 q 151 -4 171 -3 q 121 -4 132 -6 q 80 11 97 0 q 60 33 63 22 q 58 47 60 36 q 56 70 57 57 q 55 97 56 83 q 54 124 54 111 q 55 145 54 140 q 58 156 56 150 q 77 176 64 167 q 107 190 90 186 q 138 192 118 193 q 168 189 157 192 q 218 160 208 178 q 229 106 228 142 q 230 75 229 90 q 231 54 231 60 z "},"/":{"ha":625,"x_min":47,"x_max":582,"o":"m 575 1015 q 581 1003 579 1008 q 581 990 582 997 q 576 970 581 982 q 565 939 572 958 q 510 794 536 867 q 460 647 483 722 q 428 557 444 604 q 404 486 413 510 q 382 430 394 463 q 361 374 369 397 q 340 315 353 351 q 312 241 326 279 q 283 167 297 203 q 260 106 269 131 q 234 45 244 69 q 217 14 224 21 q 185 -7 206 0 q 167 -10 178 -10 q 149 -10 156 -11 q 107 -1 126 -8 q 64 25 81 10 q 47 56 47 40 q 57 79 47 68 q 66 93 61 83 q 81 126 71 103 q 106 188 90 149 q 146 292 121 228 q 197 428 172 360 q 247 565 222 496 q 267 621 254 581 q 296 703 281 661 q 318 770 308 742 q 336 822 328 799 q 352 865 344 844 q 368 908 360 886 q 382 946 374 924 q 397 986 390 968 q 410 1019 404 1004 q 417 1036 415 1033 q 444 1061 426 1054 q 481 1068 461 1068 q 535 1055 508 1068 q 575 1015 563 1042 z "},":":{"ha":307,"x_min":63,"x_max":244,"o":"m 244 689 l 243 653 q 242 625 242 638 q 240 610 242 613 q 233 597 239 603 q 221 586 228 590 q 183 572 206 576 q 140 571 160 568 q 101 580 121 572 q 72 604 82 588 q 69 615 69 608 q 69 649 69 621 q 72 691 69 682 q 82 708 74 700 q 116 728 94 724 q 156 732 138 732 q 203 725 176 732 q 240 697 229 718 l 244 689 m 139 493 q 192 488 167 496 q 228 465 217 479 q 233 458 231 461 q 235 448 235 454 q 236 431 236 442 q 236 400 236 419 q 235 358 235 368 q 232 344 235 349 q 188 314 222 322 q 151 310 175 311 q 115 313 128 310 q 67 342 79 324 l 63 350 l 63 397 q 65 448 63 438 q 74 467 67 458 q 139 493 96 489 z "},";":{"ha":368,"x_min":54,"x_max":306,"o":"m 188 572 q 151 584 167 575 q 131 604 136 593 q 126 624 128 610 q 128 668 125 639 q 132 700 129 690 q 143 717 135 710 q 160 726 150 721 q 182 733 171 731 q 216 736 193 736 q 253 733 239 736 q 299 703 288 722 q 301 691 301 699 q 300 647 301 683 q 293 599 300 615 q 250 575 286 583 q 219 571 240 572 q 188 572 197 569 m 224 454 q 282 440 258 454 q 306 404 306 425 q 293 374 306 394 q 265 333 281 354 q 233 294 249 311 q 210 272 217 276 q 160 256 192 260 q 141 254 147 254 q 124 256 135 254 q 81 269 97 258 q 66 281 74 274 q 57 293 58 288 l 57 297 q 56 299 56 297 q 57 308 54 301 q 64 322 60 315 q 81 341 71 329 q 102 366 92 353 q 121 392 113 379 q 133 413 129 404 q 224 454 158 454 z "},"<":{"ha":590,"x_min":54,"x_max":535,"o":"m 529 204 q 531 181 535 194 q 492 151 524 161 q 425 146 461 140 q 388 157 403 149 q 344 190 372 165 q 321 213 333 201 q 303 229 308 224 q 263 258 289 240 q 218 286 238 275 q 172 315 194 300 q 125 344 149 329 q 69 383 85 368 q 54 414 54 399 q 62 438 54 426 q 97 479 69 449 q 164 551 135 519 q 218 610 193 582 q 267 667 243 639 q 322 732 292 696 q 362 767 343 757 q 417 778 381 778 q 463 769 438 778 q 500 740 489 761 q 499 717 504 731 q 472 682 496 711 q 397 594 447 653 q 362 554 376 571 q 332 522 347 538 q 269 452 285 471 q 254 426 254 433 q 258 415 254 422 q 264 404 261 407 q 293 384 268 400 q 342 353 318 368 q 367 338 353 347 q 394 320 381 329 q 419 303 407 311 q 438 289 432 294 q 463 267 449 281 q 492 241 478 254 q 517 217 507 228 q 529 204 528 207 z "},"=":{"ha":629,"x_min":47,"x_max":572,"o":"m 147 500 q 94 533 119 507 q 61 586 69 558 q 72 636 47 625 l 79 640 l 250 642 q 379 642 329 642 q 435 640 429 642 q 469 630 454 638 q 501 604 483 622 q 538 542 532 574 q 522 500 544 511 q 514 498 519 499 q 490 497 508 497 q 436 497 472 497 q 336 497 400 497 q 244 497 281 497 q 188 498 208 497 q 158 499 167 499 q 147 500 150 500 m 533 386 q 572 313 572 349 q 558 282 572 292 l 551 279 l 482 279 l 294 279 q 219 280 244 279 q 181 281 193 281 q 163 285 168 282 q 149 293 157 288 q 118 318 132 303 q 95 349 104 333 q 83 381 86 365 q 86 407 81 396 q 104 422 90 417 q 135 424 107 424 q 203 424 163 424 q 292 423 244 424 q 380 422 339 422 q 449 421 421 421 q 481 419 478 421 q 533 386 508 413 z "},">":{"ha":544,"x_min":60,"x_max":493,"o":"m 478 467 q 483 426 493 446 q 478 416 482 421 q 465 403 474 411 q 442 384 457 396 q 401 351 426 372 q 377 331 389 340 q 363 319 365 322 q 340 299 357 315 q 302 263 322 282 q 263 225 282 243 q 236 199 244 207 q 208 174 217 181 q 179 164 199 168 q 147 160 167 161 q 115 163 126 160 q 75 180 90 168 q 60 206 60 192 q 100 261 60 225 q 120 280 107 267 q 149 307 133 293 q 206 362 185 343 q 251 400 226 381 q 282 428 276 421 q 289 450 288 436 q 275 493 290 468 q 263 510 267 504 q 243 532 258 517 q 225 551 236 539 q 204 574 214 563 q 190 591 196 583 q 176 608 183 599 q 156 633 168 618 q 124 671 144 647 q 101 699 113 686 q 86 715 90 711 q 72 747 71 733 q 105 781 75 768 q 171 790 135 794 q 224 774 206 786 q 246 753 232 768 q 294 696 260 739 q 355 624 331 653 q 397 576 379 594 q 413 559 407 567 q 425 544 419 551 q 437 528 431 538 q 451 507 443 519 q 467 482 460 493 q 478 467 475 471 z "},"?":{"ha":776,"x_min":61,"x_max":717,"o":"m 715 790 q 716 772 715 783 q 715 746 717 761 q 676 606 715 663 q 568 510 638 550 q 524 483 540 493 q 497 467 507 474 q 483 458 488 461 q 474 450 478 454 q 451 425 461 440 q 433 392 442 410 q 420 356 425 374 q 413 322 415 338 q 407 288 408 294 q 403 276 406 282 q 383 260 396 268 q 351 250 369 253 q 321 247 340 247 q 290 250 301 247 q 242 276 257 257 q 235 293 236 283 q 238 322 235 303 q 291 460 249 401 q 400 558 333 518 q 484 631 451 590 q 536 729 517 671 q 531 817 550 775 q 467 886 507 867 q 438 896 451 893 q 406 897 425 899 q 317 867 357 894 q 254 789 278 839 q 242 761 244 772 q 238 735 239 753 q 235 683 236 718 q 234 656 235 665 q 231 640 233 646 q 226 629 229 633 q 219 618 224 625 q 140 581 193 581 q 97 590 114 581 q 67 622 79 599 l 61 635 l 61 679 q 63 722 61 704 q 66 753 64 740 q 71 778 68 767 q 79 801 74 789 q 138 888 103 851 q 216 947 172 924 q 310 983 260 971 q 413 994 360 994 q 540 974 474 994 q 650 910 606 954 q 715 790 704 853 m 410 96 q 410 56 410 68 q 408 40 410 44 q 358 4 401 15 q 329 0 347 1 q 300 1 311 -1 q 260 14 276 4 q 238 36 243 24 q 236 56 236 39 q 236 94 236 74 q 236 133 236 115 q 238 153 236 150 q 252 169 242 163 q 275 181 263 176 q 300 186 288 185 q 321 188 313 188 q 351 185 336 188 q 378 176 367 183 q 394 165 389 171 q 404 153 400 160 l 408 143 l 410 96 z "},"@":{"ha":1349,"x_min":69,"x_max":1283,"o":"m 1279 557 q 1282 533 1281 547 q 1283 502 1283 518 q 1283 472 1283 486 q 1281 449 1282 457 q 1247 338 1274 389 q 1177 249 1219 286 q 1081 190 1135 211 q 968 168 1028 168 q 756 261 840 168 q 721 279 742 275 q 703 279 710 281 q 672 271 697 278 q 635 262 651 264 q 593 260 618 260 q 515 272 551 260 q 450 306 479 283 q 401 362 421 329 q 372 435 381 394 q 369 454 369 446 q 368 481 368 463 q 388 580 368 535 q 443 658 408 625 q 524 710 478 692 q 624 728 571 728 q 694 719 660 728 q 722 717 707 717 q 746 721 736 717 q 778 724 754 724 q 814 722 801 725 q 867 690 856 714 q 870 680 869 685 q 871 656 871 675 q 871 624 871 644 q 869 586 871 604 q 867 538 868 568 q 867 485 867 508 q 867 444 867 460 q 868 417 867 428 q 872 397 869 406 q 879 375 875 388 q 891 344 883 363 q 910 308 899 325 q 937 278 922 290 q 968 265 951 265 q 995 274 981 265 q 1023 294 1010 282 q 1048 320 1036 307 q 1065 342 1060 333 q 1090 387 1079 361 q 1106 438 1100 413 q 1110 483 1108 453 q 1108 532 1111 513 q 1054 689 1099 617 q 944 815 1010 761 q 871 863 911 842 q 787 897 831 883 q 699 917 743 911 q 614 921 654 924 q 344 803 450 911 q 246 482 233 690 q 256 391 249 435 q 280 308 264 347 q 322 233 296 268 q 389 171 349 199 q 476 124 429 143 q 571 106 522 106 q 606 108 588 106 q 643 114 625 110 q 674 119 661 118 q 700 121 688 121 q 772 92 753 117 q 758 44 790 67 q 714 27 743 33 q 633 14 685 21 q 605 11 622 13 q 570 10 588 10 q 537 10 553 10 q 513 11 521 10 q 399 38 457 19 q 290 87 342 57 q 197 158 239 117 q 126 250 154 199 q 108 294 117 269 q 90 347 99 319 q 77 416 82 379 q 71 491 72 453 q 72 567 69 529 q 81 636 75 604 q 145 792 99 725 q 257 905 192 858 q 401 978 322 951 q 564 1014 481 1006 q 596 1016 576 1015 q 636 1017 615 1017 q 676 1017 657 1017 q 704 1015 694 1017 q 867 983 786 1007 q 1018 917 947 958 q 1146 816 1089 875 q 1240 679 1203 757 q 1279 557 1271 617 m 683 531 q 672 576 685 550 q 619 624 650 622 q 605 622 610 625 q 589 607 600 618 q 556 553 569 588 q 542 488 543 519 q 551 419 539 454 q 582 372 564 383 q 608 371 593 364 q 624 385 615 374 q 641 409 633 396 q 655 436 649 422 q 664 457 661 450 q 669 473 667 463 q 676 495 672 483 q 681 517 679 507 q 683 531 683 526 z "},"A":{"ha":768,"x_min":51,"x_max":708,"o":"m 69 -6 q 63 14 65 4 q 58 40 60 24 q 56 84 57 57 q 53 157 54 111 q 51 194 51 176 q 52 234 51 213 q 54 283 53 256 q 57 344 56 310 q 74 497 63 414 q 110 659 86 579 q 176 808 135 739 q 279 919 217 876 q 340 950 311 940 q 403 963 369 960 q 550 913 492 967 q 605 838 582 882 q 644 746 628 794 q 670 647 660 697 q 686 556 681 597 q 703 367 697 481 q 708 110 708 253 q 708 54 708 75 q 706 21 707 33 q 701 2 704 8 q 694 -8 699 -4 q 656 -29 682 -22 q 603 -33 629 -36 q 544 -10 563 -28 q 533 7 535 -1 q 535 43 532 15 q 535 66 535 47 q 535 110 535 85 q 534 166 535 136 q 533 221 533 196 q 533 264 533 246 q 532 285 532 282 q 521 303 532 296 q 500 313 510 311 q 474 315 485 315 q 440 313 463 315 q 387 305 413 310 q 326 292 361 300 q 292 283 308 288 q 268 278 275 279 q 231 253 242 272 l 225 243 l 225 199 q 226 154 225 179 q 228 113 226 129 q 231 53 231 74 q 232 21 232 32 q 230 4 232 10 q 225 -7 228 -1 q 219 -17 222 -12 q 211 -25 215 -22 q 181 -42 196 -37 q 139 -43 165 -46 q 128 -41 135 -42 q 119 -39 122 -40 q 69 -6 83 -39 m 239 431 q 238 415 238 419 q 240 404 238 410 q 251 389 243 396 q 267 382 260 382 q 277 383 268 382 q 297 388 286 385 q 384 403 338 397 q 467 411 431 410 q 497 415 488 413 q 514 422 507 417 q 523 438 521 429 q 522 469 525 446 q 513 551 519 501 q 494 651 506 600 q 466 749 482 703 q 431 821 450 796 q 407 840 419 836 q 392 838 399 843 q 371 817 385 833 q 292 673 318 750 q 250 513 265 596 q 242 469 246 492 q 239 431 239 446 z "},"B":{"ha":810,"x_min":32,"x_max":803,"o":"m 69 897 q 40 919 46 910 q 36 946 32 932 q 52 964 39 953 q 76 978 65 975 q 140 986 100 986 q 279 969 206 986 q 419 917 353 951 q 538 830 486 882 q 610 710 589 778 q 617 674 614 693 q 621 644 621 656 q 605 565 621 601 q 563 499 589 529 q 503 444 536 469 q 436 400 469 419 q 417 388 417 390 q 458 372 417 379 q 542 352 497 364 q 628 322 586 340 q 708 278 671 303 q 769 219 744 253 q 798 156 793 189 q 788 93 803 124 q 714 19 767 49 q 586 -24 661 -11 q 560 -26 574 -25 q 522 -26 546 -26 q 490 -27 504 -28 q 474 -26 476 -26 q 239 69 326 -12 q 118 290 151 151 q 113 306 115 300 q 110 314 111 313 q 100 320 107 314 q 90 331 93 326 q 85 346 85 336 q 94 371 83 360 l 100 376 l 99 393 q 90 487 92 432 q 88 621 88 542 q 88 678 88 653 q 89 727 88 704 q 92 772 90 750 q 94 819 93 794 q 96 869 97 858 q 85 888 94 879 q 69 897 81 892 m 267 797 q 263 722 264 765 q 261 619 261 679 q 263 509 261 542 q 268 469 264 476 q 276 459 271 464 q 285 454 281 454 q 304 464 290 454 q 442 610 419 524 q 446 645 446 625 q 442 683 446 665 q 394 774 429 732 q 314 840 358 817 q 289 851 294 851 q 274 838 279 851 q 269 822 271 829 q 267 797 268 814 m 600 193 q 351 289 532 265 q 327 292 333 292 q 317 290 321 292 q 301 272 303 286 q 301 263 300 267 q 307 246 303 258 q 348 167 322 208 q 408 103 374 125 q 543 69 475 60 q 619 118 603 81 q 600 193 636 154 z "},"C":{"ha":746,"x_min":49,"x_max":704,"o":"m 71 275 q 53 367 58 328 q 50 460 49 407 q 63 608 53 539 q 94 740 74 678 q 201 917 131 853 q 392 985 271 981 q 563 942 492 989 q 645 852 614 907 q 679 735 676 797 q 674 700 679 718 q 658 666 668 682 q 635 638 649 650 q 604 622 621 626 q 562 623 583 618 q 529 639 540 628 q 524 646 526 642 q 521 654 522 650 q 517 670 519 660 q 511 692 514 681 q 507 715 508 704 q 506 731 506 726 q 498 776 506 750 q 476 826 490 801 q 444 869 463 850 q 406 890 426 888 q 365 878 390 893 q 324 843 340 863 q 257 697 285 796 q 238 615 246 660 q 227 526 231 571 q 224 439 224 481 q 229 364 224 397 q 267 218 242 275 q 338 118 293 161 q 408 81 378 78 q 456 113 436 86 q 491 174 476 139 q 515 243 506 208 q 529 299 525 278 q 545 336 532 325 q 583 354 558 347 q 619 357 597 357 q 654 353 640 357 q 704 310 704 340 q 701 290 704 304 q 694 258 699 275 q 685 222 690 240 q 675 192 679 204 q 642 116 661 151 q 597 53 624 81 q 536 6 571 25 q 457 -21 501 -12 q 440 -23 451 -22 q 415 -24 428 -24 q 390 -24 401 -24 q 372 -22 379 -24 q 265 13 314 -14 q 177 80 215 40 q 112 170 139 119 q 71 275 85 221 z "},"D":{"ha":731,"x_min":3,"x_max":688,"o":"m 42 854 q 32 894 3 872 q 88 924 51 910 q 165 947 125 939 q 181 951 176 950 q 189 956 186 953 q 206 966 196 961 q 228 974 217 971 q 242 976 235 975 q 263 975 250 976 q 294 972 282 975 q 319 961 307 968 q 331 957 325 958 q 350 954 336 956 q 588 842 503 935 q 686 599 674 750 q 687 573 686 589 q 688 539 688 557 q 687 504 688 521 q 686 476 686 488 q 630 258 678 357 q 485 88 582 158 q 364 17 431 46 q 236 -19 297 -11 q 197 -22 221 -22 q 154 -18 172 -21 q 128 -14 144 -17 q 97 -6 113 -11 q 69 8 81 0 q 54 29 57 17 q 66 58 51 44 q 104 76 81 71 q 134 92 125 82 q 149 124 143 103 q 151 139 151 131 q 150 172 151 147 q 150 363 147 263 q 161 586 153 464 q 164 631 163 606 q 165 672 165 657 q 167 713 165 689 q 168 754 168 736 q 170 794 169 779 q 171 819 171 810 q 169 832 171 828 q 164 840 167 836 q 151 850 158 847 q 126 853 143 853 q 108 853 119 854 q 89 851 97 853 q 42 854 60 847 m 335 574 q 326 417 328 492 q 324 264 324 343 q 324 217 324 233 q 324 191 324 200 q 324 178 324 182 q 326 172 325 175 q 339 154 331 158 q 357 156 347 150 q 380 173 365 160 q 407 201 394 186 q 513 481 500 308 q 514 516 514 496 q 513 556 514 536 q 512 593 513 575 q 508 622 511 611 q 472 743 501 682 q 389 835 443 804 q 369 842 379 842 q 352 832 357 842 q 346 811 347 822 q 344 790 346 807 q 342 749 343 772 q 340 701 342 726 q 339 657 339 676 q 337 613 338 638 q 335 574 336 588 z "},"E":{"ha":654,"x_min":47,"x_max":632,"o":"m 94 808 q 88 835 92 828 q 71 853 83 843 q 72 901 47 872 q 85 912 79 908 q 102 919 92 915 q 130 924 113 922 q 175 929 147 926 q 290 938 235 936 q 414 940 344 940 q 533 938 493 940 q 583 933 572 936 q 632 892 632 921 q 611 861 632 874 q 556 844 590 849 q 472 844 539 843 q 413 845 444 844 q 365 844 382 846 q 330 842 338 843 q 313 839 322 842 q 296 832 299 833 q 276 800 285 824 q 268 744 272 788 q 261 653 264 701 q 257 565 258 606 q 258 515 256 525 q 278 490 263 496 l 289 485 l 357 485 q 410 485 385 485 q 443 488 435 486 q 497 490 479 490 q 533 482 514 489 q 559 464 549 475 q 569 442 569 453 q 554 414 569 424 q 519 399 539 404 q 478 393 499 394 q 447 392 458 392 q 369 389 407 390 q 314 386 331 388 q 284 380 294 383 q 267 369 274 376 q 257 356 261 364 q 251 334 253 349 q 248 297 249 319 q 247 236 247 274 q 248 189 247 207 q 249 159 249 171 q 252 140 250 147 q 257 122 254 132 q 277 88 264 97 q 318 74 290 78 q 366 72 333 72 q 426 75 399 72 q 494 78 469 78 q 532 76 518 79 q 581 56 564 71 q 593 22 599 40 q 576 3 590 13 q 546 -10 563 -6 q 478 -18 526 -15 q 372 -22 431 -21 q 325 -22 347 -22 q 297 -21 303 -22 q 219 -8 256 -17 q 153 19 182 0 q 103 68 124 38 q 76 144 83 99 q 74 176 75 154 q 74 229 74 199 q 74 296 74 260 q 76 369 75 332 q 77 403 76 383 q 79 443 78 422 q 81 485 81 464 q 82 524 82 507 q 84 594 83 565 q 86 645 85 622 q 90 690 88 668 q 94 739 92 713 q 97 781 97 767 q 94 808 97 794 z "},"F":{"ha":629,"x_min":6,"x_max":626,"o":"m 60 449 q 86 477 81 460 q 93 515 92 494 q 98 606 96 567 q 104 677 100 644 q 114 739 108 710 q 128 799 119 768 q 155 868 139 843 q 200 913 171 893 q 265 944 226 932 q 344 965 303 957 q 426 977 385 974 q 500 981 467 981 q 547 979 528 981 q 593 967 567 978 q 622 927 626 950 q 576 890 617 904 q 558 888 568 888 q 515 886 549 888 q 418 878 456 883 q 351 861 381 872 q 331 849 339 856 q 316 833 322 843 q 305 806 310 822 q 293 763 300 789 q 280 689 285 722 q 271 608 275 656 q 267 539 268 561 q 269 508 267 517 q 286 482 276 486 q 324 481 293 479 q 388 488 354 482 q 424 493 411 492 q 451 492 438 494 q 508 472 488 488 q 521 447 521 460 q 508 424 521 433 q 456 401 493 408 q 343 386 419 393 q 313 383 326 383 q 296 381 299 382 q 283 372 290 379 q 274 358 276 365 q 268 338 269 350 q 268 296 267 325 q 272 238 269 271 q 276 169 274 204 q 282 103 279 135 q 286 50 285 71 q 287 31 288 35 q 283 22 286 28 q 257 -3 275 7 q 219 -12 242 -10 q 178 -12 196 -15 q 138 -1 154 -10 q 117 21 122 8 q 113 38 115 25 q 110 65 111 50 q 108 94 108 81 q 107 114 107 108 q 104 149 106 128 q 101 195 103 171 q 99 245 100 219 q 96 292 97 271 l 92 347 l 88 357 q 78 369 82 365 q 63 381 74 374 q 60 449 6 415 z "},"G":{"ha":772,"x_min":42,"x_max":731,"o":"m 57 531 q 99 664 69 593 q 173 799 129 735 q 274 910 217 863 q 399 974 331 958 q 419 976 410 976 q 451 976 428 976 q 484 976 475 976 q 504 974 493 976 q 603 924 561 960 q 678 826 646 889 q 706 754 699 786 q 711 685 714 722 q 706 651 708 661 q 699 632 704 642 q 618 590 672 590 q 542 626 563 590 q 535 647 536 638 q 536 675 533 656 q 539 706 539 694 q 536 729 539 717 q 526 767 535 744 q 506 811 518 789 q 478 849 494 833 q 443 864 463 864 q 394 838 421 864 q 344 776 368 811 q 300 706 319 742 q 274 654 281 671 q 217 418 224 540 q 220 336 215 378 q 237 256 225 294 q 267 182 249 217 q 307 121 285 147 q 325 104 314 114 q 343 92 336 94 q 367 86 350 86 q 417 110 392 86 q 465 168 443 135 q 501 237 488 201 q 515 294 515 272 q 503 326 515 321 q 471 330 497 329 q 408 328 444 331 q 378 326 388 326 q 360 328 368 326 q 313 343 332 332 q 292 369 294 354 q 301 396 288 382 q 372 422 322 414 q 408 424 376 422 q 483 426 440 425 q 569 426 525 426 q 639 426 613 426 q 666 426 650 426 q 697 421 682 425 q 721 408 711 417 q 731 382 731 399 q 718 349 731 361 q 704 331 710 342 q 696 308 699 319 q 660 194 683 249 q 599 95 636 139 q 513 22 563 51 q 397 -14 463 -7 q 365 -17 385 -17 q 332 -14 344 -17 q 206 31 260 -7 q 117 126 153 69 q 63 249 81 182 q 43 381 44 315 q 45 455 42 422 q 57 531 49 488 z "},"H":{"ha":672,"x_min":72,"x_max":613,"o":"m 72 376 q 74 476 72 417 q 78 628 75 536 q 80 694 79 654 q 81 763 81 733 q 81 818 81 797 q 83 850 82 839 q 89 867 85 861 q 99 879 93 874 q 131 897 111 892 q 164 902 142 901 q 199 900 186 903 q 232 886 217 896 q 253 865 247 876 q 253 860 253 864 q 254 844 254 856 q 254 811 254 832 q 254 753 254 790 q 252 665 253 708 q 250 606 251 622 q 249 567 250 590 q 249 529 249 544 q 249 496 249 501 q 251 485 249 490 q 265 472 254 479 l 275 468 l 371 469 l 385 476 q 396 483 392 481 q 401 496 400 486 q 403 527 403 506 q 404 590 404 549 q 405 667 404 631 q 407 715 406 704 q 408 765 407 728 q 408 846 408 801 q 409 911 408 889 q 410 944 410 933 q 414 957 411 954 q 422 965 417 960 q 453 983 433 976 q 494 989 472 989 q 567 964 538 989 q 578 947 576 954 q 582 911 581 939 q 583 871 583 897 q 583 816 583 844 q 583 760 583 788 q 581 715 582 733 q 578 659 579 699 q 578 575 578 619 q 578 490 578 531 q 579 429 579 449 q 582 391 581 413 q 583 354 583 369 q 586 317 585 339 q 589 273 588 296 q 592 227 590 250 q 594 188 593 204 q 597 151 596 175 q 600 107 599 128 q 603 69 601 83 q 606 51 604 54 q 600 14 613 31 q 558 -11 588 -3 q 544 -15 551 -14 q 524 -15 538 -15 l 497 -15 q 446 6 463 -10 q 433 28 436 15 q 428 82 431 40 q 425 122 426 94 q 421 176 424 149 q 417 235 418 204 q 414 281 415 265 q 406 342 411 322 q 390 369 401 363 q 379 373 388 372 q 331 374 371 374 q 300 374 311 374 q 283 373 289 374 q 274 372 276 372 q 268 369 271 371 q 256 357 260 367 q 249 332 250 346 q 249 299 247 318 q 251 244 250 267 q 253 200 251 221 q 256 156 254 179 q 261 99 258 132 l 268 35 l 264 26 q 197 -8 251 -1 q 137 -2 165 -11 q 97 24 108 7 q 88 83 92 33 q 80 192 83 132 q 74 305 76 251 q 72 376 72 358 z "},"I":{"ha":456,"x_min":17,"x_max":438,"o":"m 75 833 q 24 865 32 843 q 51 903 17 886 q 92 915 69 911 q 158 922 115 919 q 197 925 175 924 q 233 928 218 926 q 322 932 293 932 q 369 925 350 932 q 410 895 401 914 q 401 858 419 876 q 381 844 393 849 q 344 832 369 839 q 321 811 331 828 q 317 803 318 808 q 313 792 315 797 q 310 783 311 788 q 309 773 310 779 q 308 754 308 767 q 307 721 307 742 q 306 626 306 678 q 310 535 307 574 q 312 501 311 524 q 313 456 313 479 q 315 422 314 436 q 316 392 315 408 q 318 351 317 375 q 321 288 319 328 q 324 233 324 264 q 328 181 325 203 q 330 146 329 158 q 332 126 331 133 q 337 115 333 119 q 346 106 340 111 q 363 92 354 97 q 386 81 371 88 q 407 71 400 75 q 419 61 414 67 q 425 22 438 42 q 376 -8 413 1 q 344 -12 364 -11 q 308 -11 324 -14 q 290 -9 301 -10 q 268 -8 279 -8 q 239 -8 256 -8 q 204 -6 222 -7 q 172 -5 186 -6 q 149 -3 157 -4 q 99 7 121 0 q 68 25 78 14 q 90 76 43 53 q 115 86 106 83 q 137 101 126 89 q 153 128 147 113 l 156 138 l 151 214 q 148 280 150 246 q 146 331 146 314 q 137 506 140 418 q 133 681 133 593 q 133 744 133 718 q 131 776 132 771 q 117 808 128 792 q 97 828 107 825 q 88 831 94 829 q 75 833 82 832 z "},"J":{"ha":654,"x_min":15,"x_max":593,"o":"m 593 867 q 593 819 593 847 q 592 768 593 790 q 591 716 590 743 q 592 661 592 689 q 593 588 593 626 q 591 513 593 550 q 585 442 589 475 q 578 382 582 408 q 549 254 568 321 q 497 130 531 188 q 413 32 464 72 q 290 -15 363 -8 q 256 -18 278 -18 q 222 -15 233 -18 q 108 39 150 -7 q 43 149 67 85 q 33 175 39 161 q 24 196 28 189 q 17 213 18 208 q 15 224 15 218 q 29 254 15 240 q 69 274 44 267 q 105 276 85 276 q 138 271 125 276 q 169 250 160 264 q 185 224 176 243 q 201 182 194 204 q 246 101 225 114 q 286 99 264 93 q 298 104 294 101 q 311 118 301 107 q 351 174 333 140 q 381 244 368 207 q 401 319 393 282 q 414 388 410 357 q 427 517 424 440 q 428 714 431 593 q 426 767 426 747 q 424 797 425 786 q 422 814 424 808 q 417 825 419 819 q 404 835 413 832 q 369 843 396 839 q 352 846 361 844 q 330 848 343 847 q 298 849 317 849 q 251 850 279 850 q 188 851 207 850 q 153 857 168 853 q 125 882 125 864 q 141 911 125 900 q 178 929 157 922 q 220 940 199 936 q 253 944 242 943 q 322 951 288 949 q 388 956 356 953 q 426 958 403 957 q 467 960 449 958 q 519 961 503 963 q 550 956 535 960 q 569 946 560 953 q 583 933 579 939 q 589 924 588 928 q 592 913 590 919 q 593 897 593 907 q 593 867 593 886 z "},"K":{"ha":722,"x_min":78,"x_max":714,"o":"m 268 906 q 267 876 268 896 q 264 836 265 856 q 258 764 260 792 q 258 732 257 736 q 272 728 264 722 q 285 740 275 731 q 306 765 294 750 q 335 799 318 779 q 365 832 353 818 q 405 878 390 860 q 433 915 419 896 q 481 974 464 957 q 578 1003 518 1010 q 635 981 615 999 q 643 942 654 963 q 636 933 640 939 q 625 919 632 926 q 612 902 619 913 q 597 883 604 892 q 584 864 592 875 q 569 846 576 853 q 558 832 564 839 q 540 811 551 825 q 508 775 528 797 q 456 715 489 753 q 351 592 396 649 q 293 511 306 535 q 299 457 276 479 q 322 434 311 444 q 343 414 332 424 q 368 394 354 404 q 400 368 382 383 q 551 237 478 306 q 686 89 624 168 q 709 57 704 65 q 714 42 714 49 q 667 0 714 15 q 652 -2 660 -1 q 632 -3 644 -3 q 615 -4 622 -4 q 606 -3 607 -4 q 562 12 578 0 q 529 47 546 24 q 422 169 481 113 q 301 278 364 226 q 273 299 279 296 q 261 300 267 303 q 255 296 257 299 q 252 283 253 293 q 251 249 251 272 q 251 183 251 226 q 251 102 251 125 q 249 76 250 79 q 217 51 240 60 q 165 42 193 42 q 92 65 118 42 q 82 78 85 69 l 78 83 l 78 344 q 78 531 78 456 q 80 658 79 606 q 83 749 81 711 q 89 826 85 788 q 92 862 90 842 q 93 893 93 882 q 112 960 96 938 q 176 983 128 983 q 264 936 240 983 q 267 925 267 929 q 268 906 268 921 z "},"L":{"ha":583,"x_min":75,"x_max":597,"o":"m 254 874 q 255 820 256 847 q 253 764 254 793 q 251 692 251 738 q 250 597 250 646 q 250 502 250 547 q 251 433 250 457 q 255 363 254 392 q 257 308 256 333 q 259 260 258 283 q 260 210 260 238 q 260 165 260 181 q 262 139 261 149 q 263 125 263 129 q 265 117 264 121 q 289 89 271 97 q 299 85 293 86 q 319 83 306 83 q 354 81 332 82 q 413 81 376 81 q 475 81 451 81 q 513 79 499 81 q 537 75 528 78 q 556 68 546 72 q 582 46 576 58 q 556 -1 597 18 q 541 -8 547 -6 q 522 -12 535 -11 q 486 -13 510 -12 q 418 -14 463 -14 q 323 -13 375 -14 q 240 -12 271 -12 q 199 -12 214 -12 q 175 -11 183 -11 q 162 -10 167 -11 q 153 -8 157 -10 q 120 7 133 -1 q 100 26 107 15 q 94 42 96 33 q 90 71 92 51 q 88 122 89 90 q 86 206 88 154 q 84 289 85 243 q 82 363 83 335 q 75 580 75 475 q 79 761 75 685 q 81 810 81 781 q 82 864 82 840 q 83 928 82 924 q 97 947 86 939 q 119 958 107 954 q 145 965 132 963 q 168 967 158 967 q 219 957 197 967 q 251 932 242 947 q 253 926 253 929 q 254 918 254 924 q 254 902 254 913 q 254 874 254 892 z "},"M":{"ha":1003,"x_min":67,"x_max":958,"o":"m 925 260 q 927 222 926 238 q 929 193 928 206 q 931 169 931 181 q 933 146 932 158 q 938 94 936 114 q 943 67 940 74 q 897 8 958 26 q 882 6 889 6 q 858 6 875 6 q 836 6 843 6 q 821 8 829 6 q 775 39 786 19 q 765 78 769 49 q 758 144 761 108 q 753 212 756 179 q 751 260 751 244 q 747 309 750 272 q 740 385 743 346 q 733 456 736 425 q 731 486 731 486 q 722 485 728 490 q 708 456 721 482 q 680 400 694 431 q 652 342 665 369 q 636 307 639 314 q 625 279 631 293 q 615 248 619 265 q 604 208 610 231 q 590 151 599 185 q 577 101 586 129 q 563 61 568 72 q 513 25 550 35 q 479 22 501 22 q 444 24 457 21 q 399 43 414 28 q 384 63 390 50 q 367 108 378 76 q 356 140 363 121 q 342 175 349 160 q 331 208 336 193 q 320 237 325 222 q 310 267 315 251 q 296 306 304 283 q 275 366 281 351 q 267 381 269 381 q 265 379 265 381 q 264 369 264 378 q 264 344 264 361 q 264 297 264 326 q 263 228 264 263 q 263 179 263 193 q 260 137 261 160 q 257 94 258 114 q 254 62 256 75 q 253 46 253 49 q 240 22 250 36 q 221 0 229 7 q 182 -16 206 -11 q 136 -14 158 -21 q 85 38 97 -4 q 82 63 82 46 q 85 124 82 79 q 87 153 86 140 q 88 185 88 167 q 89 230 89 203 q 89 300 89 257 q 88 468 89 385 q 83 636 86 551 q 83 702 83 676 q 81 747 82 728 q 77 784 79 767 q 72 824 75 801 q 67 880 68 863 q 69 904 67 897 q 80 919 72 911 q 97 932 88 928 q 156 946 125 946 q 238 919 207 946 q 253 903 246 913 q 267 879 260 894 q 282 841 274 864 q 303 783 290 818 q 314 750 307 771 q 328 714 321 729 q 342 674 335 697 q 357 632 350 650 q 370 594 364 614 q 381 564 376 575 q 390 538 385 551 q 401 510 396 524 q 409 488 406 497 q 413 476 413 479 q 420 451 414 471 q 435 408 426 431 q 452 369 443 386 q 467 351 461 351 q 478 358 471 351 q 493 388 481 363 q 521 444 506 413 q 551 506 536 475 q 571 551 565 538 q 586 592 576 564 q 604 646 596 619 q 621 694 614 675 q 633 727 628 713 q 643 754 638 742 q 654 783 649 767 q 676 838 665 811 q 703 906 688 865 q 738 963 718 946 q 804 981 757 981 q 853 972 831 981 q 886 949 876 964 q 892 933 890 942 q 894 904 893 925 q 899 851 897 875 q 901 811 900 826 q 903 784 903 803 q 904 746 904 765 q 906 701 906 726 q 908 660 907 676 q 912 565 911 613 q 913 471 913 518 q 913 453 913 469 q 915 414 914 436 q 917 365 915 392 q 919 324 918 339 q 922 290 921 308 q 925 260 924 271 z "},"N":{"ha":856,"x_min":68,"x_max":813,"o":"m 269 488 q 260 476 261 490 q 263 410 260 463 q 265 322 265 368 q 264 239 265 275 q 264 208 264 228 q 265 172 264 189 q 267 149 267 157 q 267 134 267 140 q 266 123 267 128 q 264 110 265 118 q 233 36 257 65 q 161 7 210 7 q 113 17 133 7 q 82 44 92 26 q 72 72 74 58 q 74 113 71 85 q 76 147 75 122 q 78 194 76 171 q 78 236 78 218 q 80 272 79 254 q 82 312 81 290 q 85 363 83 333 q 87 389 86 378 q 88 410 88 400 q 87 433 88 421 q 86 463 86 446 q 84 522 85 485 q 82 592 83 560 q 81 660 82 632 q 78 711 79 688 q 76 760 78 735 q 71 818 74 785 q 68 865 68 853 q 74 888 68 878 q 108 914 83 904 q 160 924 132 924 q 224 910 196 924 q 260 875 243 900 q 307 790 278 850 q 330 742 318 767 q 347 707 342 718 q 377 644 358 683 q 417 562 396 606 q 461 473 439 518 q 502 392 483 428 q 534 332 521 356 q 549 306 547 308 q 556 303 550 306 q 564 310 561 303 q 567 327 565 313 q 572 361 569 342 q 579 413 575 379 q 589 475 583 446 q 602 557 597 521 q 610 625 607 593 q 617 688 614 657 q 621 758 619 719 q 623 795 622 778 q 625 818 624 813 q 628 839 626 826 q 633 863 631 851 q 639 885 636 875 q 643 897 642 894 q 692 928 654 919 q 726 932 704 932 q 747 931 738 932 q 761 928 756 931 q 790 917 778 924 q 807 903 803 910 q 813 889 813 894 q 810 868 813 883 q 799 797 803 832 q 794 743 796 763 q 790 676 793 707 q 784 613 788 644 q 775 547 781 582 q 763 465 769 511 q 753 415 757 435 q 747 376 750 394 q 742 338 744 358 q 736 288 740 318 q 729 235 733 265 q 722 185 725 206 q 714 118 717 144 q 710 69 711 92 q 704 35 708 46 q 689 17 700 24 q 660 1 674 6 q 622 -3 646 -3 q 603 -4 611 -4 q 594 -3 596 -4 q 560 8 575 0 q 536 24 544 15 q 506 67 528 33 q 458 147 485 101 q 403 240 431 192 q 356 325 375 288 q 307 419 328 378 q 281 472 286 461 q 269 488 274 486 z "},"O":{"ha":801,"x_min":54,"x_max":761,"o":"m 88 196 q 63 308 71 244 q 57 439 54 372 q 67 584 60 514 q 89 729 75 654 q 94 760 92 744 q 97 785 97 776 q 99 806 99 794 q 101 824 100 817 q 103 841 103 831 q 106 858 104 851 q 108 876 107 865 q 113 896 110 886 q 117 915 115 910 q 124 925 119 919 q 140 940 131 932 q 158 950 150 947 q 181 958 169 954 q 206 963 192 961 q 238 964 219 964 q 283 964 257 964 q 399 947 338 964 q 508 901 461 929 q 620 817 572 868 q 699 706 668 767 q 746 577 731 646 q 761 439 761 508 q 728 260 761 343 q 624 108 694 176 q 541 46 586 72 q 449 8 496 19 q 385 -1 419 1 q 324 0 350 -3 q 176 63 238 11 q 88 196 115 114 m 233 496 q 258 214 224 324 q 294 146 271 178 q 343 100 318 114 q 385 99 361 92 q 476 158 429 113 q 550 261 522 204 q 581 363 571 306 q 586 474 590 421 q 569 584 583 528 q 527 690 554 640 q 459 780 500 740 q 363 838 418 819 q 344 842 349 842 q 325 842 340 843 q 299 838 304 840 q 286 822 293 836 q 283 813 285 818 q 279 801 281 808 q 275 781 278 793 q 268 749 272 769 q 255 676 260 708 q 246 615 250 644 q 239 558 242 586 q 233 496 236 529 z "},"P":{"ha":668,"x_min":56,"x_max":643,"o":"m 519 888 q 594 802 565 850 q 633 701 622 754 q 635 592 643 649 q 600 482 628 536 q 546 398 578 439 q 475 329 514 357 q 307 235 404 271 q 272 199 279 225 q 276 90 269 188 q 277 56 278 63 q 274 44 276 50 q 225 11 263 22 q 194 8 217 8 q 164 10 172 7 q 107 39 121 17 l 103 47 l 101 89 q 101 115 101 104 q 99 140 100 126 q 98 174 99 154 q 94 222 97 193 q 90 285 92 250 q 86 382 89 321 q 86 412 86 390 q 85 464 86 433 q 84 531 85 494 q 83 606 83 568 q 83 731 83 683 q 81 806 82 778 q 80 848 81 833 q 78 875 79 863 q 74 908 75 899 q 67 925 72 918 q 69 963 56 947 q 103 984 82 978 q 165 993 125 990 q 360 971 267 999 q 519 888 453 943 m 443 531 q 440 750 489 646 q 380 828 418 794 q 296 881 342 863 q 257 871 263 892 q 257 660 254 863 q 258 510 257 567 q 260 421 258 453 q 263 376 261 389 q 268 358 265 364 q 278 356 269 356 q 297 358 288 356 q 384 433 346 390 q 443 531 422 476 z "},"Q":{"ha":890,"x_min":33,"x_max":882,"o":"m 783 147 q 799 128 788 140 q 822 103 811 115 q 855 65 843 79 q 873 44 867 51 q 881 33 879 36 q 882 25 882 29 q 871 4 882 11 q 803 -17 850 -17 q 784 -17 793 -18 q 769 -17 775 -17 q 748 -11 760 -15 q 729 -3 736 -7 q 699 28 721 1 q 678 51 689 39 q 661 71 668 64 q 646 87 654 78 q 633 101 638 96 q 622 113 626 108 q 611 119 618 117 q 602 122 607 121 q 594 124 597 124 q 586 123 589 125 q 572 114 583 121 q 372 50 485 54 q 317 53 347 49 q 263 65 286 57 q 160 143 194 90 q 114 267 125 196 q 107 385 107 324 q 115 518 107 447 l 118 539 l 114 554 q 105 579 110 568 q 90 606 100 590 q 69 639 78 625 q 56 664 61 653 q 47 685 50 675 q 40 708 43 696 q 34 755 33 733 q 42 797 35 776 q 122 899 67 865 q 246 942 178 932 q 274 945 256 944 q 310 946 292 946 q 347 945 329 946 q 375 943 365 944 q 603 839 506 922 q 724 674 682 772 q 758 474 767 576 q 743 381 756 425 q 707 281 731 336 q 704 240 699 260 q 713 222 707 231 q 742 190 718 214 q 766 165 754 178 q 783 147 778 153 m 586 501 q 544 681 586 594 q 422 819 501 767 q 346 857 382 847 q 282 858 310 867 q 233 820 254 849 q 208 757 211 792 q 214 731 207 739 q 243 721 221 724 q 306 686 299 713 q 304 657 308 679 q 302 610 300 628 q 311 575 304 592 q 329 550 317 565 q 356 525 338 542 q 396 489 374 508 q 442 449 418 469 q 489 411 467 428 q 528 383 511 394 q 551 372 544 372 q 561 376 557 372 q 573 399 568 382 q 581 436 578 417 q 585 474 583 456 q 586 501 586 493 m 490 228 q 490 236 492 232 q 483 247 489 240 q 465 264 478 253 q 431 293 453 275 q 381 335 408 313 q 336 371 353 358 q 302 399 310 393 q 292 403 294 404 q 283 395 285 403 q 282 351 282 388 q 285 300 283 326 q 292 249 288 274 q 308 200 297 224 q 335 157 318 176 q 353 144 344 147 q 376 142 361 142 q 407 151 389 142 q 442 172 425 160 q 474 200 460 185 q 490 228 488 215 z "},"R":{"ha":740,"x_min":24,"x_max":704,"o":"m 114 840 q 85 834 104 835 q 56 836 67 833 q 40 842 47 839 q 29 851 32 846 q 24 865 26 854 q 46 904 24 886 q 99 935 68 922 q 163 957 131 949 q 213 967 194 965 q 250 971 232 969 q 288 972 268 972 q 410 955 346 972 q 529 904 474 938 q 626 822 585 871 q 679 710 667 774 q 681 668 682 694 q 676 629 679 642 q 646 558 667 592 q 597 496 625 525 q 538 442 569 467 q 472 400 506 418 q 453 389 457 392 q 450 381 450 386 q 453 368 450 372 q 472 354 457 364 q 526 315 499 336 q 579 269 554 293 q 626 221 604 244 q 663 175 647 197 q 691 127 679 151 q 704 92 703 103 q 695 67 704 76 q 673 51 686 57 q 645 44 660 46 q 618 42 631 42 q 569 49 596 42 q 533 81 543 57 q 451 199 506 143 q 339 292 396 256 q 323 301 328 300 q 313 300 318 303 l 307 297 l 307 272 q 308 229 307 263 q 310 160 308 196 q 312 83 311 110 q 313 42 313 56 q 312 23 313 28 q 310 15 311 18 q 281 -8 303 1 q 232 -18 260 -17 q 214 -18 219 -21 q 159 -2 179 -14 q 139 46 139 10 q 138 85 139 50 q 135 175 138 119 q 132 303 133 231 q 128 454 131 375 q 124 604 126 533 q 121 727 122 675 q 119 810 119 779 q 118 842 118 842 l 117 842 q 114 840 115 840 m 294 835 q 294 813 294 833 q 295 760 294 792 q 297 690 296 729 q 298 615 297 651 q 300 546 299 578 q 301 496 301 514 q 304 471 301 479 q 313 460 307 463 q 338 461 321 454 q 388 492 363 474 q 435 534 413 511 q 476 582 458 557 q 501 633 493 607 q 506 649 504 643 q 506 676 507 656 q 505 702 506 696 q 501 719 504 708 q 447 805 488 765 q 350 865 406 844 q 334 871 339 869 q 319 872 329 872 q 307 872 310 872 q 301 867 304 871 q 296 853 296 863 q 295 844 296 850 q 294 835 294 839 z "},"S":{"ha":704,"x_min":31,"x_max":661,"o":"m 594 299 q 646 211 631 254 q 654 133 661 168 q 628 77 649 103 q 578 33 608 51 q 511 6 549 15 q 431 -4 474 -4 q 409 -4 419 -4 q 394 -3 399 -4 q 225 69 299 8 q 110 213 151 129 q 105 226 106 222 q 104 238 104 231 q 119 272 104 257 q 157 290 133 286 q 188 291 176 293 q 217 282 200 289 q 244 264 233 275 q 267 229 256 253 q 313 160 290 189 q 376 107 336 132 q 417 88 401 92 q 449 88 433 83 q 477 106 464 92 q 496 136 490 119 q 471 235 507 178 q 442 271 458 253 q 403 311 426 289 q 344 360 379 333 q 260 424 310 388 q 194 474 229 447 q 128 533 160 501 q 73 601 97 565 q 38 676 49 638 q 32 710 33 692 q 33 744 31 729 q 77 837 42 796 q 161 907 113 878 q 265 951 210 936 q 367 967 319 967 q 535 915 465 967 q 626 767 606 863 q 634 730 631 749 q 639 704 638 711 q 640 653 642 685 q 631 604 638 622 q 620 581 628 593 q 606 560 613 568 q 588 548 597 551 q 560 543 578 544 q 501 563 515 543 q 483 622 486 582 q 482 647 483 632 q 480 676 481 661 q 478 703 479 690 q 475 724 476 717 q 443 822 468 781 q 382 875 418 864 q 299 857 353 883 q 225 803 253 835 q 190 735 197 771 q 196 682 188 708 q 227 624 206 654 q 279 564 249 593 q 297 548 288 556 q 317 531 306 540 q 346 508 329 521 q 388 476 363 496 q 468 415 435 442 q 525 369 501 389 q 565 332 549 349 q 594 299 582 315 z "},"T":{"ha":739,"x_min":-6,"x_max":740,"o":"m 0 878 q 10 906 -6 893 q 53 926 25 919 q 110 936 74 932 q 193 943 147 940 q 289 947 239 946 q 386 947 339 949 q 658 926 524 944 q 735 892 722 919 q 737 872 740 882 q 724 854 733 861 q 705 844 717 849 q 682 836 693 839 q 646 833 669 833 q 603 836 622 833 q 549 842 568 840 q 519 845 529 844 q 503 845 508 846 q 492 842 497 844 q 456 794 460 831 q 455 760 456 792 q 454 681 454 729 q 453 572 454 632 q 453 451 453 511 q 453 336 453 392 q 453 243 453 281 q 454 165 453 204 q 458 90 456 126 q 460 61 460 75 q 461 40 461 47 q 460 26 461 29 q 457 18 460 24 q 422 -5 442 0 q 381 -11 401 -10 q 360 -11 369 -11 q 347 -10 350 -11 q 311 4 326 -6 q 292 26 296 14 q 287 65 289 29 q 282 142 285 101 q 280 181 281 156 q 279 247 279 206 q 279 349 279 289 q 279 492 279 408 q 280 549 279 518 q 281 612 281 581 q 280 671 281 643 q 279 718 279 699 l 279 817 l 275 825 q 246 847 269 836 q 235 850 239 850 q 218 849 231 850 q 176 845 196 847 q 128 840 157 843 q 95 837 104 838 q 74 838 86 836 q 24 851 44 840 q 0 878 4 863 z "},"U":{"ha":743,"x_min":64,"x_max":701,"o":"m 229 881 q 230 863 231 878 q 226 825 229 847 q 221 718 222 772 q 221 600 219 664 q 225 431 222 500 q 235 313 228 363 q 253 230 242 264 q 281 165 264 196 q 304 131 294 142 q 328 113 314 119 q 363 110 343 103 q 386 131 374 113 q 410 175 399 149 q 434 232 422 201 q 455 291 446 263 q 470 343 464 319 q 479 376 476 367 q 507 541 494 443 q 531 756 519 639 q 535 803 532 778 q 540 852 538 829 q 544 892 542 875 q 546 911 546 908 q 547 917 546 914 q 550 924 549 921 q 580 946 560 939 q 624 953 600 953 q 662 947 643 953 q 692 929 681 940 q 699 921 696 924 q 700 897 701 918 q 694 829 699 876 q 682 688 690 782 q 666 544 675 619 q 641 392 657 468 q 601 244 625 315 q 542 113 578 172 q 389 -1 483 15 q 348 -5 372 -4 q 308 -3 324 -6 q 227 29 263 6 q 165 85 192 53 q 120 158 139 118 q 90 240 101 199 q 77 308 82 271 q 69 396 72 346 q 65 510 65 446 q 64 658 64 575 q 65 721 64 696 q 65 764 65 746 q 66 795 65 782 q 68 822 67 808 q 73 872 71 860 q 79 890 75 883 q 108 912 86 903 q 153 921 129 921 q 203 909 181 921 q 229 881 226 897 z "},"V":{"ha":682,"x_min":29,"x_max":663,"o":"m 29 901 q 38 934 29 924 q 67 956 47 944 q 129 969 97 969 q 170 961 150 969 q 193 928 190 953 q 197 906 194 922 q 204 871 200 890 q 250 617 224 743 q 313 367 276 490 q 330 309 326 319 q 336 299 333 299 q 344 306 342 299 q 353 338 346 313 q 363 377 356 349 q 376 433 369 406 q 394 501 383 461 q 411 569 404 542 q 446 706 432 653 q 468 796 460 760 q 481 856 476 832 q 489 904 486 881 q 497 946 493 936 q 510 965 500 956 q 549 986 525 979 q 597 993 574 993 q 628 990 614 993 q 651 976 643 986 q 658 949 663 964 q 656 933 657 944 q 651 907 654 921 q 644 864 649 885 q 632 808 640 843 q 610 715 624 772 q 571 563 596 657 q 530 401 549 476 q 500 278 511 326 q 435 64 475 171 q 395 13 424 26 q 331 -4 367 -1 q 299 -3 306 -4 q 278 5 288 0 q 263 17 268 10 q 236 69 253 28 q 197 179 219 111 q 114 469 149 322 q 54 765 79 615 q 47 806 51 782 q 39 846 42 829 q 33 878 36 863 q 29 901 31 894 z "},"W":{"ha":976,"x_min":49,"x_max":946,"o":"m 139 946 q 207 911 200 946 q 213 880 210 896 q 217 844 215 864 q 222 797 219 824 q 226 735 224 771 q 234 622 231 668 q 240 541 238 575 q 246 479 243 507 q 253 421 249 451 q 258 394 256 406 q 260 381 260 382 q 271 386 264 376 q 277 406 272 388 q 290 454 282 425 q 306 519 297 483 q 325 593 315 556 q 341 658 335 629 q 352 710 347 686 q 360 755 357 733 q 365 799 363 776 q 375 867 369 838 q 388 908 381 897 q 421 935 396 924 q 474 946 446 946 q 546 910 533 946 q 550 888 547 906 q 557 851 553 871 q 601 638 575 743 q 656 426 628 532 q 669 377 667 386 q 678 368 672 368 q 685 376 683 368 q 694 419 688 383 q 703 462 699 439 q 710 499 707 485 q 717 533 714 517 q 723 568 719 550 q 731 608 726 586 q 742 660 736 631 q 758 738 751 708 q 767 786 764 767 q 773 820 771 806 q 776 853 775 835 q 781 893 779 878 q 785 917 783 908 q 790 929 788 925 q 797 938 793 933 q 833 960 811 953 q 883 965 856 967 q 940 940 926 963 q 942 906 946 932 q 937 851 942 885 q 926 782 932 818 q 912 712 919 746 q 899 654 904 678 q 886 590 893 626 q 875 529 879 554 q 844 380 860 454 q 818 231 829 306 q 804 163 811 196 q 789 94 797 129 q 773 41 782 56 q 743 15 764 26 q 719 7 731 10 q 692 3 707 4 q 644 9 665 1 q 617 31 624 17 q 600 68 611 40 q 576 132 589 96 q 551 208 564 168 q 528 283 538 249 q 515 330 524 299 q 499 392 507 361 q 484 448 490 424 q 478 472 478 472 q 472 481 478 475 q 464 486 468 486 q 455 474 460 486 q 443 432 450 463 q 433 394 439 415 q 422 361 426 374 q 413 333 417 346 q 406 308 410 321 q 398 280 401 294 q 389 244 394 265 q 380 206 385 225 q 374 178 375 186 q 361 128 367 154 q 353 81 356 101 q 343 35 347 49 q 331 10 339 21 q 284 -21 315 -10 q 221 -26 253 -32 q 206 -23 213 -25 q 190 -17 200 -21 q 164 12 174 -8 q 143 85 154 32 q 124 185 135 125 q 107 307 114 246 q 81 518 89 413 q 65 731 72 624 q 63 777 64 760 q 60 807 61 794 q 57 831 58 819 q 53 858 56 842 q 49 884 50 875 q 49 897 49 893 q 92 938 54 924 q 114 944 104 943 q 139 946 124 946 z "},"X":{"ha":801,"x_min":13,"x_max":786,"o":"m 510 565 q 504 542 506 556 q 506 526 504 533 q 512 506 507 518 q 526 477 517 494 q 553 431 536 460 q 599 354 576 392 q 657 260 621 317 q 708 179 683 219 q 757 97 733 139 q 767 79 761 89 q 775 64 772 69 q 783 33 786 44 q 736 0 776 11 q 703 -3 726 -3 q 668 -1 679 -4 q 625 19 639 6 q 590 71 611 32 q 576 97 582 86 q 560 123 569 108 q 538 160 551 138 q 499 222 524 183 q 476 258 492 233 q 447 304 461 282 q 423 343 432 329 q 410 364 414 357 q 403 372 406 371 q 397 375 400 374 q 390 377 392 378 q 382 374 389 376 q 351 335 372 368 q 305 263 329 303 q 260 188 281 224 q 231 138 239 151 q 203 91 214 108 q 185 63 193 74 q 170 48 176 53 q 156 39 164 43 q 97 28 129 28 q 73 30 88 28 q 44 38 58 32 q 22 52 31 43 q 13 74 13 61 q 15 85 13 81 q 31 107 18 89 q 44 132 33 114 q 67 169 56 150 q 167 333 115 253 q 272 492 219 413 q 285 515 281 506 q 293 528 290 524 q 294 550 296 536 q 290 571 293 564 q 280 590 289 575 q 258 625 271 604 q 230 670 244 646 q 200 717 215 694 q 163 774 178 751 q 140 811 149 796 q 125 837 131 826 q 115 857 119 847 q 120 913 100 890 q 186 936 140 936 q 282 882 251 936 q 294 859 289 869 q 309 834 300 849 q 332 797 318 819 q 371 735 346 774 q 385 713 379 722 q 393 700 392 703 q 399 697 396 699 q 404 696 401 696 q 412 697 408 696 q 422 705 415 699 q 438 724 428 711 q 467 758 449 736 q 531 838 508 811 q 564 879 553 865 q 581 898 575 893 q 594 908 586 903 q 629 930 611 919 q 668 940 647 940 q 719 919 703 940 q 733 886 729 907 q 729 854 736 865 q 710 828 728 851 q 669 775 693 804 q 554 628 592 678 q 510 565 517 578 z "},"Y":{"ha":694,"x_min":1,"x_max":692,"o":"m 692 975 q 690 965 692 971 q 682 949 689 960 q 668 918 674 932 q 656 892 664 908 q 640 857 649 876 q 620 817 631 838 q 600 776 610 796 q 556 685 581 738 q 508 586 531 633 q 471 505 486 539 q 456 467 456 471 q 449 451 456 465 q 435 419 443 438 q 424 393 432 413 q 408 353 417 374 q 394 317 400 332 q 386 301 388 301 q 379 283 386 300 q 364 244 372 267 q 348 199 356 221 q 336 165 340 176 q 328 142 333 157 q 319 110 324 128 q 309 76 314 93 q 301 47 304 60 q 290 32 299 40 q 269 18 281 24 q 234 9 254 11 q 194 10 214 7 q 142 33 158 17 q 132 64 131 46 q 136 84 132 68 q 147 119 140 100 q 159 160 153 139 q 169 193 165 181 q 190 251 178 219 q 214 315 201 283 q 239 377 226 347 q 261 429 251 407 l 276 468 l 265 493 q 179 656 228 579 q 149 704 168 674 q 114 763 131 735 q 74 833 93 799 q 38 904 56 868 q 17 943 24 936 q 8 958 8 951 q 35 999 1 981 q 58 1006 47 1004 q 86 1010 69 1008 q 179 976 151 1013 q 197 946 188 965 q 224 890 213 914 q 249 844 236 867 q 276 797 261 822 q 313 738 290 772 q 337 697 325 715 q 351 672 349 678 q 361 658 358 663 q 380 695 361 658 q 423 781 399 732 q 469 876 447 829 q 500 942 492 922 q 518 978 510 963 q 538 1003 526 993 q 566 1017 550 1013 q 607 1021 582 1021 q 632 1019 618 1021 q 660 1011 646 1017 q 683 997 674 1006 q 692 975 692 988 z "},"Z":{"ha":667,"x_min":13,"x_max":649,"o":"m 138 4 q 92 4 108 4 q 67 4 76 4 q 53 5 57 4 q 46 7 50 6 q 24 17 31 11 q 15 35 18 24 q 13 47 14 42 q 15 59 13 51 q 23 80 17 67 q 40 115 29 93 q 81 198 63 156 q 119 283 100 240 q 137 321 128 300 q 153 356 146 342 q 181 413 164 378 q 219 488 199 449 q 261 568 240 528 q 299 639 282 608 q 353 739 335 706 q 383 794 372 772 q 399 822 390 807 q 413 847 407 838 q 423 868 421 864 q 424 879 425 872 q 421 886 422 885 q 413 890 419 888 q 401 894 406 893 q 381 893 397 894 q 347 892 371 893 q 300 889 324 892 q 249 886 276 888 q 208 885 222 885 q 177 885 185 885 q 160 889 169 886 q 124 905 139 896 q 106 925 110 914 q 106 939 103 932 q 124 959 110 951 q 155 971 138 967 q 190 977 172 975 q 218 981 207 979 q 277 985 243 982 q 345 994 311 989 q 411 1003 379 999 q 464 1011 443 1007 q 483 1015 472 1014 q 499 1017 493 1017 q 513 1019 504 1018 q 529 1022 522 1021 q 565 1025 544 1025 q 600 1021 585 1025 q 649 974 649 1006 q 623 906 649 961 q 553 771 597 850 q 538 744 546 758 q 526 722 531 731 q 509 691 522 715 q 481 639 496 667 q 384 456 431 547 q 293 268 338 364 q 275 231 286 254 q 254 186 264 207 q 231 128 235 142 q 235 108 228 115 q 241 104 238 106 q 256 102 244 103 q 292 102 268 101 q 360 103 317 103 q 406 103 382 103 q 451 103 429 103 q 491 103 474 103 q 518 103 508 103 q 562 103 551 103 q 579 100 572 103 q 628 57 628 85 q 620 38 628 46 q 601 24 613 29 q 576 15 589 18 q 556 11 564 13 q 526 9 550 10 q 453 8 503 8 q 327 6 404 7 q 138 4 250 6 z "},"[":{"ha":597,"x_min":50,"x_max":550,"o":"m 481 76 q 530 49 510 67 q 550 13 550 31 q 538 -11 550 -3 q 488 -26 525 -19 q 403 -32 443 -36 q 247 43 311 -21 q 218 77 229 61 q 201 115 207 93 q 192 168 194 138 q 188 246 189 199 q 187 303 188 282 q 184 338 186 325 q 178 359 182 351 q 169 375 175 367 q 138 394 161 389 q 67 432 94 406 q 51 467 50 451 q 93 499 53 489 q 118 510 107 503 q 144 532 129 517 q 202 622 185 568 q 222 728 219 675 q 222 768 224 743 q 218 810 221 793 q 215 827 217 817 q 210 847 213 838 q 203 878 204 871 q 201 901 201 886 q 238 988 201 956 q 321 1038 274 1021 q 374 1052 351 1049 q 418 1054 396 1056 q 494 1031 461 1051 q 526 985 526 1010 q 515 963 526 969 q 479 949 507 954 q 446 941 464 946 q 414 929 428 936 q 392 912 403 922 q 375 892 381 901 q 368 863 368 876 q 375 819 368 849 q 385 646 397 728 q 359 545 375 585 q 315 474 343 506 q 299 447 300 456 q 311 422 297 439 q 329 394 321 411 q 340 361 338 376 q 351 299 349 331 q 356 207 354 267 q 357 149 356 168 q 361 110 358 129 q 401 82 365 79 q 430 83 419 83 q 449 83 440 83 q 464 81 457 83 q 481 76 471 79 z "},"\\":{"ha":561,"x_min":49,"x_max":506,"o":"m 497 81 q 504 42 506 53 q 490 21 503 32 q 447 -1 478 8 q 410 -5 433 -4 q 376 -3 388 -6 q 331 29 339 8 q 320 63 329 33 q 300 133 311 93 q 273 226 289 174 q 247 314 257 278 q 235 355 242 331 q 220 406 228 379 q 205 458 213 432 q 190 507 197 485 q 175 558 183 531 q 158 615 167 586 q 142 671 150 644 q 128 718 135 697 q 103 802 115 760 q 85 864 90 844 q 72 907 79 882 q 60 947 65 932 q 49 994 49 988 q 108 1053 49 1038 q 140 1056 119 1056 q 172 1053 161 1056 q 215 1026 199 1046 q 220 1019 218 1024 q 226 1004 222 1015 q 236 971 229 993 q 254 910 243 949 q 278 828 268 861 q 295 769 288 794 q 310 719 303 743 q 325 667 317 696 q 348 589 335 633 q 371 514 361 544 q 381 478 375 499 q 392 435 386 457 q 406 392 399 414 q 418 351 413 369 q 430 311 424 333 q 443 266 436 289 q 456 222 450 243 q 467 185 463 201 q 485 122 476 151 q 497 81 494 92 z "},"]":{"ha":544,"x_min":26,"x_max":485,"o":"m 475 428 q 476 396 485 411 q 452 380 469 383 q 424 375 435 376 l 404 375 l 396 364 q 381 333 386 350 q 375 294 375 317 q 379 238 375 271 q 393 157 383 206 q 403 92 400 117 q 403 44 406 68 q 375 -25 403 -3 q 301 -50 347 -47 q 286 -50 293 -50 q 276 -49 279 -50 q 151 3 206 -39 q 119 39 129 21 q 113 71 108 57 q 158 96 121 94 q 181 94 171 96 q 207 88 192 93 q 233 92 226 82 q 228 188 244 107 q 217 249 222 215 q 210 300 213 283 q 209 337 208 315 q 213 371 210 358 q 219 397 215 386 q 232 424 224 408 q 240 441 239 436 q 240 453 240 446 q 228 485 240 471 q 211 510 221 493 q 197 539 201 526 q 185 576 188 563 q 183 619 182 590 q 188 688 183 654 q 206 779 192 721 q 219 851 215 819 q 226 910 224 882 q 227 922 228 919 q 224 932 226 925 q 213 944 218 943 q 196 947 208 949 q 176 944 185 947 q 138 942 158 940 q 98 952 117 944 q 64 972 79 960 q 42 997 49 983 q 58 1044 26 1028 q 165 1057 90 1060 q 247 1049 213 1056 q 308 1031 281 1043 q 350 1003 333 1017 q 376 974 367 990 q 390 936 386 957 q 393 888 393 915 q 392 853 393 869 q 389 817 392 836 q 381 776 386 799 q 369 721 376 753 q 352 625 358 668 q 349 563 346 582 q 357 526 350 544 q 374 497 364 508 q 382 491 379 493 q 392 488 385 489 q 439 465 411 481 q 475 428 467 449 z "},"^":{"ha":618,"x_min":60,"x_max":561,"o":"m 525 625 q 545 582 538 599 q 556 555 553 565 q 560 539 560 544 q 561 526 561 533 q 549 503 561 510 q 531 499 543 499 q 490 510 513 499 q 450 542 468 522 q 440 555 444 549 q 430 573 436 561 q 414 606 424 585 q 388 663 404 626 q 359 724 369 701 q 343 756 349 746 q 335 769 338 767 q 332 774 333 772 q 322 774 328 776 q 316 771 318 772 q 311 763 314 769 q 303 744 308 757 q 288 707 297 732 q 276 679 282 694 q 267 654 269 664 q 256 630 263 646 q 244 601 250 614 q 220 541 229 564 q 206 506 211 518 q 197 488 200 493 q 192 481 194 482 q 153 474 181 467 q 123 488 139 478 q 93 511 107 497 q 70 541 79 525 q 61 574 61 557 l 60 586 l 81 639 q 101 688 89 660 q 119 735 113 715 q 137 776 128 754 q 150 810 146 797 q 172 863 161 838 q 188 903 182 888 q 196 923 190 910 q 208 950 201 936 q 227 998 221 982 q 237 1022 233 1014 q 242 1031 240 1029 q 249 1033 244 1032 q 306 1026 272 1044 q 361 974 339 1008 q 374 949 364 971 q 399 899 385 926 q 447 793 418 854 q 503 672 475 732 q 513 650 507 664 q 525 625 519 636 z "},"_":{"ha":801,"x_min":47,"x_max":753,"o":"m 750 35 q 752 13 753 24 q 747 -6 751 1 q 734 -16 742 -14 q 704 -18 726 -18 q 678 -18 681 -21 q 640 -18 660 -18 q 599 -18 622 -18 q 549 -17 576 -18 q 444 -16 494 -17 q 378 -15 394 -15 q 355 -15 369 -15 q 322 -15 340 -15 q 282 -14 303 -14 q 242 -14 261 -14 q 169 -12 197 -12 q 138 -11 140 -11 q 109 3 124 -7 q 83 26 94 13 q 62 54 71 39 q 50 83 53 69 q 50 111 47 99 q 60 129 53 124 q 68 134 64 132 q 94 136 72 136 q 166 136 117 136 q 308 135 215 136 q 340 134 321 135 q 380 133 358 133 q 424 133 401 133 q 467 132 447 132 q 567 131 529 132 q 626 130 604 131 q 658 128 649 129 q 671 126 667 128 q 719 91 696 118 q 750 35 743 64 z "},"`":{"ha":303,"x_min":31,"x_max":261,"o":"m 250 900 q 243 865 261 881 q 206 848 231 853 q 154 847 182 843 q 115 860 129 853 q 91 877 100 867 q 76 903 82 888 q 64 940 71 918 q 53 969 58 956 q 47 988 49 983 q 79 1040 31 1025 q 115 1044 92 1044 q 160 1039 138 1044 q 200 1018 183 1033 q 215 998 208 1011 q 232 950 221 985 q 244 917 239 932 q 250 900 249 903 z "}}}
